<?xml version="1.0" encoding="UTF-8" standalone="yes"?>
<!DOCTYPE svg PUBLIC "-//W3C//DTD SVG 1.1//EN" "http://www.w3.org/Graphics/SVG/1.1/DTD/svg11.dtd">

<svg width="500" height="500" viewBox="0 0 500 500" xmlns="http://www.w3.org/2000/svg" xmlns:xlink="http://www.w3.org/1999/xlink" version="1.1" baseProfile="full">
    <g transform="scale(1,-1) translate(0,-500)">
        <path d="M 451.156259 117.784972 C 485.781571 59.503327 446.959085 -31.156096 395.219110 12.828278 C 294.758088 98.130676 128.625222 34.532681 126.510226 33.785581 C 227.684248 151.884465 389.058643 210.019343 451.156259 117.784972 Z M 461.013426 133.568418 L 360.091420 337.214463 C 345.657917 360.267947 308.772414 355.456736 287.923987 337.815830 L 20.904465 114.096849 C -3.351762 93.248422 -4.955457 56.362810 17.697072 33.710267 C 37.543044 13.864307 76.711373 7.718070 106.763761 41.074654 C 240.402394 198.101673 406.201738 215.594272 461.013426 133.568418 Z" transform="scale(1.000000,1.000000) translate(17.000000,73.000000)" opacity="1.000000"></path>
    </g>
</svg>