<?xml version="1.0" encoding="UTF-8" standalone="yes"?>
<!DOCTYPE svg PUBLIC "-//W3C//DTD SVG 1.1//EN" "http://www.w3.org/Graphics/SVG/1.1/DTD/svg11.dtd">

<svg width="72" height="72" viewBox="0 0 72 72" xmlns="http://www.w3.org/2000/svg" xmlns:xlink="http://www.w3.org/1999/xlink" version="1.1" baseProfile="full">
    <g transform="scale(1,-1) translate(0,-72)">
        <path d="M 9.919525 16.323608 Q 11.419159 16.323608 12.226654 17.131104 Q 13.034149 17.938599 13.034149 19.372314 Q 13.034149 20.492920 12.210174 21.275696 Q 11.386200 22.058472 9.985443 22.058472 Q 8.930755 22.058472 8.197418 21.440491 Q 7.464081 20.822510 7.464081 19.817261 L 2.058807 19.817261 L 2.025848 19.916138 Q 1.926971 22.783569 4.275299 24.563354 Q 6.623627 26.343140 9.985443 26.343140 Q 13.891083 26.343140 16.239410 24.555115 Q 18.587738 22.767090 18.587738 19.487671 Q 18.587738 17.856201 17.598968 16.488403 Q 16.610199 15.120605 14.912811 14.329590 Q 16.857391 13.620972 17.912079 12.195496 Q 18.966766 10.770020 18.966766 8.726562 Q 18.966766 5.430664 16.437164 3.543762 Q 13.907562 1.656860 9.985443 1.656860 Q 6.590668 1.656860 4.085785 3.428406 Q 1.580902 5.199951 1.663299 8.561768 L 1.696258 8.660645 L 7.118011 8.660645 Q 7.118011 7.490601 7.925506 6.716064 Q 8.733002 5.941528 9.985443 5.941528 Q 11.485077 5.941528 12.449127 6.773743 Q 13.413177 7.605957 13.413177 8.841919 Q 13.413177 10.588745 12.498565 11.388000 Q 11.583954 12.187256 9.919525 12.187256 L 7.282806 12.187256 L 7.282806 16.323608 Z M 27.733856 2.002930 L 22.180267 2.002930 L 22.180267 6.683105 L 27.733856 6.683105 Z M 43.966156 2.002930 L 38.396087 2.002930 L 38.396087 21.234497 L 33.567596 21.234497 L 33.567596 25.486206 L 43.966156 26.343140 Z M 65.916839 11.379761 L 68.339325 11.379761 L 68.339325 7.062134 L 65.916839 7.062134 L 65.916839 2.002930 L 60.346771 2.002930 L 60.346771 7.062134 L 50.805145 7.062134 L 50.475555 10.489868 L 60.346771 25.947632 L 60.346771 25.997070 L 65.916839 25.997070 Z M 55.254608 11.379761 L 60.346771 11.379761 L 60.346771 18.844971 L 60.247894 18.861450 L 59.638153 17.625488 Z" transform="scale(1.000000,1.000000) translate(1.000000,22.000000)" opacity="1.000000"></path>
    </g>
</svg>