<?xml version="1.0" encoding="UTF-8" standalone="yes"?>
<!DOCTYPE svg PUBLIC "-//W3C//DTD SVG 1.1//EN" "http://www.w3.org/Graphics/SVG/1.1/DTD/svg11.dtd">

<svg width="375" height="375" viewBox="0 0 375 375" xmlns="http://www.w3.org/2000/svg" xmlns:xlink="http://www.w3.org/1999/xlink" version="1.1" baseProfile="full">
    <g transform="scale(1.000000,-1.000000) translate(0,-375)">
        <path d="M 142.235853 250.725275 L 17.000000 250.725275 L 33.000000 266.725275 L 33.000000 17.000000 L 17.000000 33.000000 L 267.549451 33.000000 L 251.549451 17.000000 L 251.549451 142.625782 C 251.549451 151.462338 258.712895 158.625782 267.549451 158.625782 C 276.386007 158.625782 283.549451 151.462338 283.549451 142.625782 L 283.549451 17.000000 C 283.549451 8.163444 276.386007 1.000000 267.549451 1.000000 L 17.000000 1.000000 C 8.163444 1.000000 1.000000 8.163444 1.000000 17.000000 L 1.000000 266.725275 C 1.000000 275.561831 8.163444 282.725275 17.000000 282.725275 L 142.235853 282.725275 C 151.072409 282.725275 158.235853 275.561831 158.235853 266.725275 C 158.235853 257.888719 151.072409 250.725275 142.235853 250.725275 Z" transform="scale(1.000000,1.000000) translate(45.264147,44.874218)" opacity="1.000000"></path>
        <path d="M 1.000000 39.300067 L 1.000000 1.000000 L 39.494731 1.000000 L 153.028519 113.959670 L 114.533788 152.259737 L 1.000000 39.300067 Z M 182.797774 143.578385 C 186.801226 147.561592 186.801226 153.996003 182.797774 157.979210 L 158.777063 181.878451 C 154.773611 185.861658 148.306496 185.861658 144.303044 181.878451 L 125.517615 163.188018 L 164.012346 124.887950 L 182.797775 143.578384 Z" transform="scale(1.000000,1.000000) translate(124.882343,124.387239)" opacity="1.000000"></path>
    </g>
</svg>