<?xml version="1.0" encoding="UTF-8" standalone="yes"?>
<!DOCTYPE svg PUBLIC "-//W3C//DTD SVG 1.1//EN" "http://www.w3.org/Graphics/SVG/1.1/DTD/svg11.dtd">

<svg width="256" height="256" viewBox="0 0 256 256" xmlns="http://www.w3.org/2000/svg" xmlns:xlink="http://www.w3.org/1999/xlink" version="1.1" baseProfile="full">
    <g transform="scale(1,-1) translate(0,-256)">
        <path d="M 129.554300 70.459900 L 128.374700 72.784800 L 125.600400 77.260500 L 122.300300 81.482000 L 118.507700 85.423500 L 114.255500 89.059300 L 109.576900 92.364000 L 104.505100 95.311300 L 99.073000 97.876000 L 93.314000 100.032000 L 87.261000 101.753700 L 80.947100 103.015400 L 74.405600 103.791200 L 67.669500 104.055600 L 60.933400 103.791200 L 54.391900 103.015400 L 48.078100 101.753700 L 42.025100 100.032000 L 36.266000 97.876000 L 30.834000 95.311300 L 25.762100 92.364000 L 21.083600 89.059300 L 16.831400 85.423500 L 13.038700 81.482000 L 9.738700 77.260500 L 6.964400 72.784800 L 5.784800 70.459900 L 5.718300 70.307200 L 129.620800 70.307200 Z" transform="scale(1.000000,1.000000) translate(35.000000,-60.000000)" fill="#001c2c" opacity="1.000000"></path>
        <path d="M 86.478800 136.124200 L 72.656300 152.597200 L 30.920800 117.576900 L 33.631800 115.929900 L 36.292400 113.940400 L 38.746600 111.709800 L 40.977200 109.255600 L 42.966700 106.595000 L 44.697800 103.745600 L 45.617100 101.837200 Z M 95.149600 15.073000 L 46.044400 73.594300 L 44.697800 70.798900 L 42.966700 67.949400 L 40.977200 65.288800 L 38.746600 62.834600 L 36.292400 60.604000 L 33.631800 58.614500 L 31.585600 57.371400 L 78.676600 1.250500 Z" transform="scale(1.000000,1.000000) translate(23.000000,18.000000)" fill="#001c2c" opacity="1.000000"></path>
        <path d="M 25.075800 1.409700 L 27.211000 1.735500 L 29.271800 2.265400 L 31.247500 2.988500 L 33.127300 3.894100 L 34.900300 4.971200 L 36.555700 6.209100 L 38.082800 7.597000 L 39.470700 9.124100 L 40.708600 10.779600 L 41.785800 12.552600 L 42.691300 14.432300 L 43.414400 16.408000 L 43.944300 18.468800 L 44.270200 20.604000 L 44.381200 22.802700 L 44.270200 25.001300 L 43.944300 27.136500 L 43.414400 29.197300 L 42.691300 31.173000 L 41.785800 33.052700 L 40.708600 34.825700 L 39.470700 36.481200 L 38.082800 38.008300 L 36.555700 39.396200 L 34.900300 40.634100 L 33.127300 41.711200 L 31.247500 42.616800 L 29.271800 43.339900 L 27.211000 43.869800 L 25.075800 44.195600 L 22.877200 44.306700 L 20.678500 44.195600 L 18.543400 43.869800 L 16.482500 43.339900 L 14.506800 42.616800 L 12.627100 41.711200 L 10.854100 40.634100 L 9.198600 39.396200 L 7.671600 38.008300 L 6.283600 36.481200 L 5.045700 34.825700 L 3.968600 33.052700 L 3.063100 31.173000 L 2.340000 29.197300 L 1.810100 27.136500 L 1.484200 25.001300 L 1.373200 22.802700 L 1.484200 20.604000 L 1.810100 18.468800 L 2.340000 16.408000 L 3.063100 14.432300 L 3.968600 12.552600 L 5.045700 10.779600 L 6.283600 9.124100 L 7.671600 7.597000 L 9.198600 6.209100 L 10.854100 4.971200 L 12.627100 3.894100 L 14.506800 2.988500 L 16.482500 2.265400 L 18.543400 1.735500 L 20.678500 1.409700 L 22.877200 1.298700 Z" transform="scale(1.000000,1.000000) translate(14.000000,82.000000)" fill="#001c2c" opacity="1.000000"></path>
        <path d="M 32.015200 1.911100 L 34.759500 2.177100 L 37.475300 2.707300 L 40.142300 3.502500 L 42.740100 4.563800 L 45.248200 5.892100 L 47.646400 7.488300 L 49.914300 9.353500 L 51.982800 11.437600 L 53.795700 13.676500 L 55.352100 16.049900 L 56.650900 18.537400 L 57.691400 21.118600 L 58.472400 23.773100 L 58.993200 26.480600 L 59.252600 29.220800 L 59.249800 31.973200 L 58.983800 34.717500 L 58.453600 37.433300 L 57.658400 40.100300 L 56.597100 42.698000 L 55.268800 45.206200 L 53.672600 47.604400 L 51.807400 49.872300 L 49.723300 51.940700 L 47.484400 53.753600 L 45.111000 55.310000 L 42.623500 56.608900 L 40.042400 57.649300 L 37.387800 58.430400 L 34.680300 58.951100 L 33.409600 59.071400 L 32.802700 52.964400 L 33.806600 52.869400 L 35.934100 52.460200 L 38.020000 51.846500 L 40.048300 51.028900 L 42.003000 50.008200 L 43.867900 48.785300 L 45.627300 47.360700 L 47.265000 45.735300 L 48.730600 43.953200 L 49.984900 42.068700 L 51.028600 40.097800 L 51.862600 38.056500 L 52.487500 35.960900 L 52.904100 33.826800 L 53.113100 31.670400 L 53.115300 29.507500 L 52.911400 27.354400 L 52.502300 25.226800 L 51.888500 23.140900 L 51.070900 21.112600 L 50.050300 19.158000 L 48.827300 17.293000 L 47.402700 15.533600 L 45.777400 13.896000 L 43.995300 12.430400 L 42.110800 11.176000 L 40.139900 10.132300 L 38.098600 9.298300 L 36.002900 8.673400 L 33.868800 8.256900 L 31.712400 8.047800 L 29.549600 8.045600 L 27.396400 8.249500 L 25.268800 8.658700 L 23.182900 9.272400 L 21.154600 10.090000 L 19.200000 11.110600 L 17.335000 12.333600 L 15.575700 13.758200 L 13.938000 15.383600 L 12.472400 17.165700 L 11.218100 19.050200 L 10.174300 21.021000 L 9.340400 23.062300 L 8.715500 25.158000 L 8.298900 27.292100 L 8.089900 29.448500 L 8.088400 30.910300 L 1.951400 30.875500 L 1.953200 29.145700 L 2.219200 26.401400 L 2.749300 23.685600 L 3.544600 21.018600 L 4.605900 18.420900 L 5.934100 15.912700 L 7.530400 13.514500 L 9.395500 11.246600 L 11.479600 9.178100 L 13.718600 7.365200 L 16.092000 5.808900 L 18.579400 4.510000 L 21.160600 3.469500 L 23.815200 2.688500 L 26.522700 2.167800 L 29.262800 1.908300 Z" transform="scale(1.000000,1.000000) translate(168.000000,106.000000)" fill="#001c2c" opacity="1.000000"></path>
        <path d="M 25.603500 22.056600 L 24.063600 23.747400 L 23.347700 24.272500 L 22.514900 24.475300 L 21.666900 24.351100 L 20.905200 23.895000 L 1.918700 6.603500 L 1.393600 5.887700 L 1.190800 5.054900 L 1.315100 4.206800 L 1.771200 3.445100 L 3.311100 1.754200 Z" transform="scale(1.000000,1.000000) translate(162.000000,149.000000)" fill="#001c2c" opacity="1.000000"></path>
        <path d="M 42.626700 1.402800 L 44.133900 1.704400 L 45.494200 2.284600 L 46.694800 3.153500 L 47.671900 4.267900 L 48.376300 5.568200 L 48.817100 7.040700 L 49.003300 8.671600 L 48.944000 10.447300 L 48.648100 12.354000 L 48.124800 14.377900 L 47.383100 16.505300 L 46.431900 18.722400 L 45.280400 21.015500 L 42.412500 25.774800 L 38.851700 30.673200 L 34.670300 35.600800 L 30.154100 40.223400 L 25.609000 44.225500 L 21.137900 47.524600 L 18.962100 48.884900 L 16.843300 50.038700 L 14.794300 50.975500 L 12.828100 51.685300 L 10.957300 52.157600 L 9.194900 52.382300 L 7.553700 52.349000 L 6.046500 52.047400 L 4.686200 51.467300 L 3.485500 50.598300 L 2.508400 49.483900 L 1.804000 48.183600 L 1.363200 46.711100 L 1.177000 45.080200 L 1.236300 43.304500 L 1.532200 41.397800 L 2.055500 39.373900 L 2.797300 37.246600 L 3.748400 35.029400 L 4.899900 32.736300 L 7.767800 27.977000 L 11.328600 23.078600 L 15.510000 18.151000 L 20.026200 13.528400 L 24.571300 9.526400 L 29.042500 6.227200 L 31.218200 4.866900 L 33.337000 3.713200 L 35.386000 2.776300 L 37.352300 2.066500 L 39.223000 1.594200 L 40.985400 1.369500 Z M 40.123000 7.647400 L 37.942200 8.373500 L 35.218900 9.691300 L 31.580900 11.971100 L 27.767700 14.883800 L 23.888500 18.349400 L 20.052500 22.288000 L 16.488700 26.474600 L 13.399900 30.659900 L 10.855500 34.728100 L 8.924900 38.562800 L 7.866600 41.397200 L 7.347100 43.636100 L 7.290800 45.211600 L 7.412900 45.729400 L 7.622500 46.055800 L 7.967100 46.234100 L 8.493900 46.307300 L 10.057400 46.104400 L 12.238100 45.378400 L 14.961400 44.060500 L 18.599500 41.780700 L 22.412600 38.868100 L 26.291800 35.402500 L 30.127800 31.463800 L 33.691600 27.277300 L 36.780400 23.091900 L 39.324800 19.023800 L 41.255500 15.189000 L 42.313700 12.354700 L 42.833200 10.115700 L 42.889500 8.540200 L 42.767400 8.022400 L 42.557800 7.696000 L 42.213300 7.517700 L 41.686400 7.444500 Z" transform="scale(1.000000,1.000000) translate(171.000000,112.000000)" fill="#001c2c" opacity="1.000000"></path>
        <path d="M 121.321200 119.050200 L 119.703800 120.752200 L 117.292700 123.058500 L 114.773700 125.247700 L 112.151100 127.315400 L 109.429200 129.257300 L 106.612400 131.069000 L 103.705100 132.746200 L 100.711700 134.284300 L 97.636500 135.679200 L 94.483800 136.926300 L 91.258100 138.021300 L 87.963600 138.959900 L 84.604800 139.737700 L 81.186000 140.350200 L 77.711600 140.793100 L 74.186000 141.062100 L 70.613400 141.152700 L 67.040800 141.062100 L 63.515200 140.793100 L 60.040800 140.350200 L 56.622000 139.737700 L 53.263200 138.959900 L 49.968800 138.021300 L 46.743000 136.926300 L 43.590400 135.679200 L 40.515100 134.284300 L 37.521700 132.746200 L 34.614400 131.069000 L 31.797600 129.257300 L 29.075800 127.315400 L 26.453100 125.247700 L 23.934100 123.058500 L 21.523000 120.752200 L 19.224300 118.333200 L 17.042300 115.806000 L 14.981300 113.174700 L 13.045700 110.443900 L 11.239900 107.617900 L 9.568300 104.701100 L 8.035100 101.697900 L 6.644900 98.612600 L 5.401800 95.449600 L 4.310300 92.213300 L 3.374800 88.908000 L 2.599600 85.538200 L 1.989100 82.108200 L 1.547600 78.622500 L 1.279500 75.085200 L 1.189200 71.501000 L 1.279500 67.916700 L 1.547600 64.379500 L 1.989100 60.893700 L 2.599600 57.463700 L 3.374800 54.093900 L 4.310300 50.788700 L 5.401800 47.552300 L 6.644900 44.389300 L 8.035100 41.304000 L 9.568300 38.300800 L 11.239900 35.384000 L 13.045700 32.558000 L 14.981300 29.827200 L 17.042300 27.196000 L 18.540200 25.461100 Z M 85.678400 102.729800 L 82.042500 106.034300 L 78.100900 108.981800 L 73.879500 111.546400 L 69.403900 113.702400 L 64.699800 115.424100 L 59.793100 116.685700 L 54.709400 117.461600 L 49.474500 117.725900 L 44.239600 117.461600 L 39.155900 116.685700 L 36.451500 115.990300 L 36.799900 116.307000 L 40.741500 119.254500 L 44.962900 121.819000 L 49.438500 123.975100 L 54.142600 125.696800 L 59.049300 126.958400 L 64.133000 127.734300 L 69.367900 127.998600 L 74.602800 127.734300 L 79.686500 126.958400 L 84.593200 125.696800 L 89.297200 123.975100 L 93.772800 121.819000 L 97.994300 119.254500 L 101.935800 116.307000 L 102.572200 115.728600 L 86.864000 101.425300 Z" transform="scale(1.000000,1.000000) translate(120.000000,68.000000)" fill="#001c2c" opacity="1.000000"></path>
        <path d="M 51.783000 1.592200 L 52.752600 1.789600 L 53.680600 2.178900 L 54.537900 2.762400 L 98.817200 39.917100 L 94.699800 41.424100 L 89.793100 42.685700 L 84.709400 43.461600 L 79.474500 43.725900 L 74.239600 43.461600 L 69.155900 42.685700 L 66.451500 41.990300 L 66.799900 42.307000 L 70.741500 45.254500 L 74.962900 47.819000 L 79.438500 49.975100 L 84.142600 51.696800 L 89.049300 52.958400 L 94.133000 53.734300 L 98.164400 53.937800 L 64.840200 93.652100 L 62.353300 96.329100 L 59.661000 98.696200 L 56.788600 100.751100 L 53.761400 102.491700 L 50.604600 103.915600 L 47.343500 105.020800 L 44.003300 105.804900 L 40.609400 106.265800 L 37.187100 106.401200 L 33.761500 106.209000 L 30.358100 105.687000 L 27.001900 104.832800 L 23.718500 103.644400 L 20.532900 102.119500 L 17.470500 100.255900 L 14.556500 98.051300 L 14.517300 98.018400 L 11.840200 95.531500 L 9.473100 92.839300 L 7.418200 89.966900 L 5.677700 86.939600 L 4.253700 83.782800 L 3.148600 80.521700 L 2.364500 77.181600 L 1.903600 73.787700 L 1.768100 70.365300 L 1.960300 66.939800 L 2.482400 63.536300 L 3.336500 60.180200 L 4.524900 56.896700 L 6.049900 53.711100 L 7.913500 50.648700 L 10.118000 47.734700 L 47.324700 3.393500 L 48.067700 2.669900 L 48.914000 2.125500 L 49.834600 1.762700 L 50.800600 1.584100 Z M 49.860200 79.518200 L 47.373300 82.195300 L 44.681000 84.562400 L 41.808600 86.617300 L 38.781400 88.357800 L 35.624600 89.781800 L 32.363500 90.886900 L 29.023300 91.671000 L 25.629500 92.131900 L 22.207100 92.267400 L 18.781500 92.075200 L 15.922800 91.636700 L 17.238500 92.437300 L 20.424100 93.962300 L 23.707600 95.150700 L 27.063800 96.004800 L 30.467200 96.526900 L 33.892800 96.719100 L 37.315100 96.583600 L 40.709000 96.122700 L 44.049200 95.338600 L 47.310300 94.233500 L 50.467100 92.809500 L 53.494300 91.069000 L 56.366700 89.014100 L 59.059000 86.647000 L 61.545900 83.969900 L 69.793400 74.140900 L 61.051500 66.180900 Z" transform="scale(1.000000,1.000000) translate(90.000000,142.000000)" fill="#001c2c" opacity="1.000000"></path>
    </g>
</svg>