<?xml version="1.0" encoding="UTF-8" standalone="yes"?>
<!DOCTYPE svg PUBLIC "-//W3C//DTD SVG 1.1//EN" "http://www.w3.org/Graphics/SVG/1.1/DTD/svg11.dtd">

<svg width="800" height="500" viewBox="0 0 800 500" xmlns="http://www.w3.org/2000/svg" xmlns:xlink="http://www.w3.org/1999/xlink" version="1.1" baseProfile="full">
    <g transform="scale(1,-1) translate(0,-500)">
        <path d="M 1.000000 1.000000 L 801.000000 1.000000 L 801.000000 501.000000 L 1.000000 501.000000 Z" transform="scale(1.000000,1.000000) translate(-1.000000,-1.000000)" fill="#ffffff" opacity="1.000000"></path>
        <path d="M 250.834300 135.940100 L 248.530300 140.481200 L 245.953400 144.910700 L 243.111800 149.222600 L 240.013400 153.410300 L 236.666400 157.467700 L 233.078800 161.388300 L 229.258800 165.165900 L 225.214500 168.794300 L 220.953800 172.267400 L 216.484900 175.578500 L 211.816000 178.721600 L 206.954900 181.690200 L 201.910000 184.478200 L 196.689200 187.079400 L 191.300600 189.487200 L 185.752300 191.695600 L 180.052400 193.698100 L 174.209000 195.488700 L 168.230100 197.060900 L 162.123900 198.408400 L 155.898400 199.525100 L 149.561800 200.404400 L 143.122000 201.040400 L 136.587300 201.426600 L 129.965600 201.556700 L 123.343900 201.426600 L 116.809100 201.040400 L 110.369400 200.404400 L 104.032700 199.525100 L 97.807200 198.408400 L 91.701000 197.060900 L 85.722200 195.488700 L 79.878800 193.698100 L 74.178900 191.695600 L 68.630600 189.487200 L 63.242000 187.079400 L 58.021200 184.478200 L 52.976200 181.690200 L 48.115200 178.721600 L 43.446200 175.578500 L 38.977400 172.267400 L 34.716700 168.794300 L 30.672300 165.165900 L 26.852300 161.388300 L 23.264800 157.467700 L 19.917800 153.410300 L 16.819400 149.222600 L 13.977700 144.910700 L 11.400900 140.481200 L 9.096900 135.940100 L 8.967100 135.641900 L 250.964100 135.641900 Z" transform="scale(1.000000,1.000000) translate(69.000000,-119.000000)" fill="#001c2c" opacity="1.000000"></path>
        <path d="M 167.265100 264.534500 L 140.268000 296.708300 L 58.759400 228.314500 L 61.309500 226.848200 L 64.048200 225.092500 L 66.694700 223.210600 L 69.244600 221.206700 L 71.693800 219.085200 L 74.038000 216.850200 L 76.273000 214.505900 L 78.394600 212.056700 L 80.398500 209.506800 L 82.280400 206.860300 L 84.036100 204.121700 L 85.661400 201.295000 L 87.152100 198.384500 L 87.503700 197.606700 Z M 184.200100 28.106500 L 88.300100 142.395700 L 87.152100 139.856400 L 85.661400 136.945900 L 84.036100 134.119200 L 82.280400 131.380600 L 80.398500 128.734100 L 78.394600 126.184200 L 76.273000 123.735000 L 74.038000 121.390700 L 71.693800 119.155700 L 69.244600 117.034200 L 66.694700 115.030300 L 64.048200 113.148400 L 61.309500 111.392700 L 60.080500 110.686000 L 152.026200 1.109400 Z" transform="scale(1.000000,1.000000) translate(45.000000,33.000000)" fill="#001c2c" opacity="1.000000"></path>
        <path d="M 47.759100 1.420200 L 51.929400 2.056600 L 55.954400 3.091600 L 59.813200 4.503900 L 63.484600 6.272500 L 66.947500 8.376300 L 70.180800 10.794100 L 73.163400 13.504900 L 75.874100 16.487400 L 78.292000 19.720800 L 80.395700 23.183700 L 82.164300 26.855100 L 83.576700 30.713800 L 84.611600 34.738900 L 85.248000 38.909100 L 85.464900 43.203300 L 85.248000 47.497600 L 84.611600 51.667800 L 83.576700 55.692900 L 82.164300 59.551600 L 80.395700 63.223000 L 78.292000 66.685900 L 75.874100 69.919200 L 73.163400 72.901800 L 70.180800 75.612600 L 66.947500 78.030400 L 63.484600 80.134200 L 59.813200 81.902800 L 55.954400 83.315100 L 51.929400 84.350100 L 47.759100 84.986500 L 43.464900 85.203300 L 39.170600 84.986500 L 35.000400 84.350100 L 30.975400 83.315100 L 27.116600 81.902800 L 23.445200 80.134200 L 19.982300 78.030400 L 16.749000 75.612600 L 13.766400 72.901800 L 11.055600 69.919200 L 8.637800 66.685900 L 6.534100 63.223000 L 4.765500 59.551600 L 3.353100 55.692900 L 2.318200 51.667800 L 1.681700 47.497600 L 1.464900 43.203300 L 1.681700 38.909100 L 2.318200 34.738900 L 3.353100 30.713800 L 4.765500 26.855100 L 6.534100 23.183700 L 8.637800 19.720800 L 11.055600 16.487400 L 13.766400 13.504900 L 16.749000 10.794100 L 19.982300 8.376300 L 23.445200 6.272500 L 27.116600 4.503900 L 30.975400 3.091600 L 35.000400 2.056600 L 39.170600 1.420200 L 43.464900 1.203300 Z" transform="scale(1.000000,1.000000) translate(27.000000,158.000000)" fill="#001c2c" opacity="1.000000"></path>
        <path d="M 60.094000 1.274600 L 65.453900 1.794100 L 70.758200 2.829600 L 75.967100 4.382800 L 81.040800 6.455600 L 85.939600 9.049900 L 90.623600 12.167600 L 95.053100 15.810400 L 99.093100 19.881000 L 102.633900 24.253900 L 105.673700 28.889400 L 108.210500 33.747700 L 110.242700 38.789100 L 111.768200 43.973800 L 112.785200 49.261900 L 113.291900 54.613800 L 113.286400 59.989600 L 112.766900 65.349500 L 111.731400 70.653800 L 110.178200 75.862700 L 108.105400 80.936500 L 105.511100 85.835200 L 102.393400 90.519200 L 98.750600 94.948700 L 94.680100 98.988700 L 90.307100 102.529500 L 85.671600 105.569300 L 80.813300 108.106200 L 75.771900 110.138300 L 70.587200 111.663800 L 65.299100 112.680800 L 62.817300 112.915800 L 61.632000 100.988000 L 63.592600 100.802400 L 67.748000 100.003300 L 71.822100 98.804500 L 75.783500 97.207700 L 79.601200 95.214200 L 83.243700 92.825600 L 86.679900 90.043300 L 89.878500 86.868700 L 92.741100 83.388000 L 95.190900 79.707400 L 97.229500 75.858000 L 98.858300 71.871100 L 100.078800 67.778000 L 100.892400 63.609900 L 101.300700 59.398100 L 101.305000 55.173800 L 100.906800 50.968400 L 100.107600 46.813000 L 98.908900 42.738900 L 97.312100 38.777500 L 95.318600 34.959800 L 92.930000 31.317300 L 90.147700 27.881100 L 86.973100 24.682500 L 83.492400 21.820000 L 79.811800 19.370100 L 75.962400 17.331500 L 71.975500 15.702700 L 67.882300 14.482200 L 63.714300 13.668600 L 59.502500 13.260300 L 55.278200 13.256000 L 51.072800 13.654200 L 46.917400 14.453400 L 42.843300 15.652100 L 38.881800 17.248900 L 35.064200 19.242400 L 31.421600 21.631000 L 27.985400 24.413400 L 24.786900 27.587900 L 21.924300 31.068600 L 19.474500 34.749300 L 17.435900 38.598700 L 15.807100 42.585500 L 14.586600 46.678700 L 13.773000 50.846700 L 13.364700 55.058500 L 13.361800 57.913500 L 1.375500 57.845600 L 1.379000 54.467100 L 1.898500 49.107100 L 2.933900 43.802800 L 4.487100 38.593900 L 6.560000 33.520200 L 9.154300 28.621400 L 12.271900 23.937400 L 15.914800 19.507900 L 19.985300 15.467900 L 24.358200 11.927100 L 28.993800 8.887300 L 33.852100 6.350500 L 38.893500 4.318300 L 44.078200 2.792800 L 49.366300 1.775800 L 54.718200 1.269100 Z" transform="scale(1.000000,1.000000) translate(329.000000,206.000000)" fill="#001c2c" opacity="1.000000"></path>
        <path d="M 48.852300 41.605500 L 45.844600 44.908000 L 45.186500 45.498900 L 44.446400 45.933600 L 43.649300 46.210900 L 42.819900 46.329700 L 41.983100 46.288800 L 41.163600 46.087000 L 40.386200 45.723200 L 39.675800 45.196200 L 2.593000 11.423800 L 2.002000 10.765700 L 1.567300 10.025600 L 1.290000 9.228500 L 1.171200 8.399100 L 1.212200 7.562300 L 1.413900 6.742700 L 1.777700 5.965400 L 2.304700 5.255000 L 5.312400 1.952500 Z" transform="scale(1.000000,1.000000) translate(316.000000,289.000000)" fill="#001c2c" opacity="1.000000"></path>
        <path d="M 82.678700 2.000600 L 85.622500 2.589600 L 86.988300 3.086900 L 88.279300 3.722700 L 89.492400 4.499500 L 90.624300 5.419900 L 91.646200 6.461000 L 92.532700 7.596400 L 93.286100 8.822500 L 93.908600 10.136000 L 94.769500 13.012000 L 95.133200 16.197500 L 95.017300 19.665600 L 94.439500 23.389500 L 93.417300 27.342500 L 91.968600 31.497500 L 90.110800 35.827800 L 87.861800 40.306600 L 85.239100 44.907000 L 82.260500 49.602100 L 78.943500 54.365200 L 75.305800 59.169300 L 71.365100 63.987700 L 67.139000 68.793500 L 62.748200 73.449300 L 58.318200 77.822100 L 53.874200 81.891800 L 49.441200 85.638500 L 45.044200 89.042000 L 40.708400 92.082200 L 36.458900 94.739000 L 32.320600 96.992400 L 28.318700 98.822300 L 24.478400 100.208500 L 20.824500 101.131100 L 17.382300 101.569800 L 14.176800 101.504800 L 11.233000 100.915700 L 9.867200 100.418400 L 8.576200 99.782700 L 7.363200 99.005800 L 6.231200 98.085500 L 5.209400 97.044300 L 4.322800 95.909000 L 3.569400 94.682900 L 2.947000 93.369400 L 2.086000 90.493400 L 1.722300 87.307900 L 1.838200 83.839800 L 2.416100 80.115800 L 3.438200 76.162900 L 4.887000 72.007900 L 6.744700 67.677500 L 8.993700 63.198700 L 11.616400 58.598400 L 14.595100 53.903200 L 17.912100 49.140200 L 21.549800 44.336000 L 25.490500 39.517600 L 29.716500 34.711900 L 34.107300 30.056100 L 38.537300 25.683300 L 42.981300 21.613500 L 47.414400 17.866800 L 51.811300 14.463400 L 56.147100 11.423200 L 60.396700 8.766300 L 64.534900 6.512900 L 68.536800 4.683100 L 72.377200 3.296800 L 76.031000 2.374300 L 79.473200 1.935500 Z M 78.949300 14.016900 L 76.667900 14.527900 L 74.096700 15.397300 L 71.267000 16.619500 L 68.210400 18.189000 L 64.713700 20.251100 L 61.104900 22.641700 L 57.410500 25.341300 L 53.657300 28.330500 L 49.871900 31.589600 L 46.080900 35.099300 L 42.310900 38.839800 L 38.588600 42.791900 L 35.000800 46.866400 L 31.628100 50.968800 L 28.487200 55.070500 L 25.595200 59.143400 L 22.969000 63.158900 L 20.625600 67.088900 L 18.581900 70.904900 L 16.854900 74.578600 L 15.577200 77.768300 L 14.624100 80.699600 L 13.998300 83.340700 L 13.702200 85.659800 L 13.685900 87.046300 L 13.804900 88.081800 L 14.024800 88.794800 L 14.311300 89.213400 L 14.754800 89.459600 L 15.485100 89.612100 L 16.527300 89.633900 L 17.906200 89.488500 L 20.187600 88.977500 L 22.758800 88.108100 L 25.588500 86.885800 L 28.645100 85.316300 L 32.141800 83.254300 L 35.750600 80.863600 L 39.445000 78.164000 L 43.198200 75.174900 L 46.983600 71.915700 L 50.774700 68.406100 L 54.544600 64.665500 L 58.266900 60.713500 L 61.854700 56.638900 L 65.227500 52.536600 L 68.368300 48.434800 L 71.260300 44.362000 L 73.886500 40.346400 L 76.229900 36.416400 L 78.273600 32.600400 L 80.000600 28.926700 L 81.278300 25.737000 L 82.231400 22.805800 L 82.857300 20.164700 L 83.153300 17.845600 L 83.169600 16.459100 L 83.050600 15.423500 L 82.830800 14.710500 L 82.544300 14.291900 L 82.100800 14.045700 L 81.370400 13.893300 L 80.328200 13.871400 Z" transform="scale(1.000000,1.000000) translate(333.000000,216.000000)" fill="#001c2c" opacity="1.000000"></path>
        <path d="M 235.769700 230.843000 L 232.610600 234.167300 L 227.901500 238.671800 L 222.981500 242.947500 L 217.859200 246.986100 L 212.543000 250.778900 L 207.041500 254.317400 L 201.363300 257.593000 L 195.516700 260.597200 L 189.510400 263.321500 L 183.352800 265.757300 L 177.052600 267.896100 L 170.618100 269.729300 L 164.058000 271.248300 L 157.380700 272.444700 L 150.594700 273.309800 L 143.708600 273.835100 L 136.731000 274.012100 L 129.753300 273.835100 L 122.867300 273.309800 L 116.081300 272.444700 L 109.404000 271.248300 L 102.843900 269.729300 L 96.409400 267.896100 L 90.109100 265.757300 L 83.951600 263.321500 L 77.945300 260.597200 L 72.098700 257.593000 L 66.420400 254.317400 L 60.918900 250.778900 L 55.602800 246.986100 L 50.480400 242.947500 L 45.560500 238.671800 L 40.851400 234.167300 L 36.361700 229.442800 L 32.099900 224.506700 L 28.074500 219.367600 L 24.294100 214.034000 L 20.767200 208.514500 L 17.502200 202.817600 L 14.507800 196.951900 L 11.792400 190.925900 L 9.364600 184.748100 L 7.232800 178.427200 L 5.405600 171.971700 L 3.891500 165.390000 L 2.699100 158.690800 L 1.836800 151.882700 L 1.313200 144.974000 L 1.136700 137.973500 L 1.313200 130.973000 L 1.836800 124.064300 L 2.699100 117.256100 L 3.891500 110.557000 L 5.405600 103.975300 L 7.232800 97.519800 L 9.364600 91.198800 L 11.792400 85.021100 L 14.507800 78.995100 L 17.502200 73.129400 L 20.767200 67.432500 L 24.294100 61.913000 L 28.074500 56.579400 L 32.099900 51.440300 L 35.025500 48.051800 Z M 166.154800 198.967300 L 162.681800 202.278400 L 159.053400 205.421500 L 155.275700 208.390200 L 151.355000 211.178200 L 147.297700 213.779300 L 143.110000 216.187200 L 138.798200 218.395500 L 134.368600 220.398100 L 129.827400 222.188600 L 125.181000 223.760800 L 120.435600 225.108400 L 115.597600 226.225000 L 110.673100 227.104400 L 105.668500 227.740300 L 100.590100 228.126500 L 95.444100 228.256600 L 90.298100 228.126500 L 85.219700 227.740300 L 80.215100 227.104400 L 75.290600 226.225000 L 70.452500 225.108400 L 70.157000 225.024500 L 70.689000 225.485300 L 74.466700 228.454000 L 78.387400 231.242000 L 82.444700 233.843100 L 86.632400 236.251000 L 90.944200 238.459400 L 95.373800 240.462000 L 99.915000 242.252500 L 104.561400 243.824700 L 109.306800 245.172200 L 114.144800 246.288800 L 119.069300 247.168200 L 124.073900 247.804200 L 129.152300 248.190300 L 134.298300 248.320500 L 139.444300 248.190300 L 144.522700 247.804200 L 149.527300 247.168200 L 154.451800 246.288800 L 159.289900 245.172200 L 164.035300 243.824700 L 168.681700 242.252500 L 173.222800 240.462000 L 177.652500 238.459400 L 181.964300 236.251000 L 186.152000 233.843100 L 190.209300 231.242000 L 194.129900 228.454000 L 197.907600 225.485300 L 199.180300 224.382900 L 168.531200 196.474800 Z" transform="scale(1.000000,1.000000) translate(234.000000,131.000000)" fill="#001c2c" opacity="1.000000"></path>
        <path d="M 99.359000 1.964200 L 101.252900 2.349800 L 103.065400 3.110000 L 104.739800 4.249800 L 191.248900 76.839600 L 187.827400 78.188600 L 183.181000 79.760800 L 178.435600 81.108400 L 173.597600 82.225000 L 168.673100 83.104400 L 163.668500 83.740300 L 158.590100 84.126500 L 153.444100 84.256600 L 148.298100 84.126500 L 143.219700 83.740300 L 138.215100 83.104400 L 133.290600 82.225000 L 128.452500 81.108400 L 128.157000 81.024500 L 128.689000 81.485300 L 132.466700 84.454000 L 136.387400 87.242000 L 140.444700 89.843100 L 144.632400 92.251000 L 148.944200 94.459400 L 153.373800 96.462000 L 157.915000 98.252500 L 162.561400 99.824700 L 167.306800 101.172200 L 172.144800 102.288800 L 177.069300 103.168200 L 182.073900 103.804200 L 187.152300 104.190300 L 189.899000 104.259800 L 124.861400 181.768600 L 122.486000 184.458300 L 120.004200 186.997200 L 117.422100 189.384800 L 114.745900 191.620500 L 111.981700 193.703700 L 109.135700 195.634000 L 106.214200 197.410800 L 103.223100 199.033500 L 100.168900 200.501600 L 97.057500 201.814600 L 93.895200 202.972000 L 90.688100 203.973100 L 87.442500 204.817500 L 84.164400 205.504600 L 80.860100 206.033800 L 77.535700 206.404800 L 74.197500 206.616800 L 70.851500 206.669300 L 67.503900 206.561900 L 64.160900 206.293900 L 60.828700 205.864900 L 57.513500 205.274300 L 54.221400 204.521500 L 50.958600 203.606000 L 47.731200 202.527300 L 44.545500 201.284900 L 41.407600 199.878100 L 38.323700 198.306500 L 35.299900 196.569500 L 32.342400 194.666600 L 29.457400 192.597300 L 26.651100 190.360900 L 26.574500 190.296600 L 23.884800 187.921200 L 21.345800 185.439400 L 18.958300 182.857300 L 16.722600 180.181100 L 14.639400 177.416900 L 12.709100 174.571000 L 10.932300 171.649400 L 9.309600 168.658400 L 7.841500 165.604100 L 6.528400 162.492700 L 5.371100 159.330400 L 4.370000 156.123400 L 3.525600 152.877700 L 2.838500 149.599600 L 2.309200 146.295300 L 1.938300 142.971000 L 1.726300 139.632700 L 1.673800 136.286700 L 1.781200 132.939100 L 2.049100 129.596100 L 2.478200 126.264000 L 3.068800 122.948700 L 3.821600 119.656600 L 4.737000 116.393800 L 5.815700 113.166500 L 7.058200 109.980700 L 8.464900 106.842800 L 10.036500 103.758900 L 11.773500 100.735100 L 13.676400 97.777600 L 15.745800 94.892600 L 17.982200 92.086300 L 90.651500 5.482400 L 92.102600 4.069100 L 93.755500 3.005700 L 95.553700 2.297100 L 97.440400 1.948300 Z M 95.603600 154.163400 L 93.228200 156.853200 L 90.746400 159.392100 L 88.164300 161.779600 L 85.488100 164.015300 L 82.723900 166.098500 L 79.877900 168.028800 L 76.956400 169.805600 L 73.965300 171.428300 L 70.911100 172.896400 L 67.799700 174.209500 L 64.637400 175.366800 L 61.430300 176.367900 L 58.184700 177.212300 L 54.906600 177.899400 L 51.602300 178.428700 L 48.277900 178.799600 L 44.939700 179.011600 L 41.593700 179.064100 L 38.246100 178.956700 L 34.903100 178.688800 L 31.570900 178.259700 L 29.165200 177.831100 L 31.889500 179.396100 L 34.973400 180.967700 L 38.111300 182.374400 L 41.297000 183.616900 L 44.524400 184.695600 L 47.787200 185.611000 L 51.079300 186.363800 L 54.394500 186.954400 L 57.726700 187.383500 L 61.069700 187.651400 L 64.417200 187.758900 L 67.763300 187.706300 L 71.101500 187.494300 L 74.425900 187.123400 L 77.730200 186.594100 L 81.008300 185.907000 L 84.253900 185.062600 L 87.461000 184.061500 L 90.623300 182.904200 L 93.734700 181.591200 L 96.788900 180.123000 L 99.779900 178.500300 L 102.701500 176.723500 L 105.547500 174.793300 L 108.311700 172.710000 L 110.987900 170.474300 L 113.570000 168.086800 L 116.051800 165.547900 L 118.427200 162.858200 L 134.535600 143.660900 L 117.461700 128.113900 Z" transform="scale(1.000000,1.000000) translate(176.000000,275.000000)" fill="#001c2c" opacity="1.000000"></path>
        <path d="M 33.546700 69.801105 L 33.546700 16.358723 L 42.999825 16.358723 L 42.999825 2.608723 L 1.642403 2.608723 L 1.642403 16.358723 L 12.438301 16.358723 L 12.438301 69.801105 L 1.642403 69.801105 L 1.642403 83.551105 L 43.805489 83.551105 L 43.805489 69.801105 Z M 80.651192 69.801105 L 57.770332 47.618488 L 84.357246 16.358723 L 92.736153 16.358723 L 92.736153 2.608723 L 49.284004 2.608723 L 49.284004 16.358723 L 58.737129 16.358723 L 34.244942 45.094074 L 60.617012 69.801105 L 50.949043 69.801105 L 50.949043 83.551105 L 90.534004 83.551105 L 90.534004 69.801105 Z M 164.391426 69.801105 L 153.971504 69.801105 L 153.971504 83.551105 L 190.118965 83.551105 L 190.118965 69.801105 L 178.839668 69.801105 L 178.839668 2.071613 L 160.900215 2.071613 L 125.880684 62.120441 L 125.880684 16.358723 L 136.032051 16.358723 L 136.032051 2.608723 L 100.582832 2.608723 L 100.582832 16.358723 L 111.486153 16.358723 L 111.486153 69.801105 L 100.582832 69.801105 L 100.582832 83.551105 L 134.581856 83.551105 L 164.391426 32.955402 Z M 197.911934 43.321613 Q 197.911934 55.621418 203.551582 65.020832 Q 209.191231 74.420246 219.423164 79.657063 Q 229.655098 84.893879 242.975410 84.893879 Q 256.295723 84.893879 266.473946 79.657063 Q 276.652168 74.420246 282.264961 64.967121 Q 287.877754 55.513996 287.877754 43.321613 Q 287.877754 30.968098 282.264961 21.514973 Q 276.652168 12.061848 266.420235 6.851887 Q 256.188301 1.641926 242.975410 1.641926 Q 230.031075 1.641926 219.745430 6.851887 Q 209.459785 12.061848 203.685860 21.514973 Q 197.911934 30.968098 197.911934 43.321613 Z M 265.319160 43.429035 Q 265.319160 50.787434 262.633614 56.829914 Q 259.948067 62.872395 254.872383 66.444172 Q 249.796700 70.015949 242.975410 70.015949 Q 236.154121 70.015949 231.105293 66.444172 Q 226.056465 62.872395 223.344063 56.829914 Q 220.631660 50.787434 220.631660 43.429035 Q 220.631660 35.694660 223.397774 29.544758 Q 226.163887 23.394855 231.212715 19.876789 Q 236.261543 16.358723 242.867989 16.358723 Q 249.689278 16.358723 254.818672 19.876789 Q 259.948067 23.394855 262.633614 29.544758 Q 265.319160 35.694660 265.319160 43.429035 Z M 373.497871 61.475910 Q 373.497871 54.063801 370.033516 49.014973 Q 366.569160 43.966145 359.533028 40.797199 L 372.584785 16.358723 L 383.058418 16.358723 L 383.058418 2.608723 L 358.405098 2.608723 L 340.143379 38.004230 L 330.905098 38.004230 L 330.905098 16.358723 L 341.056465 16.358723 L 341.056465 2.608723 L 298.678535 2.608723 L 298.678535 16.358723 L 309.796700 16.358723 L 309.796700 69.801105 L 298.678535 69.801105 L 298.678535 83.551105 L 344.869942 83.551105 Q 358.297676 83.551105 365.897774 77.884602 Q 373.497871 72.218098 373.497871 61.475910 Z M 351.476387 60.562824 Q 351.476387 65.181965 348.522285 67.491535 Q 345.568184 69.801105 340.465645 69.801105 L 330.905098 69.801105 L 330.905098 51.002277 L 338.639473 51.002277 Q 351.476387 51.002277 351.476387 60.562824 Z M 441.339668 69.801105 L 458.258614 16.358723 L 467.926582 16.358723 L 467.926582 2.608723 L 428.126778 2.608723 L 428.126778 16.358723 L 438.492989 16.358723 L 434.625801 30.108723 L 413.624825 30.108723 L 409.327950 16.358723 L 420.123848 16.358723 L 420.123848 2.608723 L 384.352364 2.608723 L 384.352364 16.358723 L 394.342598 16.358723 L 410.079903 69.801105 L 399.284004 69.801105 L 399.284004 83.551105 L 452.242989 83.551105 L 452.242989 69.801105 Z M 424.474434 66.524738 L 417.223457 42.086262 L 431.295723 42.086262 Z" transform="scale(1.000000,1.000000) translate(326.000000,15.000000)" fill="#455964" opacity="1.000000"></path>
        <path d="M 21.007211 13.886449 Q 19.953035 12.203821 17.652091 10.906372 Q 15.351147 9.608924 11.722346 9.608924 Q 7.100186 9.608924 4.272154 12.426820 Q 1.444122 15.244715 1.444122 20.454782 L 1.444122 29.212558 Q 1.444122 34.341534 4.180928 37.159430 Q 6.917733 39.977326 11.458802 39.977326 Q 15.939054 39.977326 18.371769 37.666246 Q 20.804485 35.355166 20.723395 31.341185 L 20.682849 31.219549 L 16.810777 31.219549 Q 16.810777 33.875264 15.462647 35.345029 Q 14.114517 36.814795 11.539893 36.814795 Q 8.762542 36.814795 7.171141 34.878759 Q 5.579739 32.942723 5.579739 29.253104 L 5.579739 20.454782 Q 5.579739 16.684072 7.231959 14.707491 Q 8.884178 12.730909 11.722346 12.730909 Q 13.810427 12.730909 15.057194 13.379633 Q 16.303961 14.028358 16.871595 14.960899 L 16.871595 21.833321 L 11.438529 21.833321 L 11.438529 24.833670 L 21.007211 24.833670 Z M 33.941150 9.608924 Q 29.846079 9.608924 27.524862 12.609273 Q 25.203646 15.609623 25.203646 20.414236 L 25.203646 21.367050 Q 25.203646 26.191936 27.514726 29.283513 Q 29.825806 32.375089 33.555970 32.375089 Q 37.306407 32.375089 39.262716 29.719374 Q 41.219025 27.063659 41.219025 22.583408 L 41.219025 20.272328 L 29.318990 20.272328 Q 29.318990 16.907071 30.525212 14.818990 Q 31.731433 12.730909 34.224967 12.730909 Q 35.948141 12.730909 37.225316 13.268134 Q 38.502492 13.805359 39.576942 14.839263 L 40.914935 12.284911 Q 39.820213 11.149644 38.026085 10.379284 Q 36.231957 9.608924 33.941150 9.608924 Z M 33.555970 29.212558 Q 31.771979 29.212558 30.717802 27.560339 Q 29.663625 25.908120 29.400081 23.191587 L 37.164498 23.191587 L 37.164498 23.657857 Q 37.164498 26.131118 36.282639 27.671838 Q 35.400780 29.212558 33.555970 29.212558 Z M 48.659080 31.969636 L 48.902352 28.705743 Q 49.834893 30.449189 51.253977 31.412139 Q 52.673061 32.375089 54.477326 32.375089 Q 57.396584 32.375089 59.028531 30.226190 Q 60.660478 28.077291 60.660478 23.536222 L 60.660478 10.034649 L 56.545134 10.034649 L 56.545134 23.515949 Q 56.545134 26.617662 55.683547 27.894837 Q 54.821960 29.172013 53.078514 29.172013 Q 51.659430 29.172013 50.645798 28.432062 Q 49.632167 27.692111 49.023988 26.394663 L 49.023988 10.034649 L 44.888371 10.034649 L 44.888371 31.969636 Z M 73.290327 9.608924 Q 69.195256 9.608924 66.874040 12.609273 Q 64.552823 15.609623 64.552823 20.414236 L 64.552823 21.367050 Q 64.552823 26.191936 66.863903 29.283513 Q 69.174983 32.375089 72.905147 32.375089 Q 76.655584 32.375089 78.611893 29.719374 Q 80.568202 27.063659 80.568202 22.583408 L 80.568202 20.272328 L 68.668167 20.272328 Q 68.668167 16.907071 69.874389 14.818990 Q 71.080610 12.730909 73.574144 12.730909 Q 75.297318 12.730909 76.574494 13.268134 Q 77.851669 13.805359 78.926119 14.839263 L 80.264112 12.284911 Q 79.169390 11.149644 77.375262 10.379284 Q 75.581135 9.608924 73.290327 9.608924 Z M 72.905147 29.212558 Q 71.121156 29.212558 70.066979 27.560339 Q 69.012802 25.908120 68.749258 23.191587 L 76.513676 23.191587 L 76.513676 23.657857 Q 76.513676 26.131118 75.631816 27.671838 Q 74.749957 29.212558 72.905147 29.212558 Z M 93.684594 28.543562 L 91.900603 28.644925 Q 90.603154 28.644925 89.741567 27.864428 Q 88.879981 27.083932 88.413710 25.664848 L 88.413710 10.034649 L 84.278093 10.034649 L 84.278093 31.969636 L 88.069075 31.969636 L 88.352892 28.726015 Q 89.082707 30.449189 90.217974 31.412139 Q 91.353242 32.375089 92.833144 32.375089 Q 93.218324 32.375089 93.552822 32.304135 Q 93.887321 32.233180 94.150865 32.131817 Z M 101.449012 10.034649 L 97.313395 10.034649 L 97.313395 31.969636 L 101.449012 31.969636 Z M 101.449012 37.727063 L 97.313395 37.727063 L 97.313395 41.659954 L 101.449012 41.659954 Z M 114.099134 12.730909 Q 115.619581 12.730909 116.643349 13.906722 Q 117.667117 15.082534 117.667117 17.089525 L 121.377008 17.089525 L 121.417554 16.967889 Q 121.498644 13.866177 119.329473 11.737550 Q 117.160301 9.608924 114.099134 9.608924 Q 110.044608 9.608924 107.834891 12.700500 Q 105.625174 15.792077 105.625174 20.596690 L 105.625174 21.367050 Q 105.625174 26.151391 107.834891 29.263240 Q 110.044608 32.375089 114.099134 32.375089 Q 117.383300 32.375089 119.440972 30.155236 Q 121.498644 27.935383 121.437826 24.387672 L 121.397281 24.286309 L 117.667117 24.286309 Q 117.667117 26.475753 116.683894 27.844156 Q 115.700672 29.212558 114.099134 29.212558 Q 111.788054 29.212558 110.764286 26.982569 Q 109.740518 24.752580 109.740518 21.367050 L 109.740518 20.596690 Q 109.740518 17.150343 110.754150 14.940626 Q 111.767781 12.730909 114.099134 12.730909 Z M 154.543033 18.569427 L 154.664669 18.569427 L 158.496196 39.551600 L 162.814267 39.551600 L 156.752750 10.034649 L 152.961768 10.034649 L 147.812520 30.976277 L 147.690884 30.976277 L 142.521363 10.034649 L 138.730381 10.034649 L 132.668864 39.551600 L 137.007207 39.551600 L 140.859007 18.609972 L 140.980643 18.609972 L 145.947437 39.551600 L 149.535693 39.551600 Z M 173.802033 9.608924 Q 169.706961 9.608924 167.385745 12.609273 Q 165.064529 15.609623 165.064529 20.414236 L 165.064529 21.367050 Q 165.064529 26.191936 167.375609 29.283513 Q 169.686689 32.375089 173.416853 32.375089 Q 177.167290 32.375089 179.123598 29.719374 Q 181.079907 27.063659 181.079907 22.583408 L 181.079907 20.272328 L 169.179873 20.272328 Q 169.179873 16.907071 170.386094 14.818990 Q 171.592316 12.730909 174.085850 12.730909 Q 175.809023 12.730909 177.086199 13.268134 Q 178.363375 13.805359 179.437824 14.839263 L 180.775818 12.284911 Q 179.681096 11.149644 177.886968 10.379284 Q 176.092840 9.608924 173.802033 9.608924 Z M 173.416853 29.212558 Q 171.632861 29.212558 170.578684 27.560339 Q 169.524508 25.908120 169.260963 23.191587 L 177.025381 23.191587 L 177.025381 23.657857 Q 177.025381 26.131118 176.143522 27.671838 Q 175.261662 29.212558 173.416853 29.212558 Z M 201.271448 20.312873 Q 201.271448 15.447442 199.355684 12.528183 Q 197.439921 9.608924 193.932756 9.608924 Q 192.148764 9.608924 190.820907 10.409693 Q 189.493049 11.210462 188.621326 12.751182 L 188.175328 10.034649 L 184.789799 10.034649 L 184.789799 41.659954 L 188.925416 41.659954 L 188.925416 29.597738 Q 189.797139 30.935732 191.033769 31.655410 Q 192.270400 32.375089 193.912483 32.375089 Q 197.439921 32.375089 199.355684 29.202422 Q 201.271448 26.029755 201.271448 20.738599 Z M 197.135831 20.738599 Q 197.135831 24.549853 196.122200 26.860933 Q 195.108568 29.172013 192.878579 29.172013 Q 191.439222 29.172013 190.466136 28.340835 Q 189.493049 27.509657 188.925416 26.090573 L 188.925416 15.710986 Q 189.472777 14.312174 190.455999 13.551951 Q 191.439222 12.791727 192.919124 12.791727 Q 195.128841 12.791727 196.132336 14.808854 Q 197.135831 16.825981 197.135831 20.312873 Z M 227.848868 17.494978 L 219.030273 17.494978 L 216.901647 10.034649 L 212.624122 10.034649 L 221.483261 39.551600 L 225.476970 39.551600 L 234.255019 10.034649 L 229.977494 10.034649 Z M 219.962814 20.758871 L 226.936599 20.758871 L 223.530797 32.760269 L 223.409161 32.760269 Z M 253.655927 20.312873 Q 253.655927 15.447442 251.719891 12.528183 Q 249.783854 9.608924 246.317235 9.608924 Q 244.695424 9.608924 243.448657 10.247512 Q 242.201890 10.886100 241.330167 12.122730 L 241.330167 1.601235 L 237.194551 1.601235 L 237.194551 31.969636 L 240.701716 31.969636 L 241.086896 29.334194 Q 241.978891 30.814096 243.276340 31.594593 Q 244.573788 32.375089 246.296962 32.375089 Q 249.783854 32.375089 251.719891 29.192286 Q 253.655927 26.009483 253.655927 20.738599 Z M 249.520310 20.738599 Q 249.520310 24.468763 248.435725 26.820388 Q 247.351139 29.172013 245.181967 29.172013 Q 243.803428 29.172013 242.850615 28.411789 Q 241.897801 27.651566 241.330167 26.354117 L 241.330167 15.305533 Q 241.897801 14.068903 242.850615 13.399906 Q 243.803428 12.730909 245.202240 12.730909 Q 247.371411 12.730909 248.445861 14.798718 Q 249.520310 16.866526 249.520310 20.312873 Z M 274.090739 20.312873 Q 274.090739 15.447442 272.154703 12.528183 Q 270.218667 9.608924 266.752047 9.608924 Q 265.130236 9.608924 263.883469 10.247512 Q 262.636703 10.886100 261.764980 12.122730 L 261.764980 1.601235 L 257.629363 1.601235 L 257.629363 31.969636 L 261.136528 31.969636 L 261.521708 29.334194 Q 262.413704 30.814096 263.711152 31.594593 Q 265.008601 32.375089 266.731774 32.375089 Q 270.218667 32.375089 272.154703 29.192286 Q 274.090739 26.009483 274.090739 20.738599 Z M 269.955123 20.738599 Q 269.955123 24.468763 268.870537 26.820388 Q 267.785951 29.172013 265.616779 29.172013 Q 264.238241 29.172013 263.285427 28.411789 Q 262.332613 27.651566 261.764980 26.354117 L 261.764980 15.305533 Q 262.332613 14.068903 263.285427 13.399906 Q 264.238241 12.730909 265.637052 12.730909 Q 267.806224 12.730909 268.880673 14.798718 Q 269.955123 16.866526 269.955123 20.312873 Z M 282.463336 10.034649 L 278.327719 10.034649 L 278.327719 41.659954 L 282.463336 41.659954 Z M 291.890109 10.034649 L 287.754493 10.034649 L 287.754493 31.969636 L 291.890109 31.969636 Z M 291.890109 37.727063 L 287.754493 37.727063 L 287.754493 41.659954 L 291.890109 41.659954 Z M 304.540231 12.730909 Q 306.060679 12.730909 307.084447 13.906722 Q 308.108214 15.082534 308.108214 17.089525 L 311.818106 17.089525 L 311.858651 16.967889 Q 311.939742 13.866177 309.770570 11.737550 Q 307.601399 9.608924 304.540231 9.608924 Q 300.485705 9.608924 298.275988 12.700500 Q 296.066272 15.792077 296.066272 20.596690 L 296.066272 21.367050 Q 296.066272 26.151391 298.275988 29.263240 Q 300.485705 32.375089 304.540231 32.375089 Q 307.824398 32.375089 309.882070 30.155236 Q 311.939742 27.935383 311.878924 24.387672 L 311.838379 24.286309 L 308.108214 24.286309 Q 308.108214 26.475753 307.124992 27.844156 Q 306.141769 29.212558 304.540231 29.212558 Q 302.229151 29.212558 301.205384 26.982569 Q 300.181616 24.752580 300.181616 21.367050 L 300.181616 20.596690 Q 300.181616 17.150343 301.195247 14.940626 Q 302.208879 12.730909 304.540231 12.730909 Z M 327.103670 10.034649 Q 326.840126 11.028008 326.688081 11.808505 Q 326.536036 12.589001 326.495491 13.359361 Q 325.623768 11.737550 324.194547 10.673237 Q 322.765327 9.608924 320.940790 9.608924 Q 318.001258 9.608924 316.430130 11.352370 Q 314.859001 13.095817 314.859001 16.116439 Q 314.859001 19.218151 317.038308 21.002143 Q 319.217616 22.786134 323.109962 22.786134 L 326.475218 22.786134 L 326.475218 25.036396 Q 326.475218 27.043387 325.583223 28.168518 Q 324.691227 29.293649 323.028871 29.293649 Q 321.528696 29.293649 320.646837 28.320563 Q 319.764977 27.347476 319.764977 25.827029 L 315.832087 25.806756 L 315.791542 25.928392 Q 315.669906 28.482744 317.778260 30.428916 Q 319.886613 32.375089 323.292415 32.375089 Q 326.556309 32.375089 328.583572 30.459325 Q 330.610835 28.543562 330.610835 24.995851 L 330.610835 14.818990 Q 330.610835 13.562087 330.773016 12.376138 Q 330.935197 11.190189 331.279832 10.034649 Z M 321.792241 12.771454 Q 323.474869 12.771454 324.772317 13.815495 Q 326.069766 14.859536 326.475218 16.339438 L 326.475218 20.231783 L 323.049144 20.231783 Q 321.143516 20.231783 320.069067 19.025561 Q 318.994617 17.819340 318.994617 16.116439 Q 318.994617 14.595991 319.724432 13.683723 Q 320.454247 12.771454 321.792241 12.771454 Z M 340.605242 37.422974 L 340.605242 31.969636 L 344.031317 31.969636 L 344.031317 29.030105 L 340.605242 29.030105 L 340.605242 15.974530 Q 340.605242 14.271629 341.122194 13.551951 Q 341.639146 12.832272 342.490597 12.832272 Q 342.835232 12.832272 343.139321 12.893090 Q 343.443411 12.953908 343.848863 13.075544 L 344.274589 10.237376 Q 343.686682 9.953559 342.967004 9.781241 Q 342.247325 9.608924 341.476965 9.608924 Q 339.105068 9.608924 337.787347 11.139508 Q 336.469625 12.670091 336.469625 15.974530 L 336.469625 29.030105 L 333.570639 29.030105 L 333.570639 31.969636 L 336.469625 31.969636 L 336.469625 37.422974 Z M 352.160642 10.034649 L 348.025025 10.034649 L 348.025025 31.969636 L 352.160642 31.969636 Z M 352.160642 37.727063 L 348.025025 37.727063 L 348.025025 41.659954 L 352.160642 41.659954 Z M 356.357077 21.245414 Q 356.357077 26.131118 358.668157 29.253104 Q 360.979237 32.375089 365.013490 32.375089 Q 369.047744 32.375089 371.368960 29.253104 Q 373.690176 26.131118 373.690176 21.245414 L 373.690176 20.698053 Q 373.690176 15.792077 371.379096 12.700500 Q 369.068016 9.608924 365.054035 9.608924 Q 360.979237 9.608924 358.668157 12.700500 Q 356.357077 15.792077 356.357077 20.698053 Z M 360.492693 20.698053 Q 360.492693 17.190888 361.617824 14.960899 Q 362.742956 12.730909 365.054035 12.730909 Q 367.304298 12.730909 368.429429 14.971035 Q 369.554560 17.211161 369.554560 20.698053 L 369.554560 21.245414 Q 369.554560 24.691762 368.419292 26.952160 Q 367.284025 29.212558 365.013490 29.212558 Q 362.742956 29.212558 361.617824 26.952160 Q 360.492693 24.691762 360.492693 21.245414 Z M 381.353231 31.969636 L 381.596503 28.705743 Q 382.529044 30.449189 383.948128 31.412139 Q 385.367212 32.375089 387.171476 32.375089 Q 390.090735 32.375089 391.722682 30.226190 Q 393.354629 28.077291 393.354629 23.536222 L 393.354629 10.034649 L 389.239285 10.034649 L 389.239285 23.515949 Q 389.239285 26.617662 388.377698 27.894837 Q 387.516111 29.172013 385.772665 29.172013 Q 384.353580 29.172013 383.339949 28.432062 Q 382.326317 27.692111 381.718138 26.394663 L 381.718138 10.034649 L 377.582522 10.034649 L 377.582522 31.969636 Z M 422.060674 23.151042 L 411.741905 23.151042 L 411.741905 10.034649 L 407.626561 10.034649 L 407.626561 39.551600 L 423.844666 39.551600 L 423.844666 36.389070 L 411.741905 36.389070 L 411.741905 26.293300 L 422.060674 26.293300 Z M 426.378745 21.245414 Q 426.378745 26.131118 428.689825 29.253104 Q 431.000905 32.375089 435.035158 32.375089 Q 439.069412 32.375089 441.390628 29.253104 Q 443.711845 26.131118 443.711845 21.245414 L 443.711845 20.698053 Q 443.711845 15.792077 441.400765 12.700500 Q 439.089685 9.608924 435.075704 9.608924 Q 431.000905 9.608924 428.689825 12.700500 Q 426.378745 15.792077 426.378745 20.698053 Z M 430.514362 20.698053 Q 430.514362 17.190888 431.639493 14.960899 Q 432.764624 12.730909 435.075704 12.730909 Q 437.325966 12.730909 438.451097 14.971035 Q 439.576228 17.211161 439.576228 20.698053 L 439.576228 21.245414 Q 439.576228 24.691762 438.440960 26.952160 Q 437.305693 29.212558 435.035158 29.212558 Q 432.764624 29.212558 431.639493 26.952160 Q 430.514362 24.691762 430.514362 21.245414 Z M 457.051236 28.543562 L 455.267244 28.644925 Q 453.969796 28.644925 453.108209 27.864428 Q 452.246622 27.083932 451.780352 25.664848 L 451.780352 10.034649 L 447.644735 10.034649 L 447.644735 31.969636 L 451.435717 31.969636 L 451.719534 28.726015 Q 452.449349 30.449189 453.584616 31.412139 Q 454.719883 32.375089 456.199785 32.375089 Q 456.584965 32.375089 456.919464 32.304135 Q 457.253962 32.233180 457.517506 32.131817 Z" transform="scale(1.000000,1.000000) translate(328.000000,106.000000)" fill="#808080" opacity="1.000000"></path>
    </g>
</svg>