<?xml version="1.0" encoding="UTF-8" standalone="yes"?>
<!DOCTYPE svg PUBLIC "-//W3C//DTD SVG 1.1//EN" "http://www.w3.org/Graphics/SVG/1.1/DTD/svg11.dtd">

<svg width="660" height="180" viewBox="0 0 660 180" xmlns="http://www.w3.org/2000/svg" xmlns:xlink="http://www.w3.org/1999/xlink" version="1.1" baseProfile="full">
    <g transform="scale(1,-1) translate(0,-180)">
        <path d="M 39.932993 16.858269 Q 36.823650 16.858269 35.551646 17.423605 Q 34.279642 17.988940 32.018302 20.250280 L 18.827150 33.441431 Q 16.471587 35.796994 14.116025 35.985439 Q 2.338211 37.869889 1.301763 51.720599 L 1.301763 59.258400 Q 1.301763 61.425517 3.139102 62.838855 Q 4.976441 64.252193 7.897339 64.252193 Q 10.818237 64.252193 12.655576 62.838855 Q 14.492915 61.425517 14.492915 59.258400 L 14.492915 51.720599 Q 14.492915 48.893923 17.319590 48.893923 L 47.470794 48.893923 Q 49.637911 48.893923 51.051249 47.056584 Q 52.464587 45.219245 52.464587 42.298348 Q 52.464587 39.377450 51.051249 37.540111 Q 49.637911 35.702772 47.470794 35.702772 L 36.164092 35.702772 Q 35.504535 35.702772 35.504535 35.420104 L 39.273435 31.556981 Q 41.346330 30.049421 43.701893 30.049421 L 47.470794 30.049421 Q 49.637911 30.049421 51.051249 28.212082 Q 52.464587 26.374743 52.464587 23.453845 Q 52.464587 20.532947 51.051249 18.695608 Q 49.637911 16.858269 47.470794 16.858269 Z M 7.897339 16.858269 Q 5.070664 16.858269 3.186213 18.742720 Q 1.301763 20.627170 1.301763 23.453845 Q 1.301763 26.186298 3.233325 28.117860 Q 5.164886 30.049421 7.897339 30.049421 Q 10.535569 30.049421 12.514242 28.070748 Q 14.492915 26.092076 14.492915 23.453845 Q 14.492915 20.721392 12.561353 18.789831 Q 10.629792 16.858269 7.897339 16.858269 Z M 95.813149 21.569395 L 95.813149 32.876096 Q 95.813149 35.702772 92.986473 35.702772 L 78.853097 35.702772 Q 76.026421 35.702772 76.026421 32.876096 L 76.026421 21.569395 Q 76.026421 19.402277 74.189082 17.988940 Q 72.351743 16.575602 69.430846 16.575602 Q 66.509948 16.575602 64.672609 17.988940 Q 62.835270 19.402277 62.835270 21.569395 L 62.835270 32.876096 Q 62.835270 40.037007 66.933949 44.135686 Q 71.032628 48.234366 78.853097 48.893923 L 92.986473 48.893923 Q 100.147384 48.893923 104.246064 44.795244 Q 108.344743 40.696565 109.004300 32.876096 L 109.004300 21.569395 Q 109.004300 19.402277 107.166961 17.988940 Q 105.329622 16.575602 102.408725 16.575602 Q 99.487827 16.575602 97.650488 17.988940 Q 95.813149 19.402277 95.813149 21.569395 Z M 192.208985 16.858269 L 173.364482 16.858269 Q 166.297794 16.858269 162.152004 20.956949 Q 158.006213 25.055628 157.346656 32.876096 Q 157.346656 35.702772 154.519980 35.702772 L 135.675478 35.702772 Q 132.848803 35.702772 132.848803 32.876096 Q 132.848803 30.049421 135.675478 30.049421 L 151.693305 30.049421 Q 153.860423 30.049421 155.273760 28.212082 Q 156.687098 26.374743 156.687098 23.453845 Q 156.687098 20.532947 155.273760 18.695608 Q 153.860423 16.858269 151.693305 16.858269 L 135.675478 16.858269 Q 127.855010 17.517827 123.756330 21.616506 Q 119.657651 25.715186 119.657651 32.876096 Q 119.657651 40.037007 123.756330 44.135686 Q 127.855010 48.234366 135.675478 48.893923 L 154.519980 48.893923 Q 161.680891 48.893923 165.779570 44.795244 Q 169.878250 40.696565 170.537807 32.876096 Q 170.537807 30.049421 173.364482 30.049421 L 192.208985 30.049421 Q 195.035660 30.049421 195.035660 32.876096 Q 195.035660 35.702772 192.208985 35.702772 L 176.191158 35.702772 Q 174.024040 35.702772 172.657814 37.540111 Q 171.291587 39.377450 171.291587 42.298348 Q 171.291587 45.219245 172.657814 47.056584 Q 174.024040 48.893923 176.191158 48.893923 L 192.208985 48.893923 Q 200.029453 48.234366 204.128132 44.135686 Q 208.226812 40.037007 208.226812 32.876096 Q 208.226812 25.715186 204.128132 21.616506 Q 200.029453 17.517827 192.208985 16.858269 Z M 257.982505 16.858269 Q 255.155829 16.858269 253.271379 18.742720 Q 251.386929 20.627170 251.386929 23.453845 Q 251.386929 26.186298 253.318490 28.117860 Q 255.250052 30.049421 257.982505 30.049421 Q 260.714957 30.049421 262.646519 28.070748 Q 264.578080 26.092076 264.578080 23.453845 Q 264.578080 20.721392 262.646519 18.789831 Q 260.714957 16.858269 257.982505 16.858269 Z M 234.897989 35.702772 Q 232.071314 35.702772 232.071314 32.876096 L 232.071314 21.569395 Q 232.071314 19.402277 230.233975 17.988940 Q 228.396636 16.575602 225.475738 16.575602 Q 222.554840 16.575602 220.717501 17.988940 Q 218.880162 19.402277 218.880162 21.569395 L 218.880162 32.876096 Q 218.880162 40.037007 222.978842 44.135686 Q 227.077521 48.234366 234.897989 48.893923 L 260.338067 48.893923 Q 262.505185 48.893923 263.918523 47.056584 Q 265.331860 45.219245 265.331860 42.298348 Q 265.331860 39.377450 263.918523 37.540111 Q 262.505185 35.702772 260.338067 35.702772 Z M 313.391548 21.569395 L 313.391548 32.876096 Q 313.391548 35.702772 310.564873 35.702772 L 291.720370 35.702772 Q 288.893695 35.702772 288.893695 32.876096 Q 288.893695 30.049421 291.720370 30.049421 L 307.738197 30.049421 Q 309.905315 30.049421 311.318653 28.212082 Q 312.731990 26.374743 312.731990 23.453845 Q 312.731990 20.532947 311.318653 18.695608 Q 309.905315 16.858269 307.738197 16.858269 L 291.720370 16.858269 Q 283.899902 17.517827 279.801223 21.616506 Q 275.702544 25.715186 275.702544 32.876096 Q 275.702544 40.037007 279.801223 44.135686 Q 283.899902 48.234366 291.720370 48.893923 L 310.564873 48.893923 Q 317.725784 48.893923 321.824463 44.795244 Q 325.923142 40.696565 326.582700 32.876096 L 326.582700 21.569395 Q 326.582700 19.402277 324.745361 17.988940 Q 322.908022 16.575602 319.987124 16.575602 Q 317.066226 16.575602 315.228887 17.988940 Q 313.391548 19.402277 313.391548 21.569395 Z M 417.614059 21.569395 L 417.614059 32.876096 Q 417.614059 35.702772 414.787384 35.702772 L 395.942882 35.702772 Q 393.116206 35.702772 393.116206 32.876096 Q 393.116206 30.049421 395.942882 30.049421 L 411.960709 30.049421 Q 414.127826 30.049421 415.541164 28.212082 Q 416.954502 26.374743 416.954502 23.453845 Q 416.954502 20.532947 415.541164 18.695608 Q 414.127826 16.858269 411.960709 16.858269 L 395.942882 16.858269 Q 388.122413 17.517827 384.023734 21.616506 Q 379.925055 25.715186 379.925055 32.876096 Q 379.925055 40.037007 384.023734 44.135686 Q 388.122413 48.234366 395.942882 48.893923 L 414.787384 48.893923 Q 421.948295 48.893923 426.046974 44.795244 Q 430.145653 40.696565 430.805211 32.876096 L 430.805211 21.569395 Q 430.805211 19.402277 428.967872 17.988940 Q 427.130533 16.575602 424.209635 16.575602 Q 421.288737 16.575602 419.451398 17.988940 Q 417.614059 19.402277 417.614059 21.569395 Z M 476.320891 16.858269 L 457.476389 16.858269 Q 454.649713 16.858269 454.649713 14.031594 L 454.649713 6.493793 Q 454.649713 4.326675 452.812374 2.913338 Q 450.975035 1.500000 448.054137 1.500000 Q 445.133240 1.500000 443.295901 2.913338 Q 441.458562 4.326675 441.458562 6.493793 L 441.458562 14.031594 Q 442.118119 21.852063 446.216798 25.950742 Q 450.315478 30.049421 457.476389 30.049421 L 476.320891 30.049421 Q 479.147566 30.049421 479.147566 32.876096 Q 479.147566 35.702772 476.320891 35.702772 L 446.169687 35.702772 Q 444.002569 35.702772 442.589232 37.540111 Q 441.175894 39.377450 441.175894 42.298348 Q 441.175894 45.219245 442.589232 47.056584 Q 444.002569 48.893923 446.169687 48.893923 L 476.320891 48.893923 Q 484.141359 48.234366 488.240038 44.135686 Q 492.338718 40.037007 492.338718 32.876096 Q 492.338718 25.715186 488.240038 21.616506 Q 484.141359 17.517827 476.320891 16.858269 Z M 537.854398 16.858269 L 519.009895 16.858269 Q 516.183220 16.858269 516.183220 14.031594 L 516.183220 6.493793 Q 516.183220 4.326675 514.345881 2.913338 Q 512.508542 1.500000 509.587644 1.500000 Q 506.666746 1.500000 504.829407 2.913338 Q 502.992068 4.326675 502.992068 6.493793 L 502.992068 14.031594 Q 503.651626 21.852063 507.750305 25.950742 Q 511.848984 30.049421 519.009895 30.049421 L 537.854398 30.049421 Q 540.681073 30.049421 540.681073 32.876096 Q 540.681073 35.702772 537.854398 35.702772 L 507.703194 35.702772 Q 505.536076 35.702772 504.122739 37.540111 Q 502.709401 39.377450 502.709401 42.298348 Q 502.709401 45.219245 504.122739 47.056584 Q 505.536076 48.893923 507.703194 48.893923 L 537.854398 48.893923 Q 545.674866 48.234366 549.773545 44.135686 Q 553.872224 40.037007 553.872224 32.876096 Q 553.872224 25.715186 549.773545 21.616506 Q 545.674866 17.517827 537.854398 16.858269 Z" transform="scale(1.000000,1.000000) translate(88.000000,6.000000)" fill="#011520" opacity="1.000000"></path>
        <path d="M 79.112362 1.596203 L 78.369203 3.060897 L 76.621390 5.880602 L 74.542315 8.540164 L 72.152963 11.023320 L 69.474065 13.313888 L 66.526529 15.395857 L 63.331278 17.252668 L 59.909038 18.868436 L 56.280852 20.226722 L 52.467442 21.311400 L 48.489662 22.106277 L 44.368498 22.595031 L 40.124733 22.761606 L 35.880966 22.595031 L 31.759800 22.106277 L 27.782084 21.311400 L 23.968676 20.226722 L 20.340423 18.868436 L 16.918246 17.252668 L 13.722933 15.395857 L 10.775462 13.313888 L 8.096562 11.023320 L 5.707149 8.540164 L 3.628138 5.880602 L 1.880320 3.060897 L 1.137168 1.596203 L 1.095273 1.500000 L 79.154256 1.500000 Z" transform="scale(1.000000,1.000000) translate(33.000000,21.000000)" fill="#011520" opacity="1.000000"></path>
        <path d="M 36.414611 86.105186 L 27.706395 96.483225 L 1.412890 74.420321 L 3.120831 73.382708 L 4.797017 72.129315 L 6.343171 70.724031 L 7.748455 69.177876 L 9.001848 67.501690 L 10.092446 65.706557 L 10.671608 64.504258 Z M 41.877243 9.842530 L 10.940808 46.711140 L 10.092446 44.950028 L 9.001848 43.154836 L 7.748455 41.478650 L 6.343171 39.932494 L 4.797017 38.527209 L 3.120831 37.273816 L 1.831717 36.490660 L 31.499200 1.134310 Z" transform="scale(1.000000,1.000000) translate(41.000000,27.000000)" fill="#011520" opacity="1.000000"></path>
        <path d="M 16.060491 1.554814 L 17.405674 1.760069 L 18.703984 2.093908 L 19.948682 2.549463 L 21.132963 3.119994 L 22.249958 3.798571 L 23.292865 4.578452 L 24.254945 5.452833 L 25.129325 6.414911 L 25.909206 7.457882 L 26.587846 8.574877 L 27.158313 9.759094 L 27.613868 11.003793 L 27.947709 12.302103 L 28.153025 13.647286 L 28.222956 15.032474 L 28.153025 16.417600 L 27.947709 17.762782 L 27.613868 19.061093 L 27.158313 20.305791 L 26.587846 21.490008 L 25.909206 22.607003 L 25.129325 23.649975 L 24.254945 24.612052 L 23.292865 25.486432 L 22.249958 26.266316 L 21.132963 26.944891 L 19.948682 27.515421 L 18.703984 27.970978 L 17.405674 28.304816 L 16.060491 28.510070 L 14.675365 28.580065 L 13.290177 28.510070 L 11.945058 28.304816 L 10.646684 27.970978 L 9.401986 27.515421 L 8.217769 26.944891 L 7.100774 26.266316 L 6.057803 25.486432 L 5.095788 24.612052 L 4.221343 23.649975 L 3.441463 22.607003 L 2.762886 21.490008 L 2.192418 20.305791 L 1.736863 19.061093 L 1.403024 17.762782 L 1.197706 16.417600 L 1.127776 15.032474 L 1.197706 13.647286 L 1.403024 12.302103 L 1.736863 11.003793 L 2.192418 9.759094 L 2.762886 8.574877 L 3.441463 7.457882 L 4.221343 6.414911 L 5.095788 5.452833 L 6.057803 4.578452 L 7.100774 3.798571 L 8.217769 3.119994 L 9.401986 2.549463 L 10.646684 2.093908 L 11.945058 1.760069 L 13.290177 1.554814 L 14.675365 1.484884 Z" transform="scale(1.000000,1.000000) translate(17.000000,67.000000)" fill="#011520" opacity="1.000000"></path>
        <path d="M 20.452839 1.990781 L 22.181755 2.158361 L 23.892719 2.492389 L 25.572937 2.993368 L 27.209561 3.661990 L 28.789671 4.498823 L 30.300545 5.504435 L 31.729329 6.679517 L 33.032491 7.992507 L 34.174624 9.403021 L 35.155162 10.898271 L 35.973411 12.465403 L 36.628927 14.091569 L 37.120961 15.763912 L 37.449065 17.469646 L 37.612490 19.195981 L 37.610726 20.930002 L 37.443144 22.658919 L 37.109118 24.369883 L 36.608139 26.050101 L 35.939515 27.686662 L 35.102681 29.266835 L 34.097071 30.777709 L 32.921989 32.206493 L 31.608999 33.509593 L 30.198486 34.651726 L 28.703235 35.632263 L 27.136102 36.450572 L 25.510000 37.106029 L 23.837592 37.598125 L 22.131861 37.926167 L 21.331314 38.001956 L 20.948965 34.154527 L 21.581425 34.094676 L 22.921758 33.836880 L 24.235882 33.450246 L 25.513718 32.935155 L 26.745184 32.292112 L 27.920078 31.521681 L 29.028506 30.624176 L 30.060261 29.600169 L 30.983594 28.477442 L 31.773809 27.290199 L 32.431341 26.048527 L 32.956764 24.762500 L 33.350453 23.442266 L 33.612912 22.097777 L 33.744583 20.739237 L 33.745969 19.376603 L 33.617512 18.020143 L 33.359778 16.679748 L 32.973082 15.365624 L 32.457991 14.087789 L 31.815010 12.856385 L 31.044517 11.681427 L 30.147012 10.573000 L 29.123070 9.541307 L 28.000340 8.617974 L 26.813100 7.827698 L 25.571426 7.170164 L 24.285399 6.644741 L 22.965101 6.251052 L 21.620613 5.988655 L 20.262073 5.856922 L 18.899502 5.855536 L 17.542979 5.983993 L 16.202584 6.241791 L 14.888460 6.628424 L 13.610624 7.143514 L 12.379220 7.786496 L 11.204263 8.556990 L 10.095899 9.454492 L 9.064143 10.478500 L 8.140810 11.601229 L 7.350597 12.788469 L 6.693000 14.030080 L 6.167639 15.316106 L 5.773951 16.636404 L 5.511491 17.980894 L 5.379821 19.339432 L 5.378875 20.260371 L 1.512545 20.238447 L 1.513679 19.148668 L 1.681260 17.419749 L 2.015225 15.708787 L 2.516267 14.028568 L 3.184889 12.392009 L 4.021660 10.811834 L 5.027334 9.300960 L 6.202353 7.872176 L 7.515343 6.569014 L 8.925920 5.426881 L 10.421169 4.446407 L 11.988239 3.628096 L 13.614405 2.972578 L 15.286812 2.480545 L 16.992544 2.152502 L 18.718817 1.989016 Z" transform="scale(1.000000,1.000000) translate(114.000000,82.000000)" fill="#011520" opacity="1.000000"></path>
        <path d="M 16.633432 14.772653 L 15.663290 15.837862 L 15.212271 16.168676 L 14.687604 16.296442 L 14.153361 16.218196 L 13.673487 15.930851 L 1.711930 5.037149 L 1.381116 4.586193 L 1.253351 4.061526 L 1.331660 3.527220 L 1.619005 3.047347 L 2.589147 1.982074 Z" transform="scale(1.000000,1.000000) translate(110.000000,109.000000)" fill="#011520" opacity="1.000000"></path>
        <path d="M 28.028133 1.450564 L 28.977673 1.640573 L 29.834668 2.006101 L 30.591049 2.553511 L 31.206626 3.255586 L 31.650400 4.074780 L 31.928105 5.002459 L 32.045411 6.029932 L 32.008052 7.148628 L 31.821635 8.349856 L 31.491954 9.624919 L 31.024679 10.965189 L 30.425421 12.361969 L 29.699972 13.806629 L 27.893185 16.805003 L 25.649870 19.891012 L 23.015574 22.995416 L 20.170354 25.907669 L 17.306925 28.429004 L 14.490118 30.507449 L 13.119356 31.364442 L 11.784506 32.091340 L 10.493629 32.681526 L 9.254917 33.128703 L 8.076307 33.426254 L 6.965989 33.567817 L 5.932027 33.546836 L 4.982487 33.356829 L 4.125493 32.991363 L 3.369048 32.443890 L 2.753472 31.741813 L 2.309698 30.922622 L 2.031992 29.994942 L 1.914686 28.967469 L 1.952045 27.848772 L 2.138463 26.647545 L 2.468143 25.372482 L 2.935480 24.032276 L 3.534676 22.635432 L 4.260125 21.190772 L 6.066911 18.192396 L 8.310227 15.106389 L 10.944523 12.001984 L 13.789743 9.089732 L 16.653171 6.568458 L 19.470042 4.489952 L 20.840740 3.632958 L 22.175592 2.906123 L 23.466469 2.315873 L 24.705242 1.868697 L 25.883790 1.571146 L 26.994109 1.429585 Z M 26.450794 5.384682 L 25.076882 5.842128 L 23.361193 6.672346 L 21.069242 8.108627 L 18.666914 9.943638 L 16.223005 12.126977 L 13.806312 14.608308 L 11.561107 17.245880 L 9.615153 19.882633 L 8.012172 22.445612 L 6.795888 24.861486 L 6.129156 26.647168 L 5.801869 28.057682 L 5.766400 29.050252 L 5.843323 29.376467 L 5.975372 29.582101 L 6.192471 29.694430 L 6.524357 29.740546 L 7.509366 29.612719 L 8.883215 29.155335 L 10.598903 28.325055 L 12.890918 26.888773 L 15.293183 25.053825 L 17.737092 22.870486 L 20.153784 20.389093 L 22.398991 17.751583 L 24.344944 15.114768 L 25.947924 12.551851 L 27.164272 10.135915 L 27.830942 8.350297 L 28.158227 6.939719 L 28.193697 5.947149 L 28.116773 5.620933 L 27.984725 5.415301 L 27.767688 5.302971 L 27.435741 5.256855 Z" transform="scale(1.000000,1.000000) translate(115.000000,86.000000)" fill="#011520" opacity="1.000000"></path>
        <path d="M 77.475751 60.848670 L 76.456783 61.920932 L 74.937785 63.373912 L 73.350804 64.753116 L 71.698559 66.055771 L 69.983753 67.279171 L 68.209158 68.420552 L 66.377552 69.477194 L 64.491700 70.446203 L 62.554312 71.324993 L 60.568104 72.110670 L 58.535902 72.800525 L 56.460355 73.391845 L 54.344298 73.881862 L 52.190443 74.267741 L 50.001562 74.546771 L 47.780420 74.716240 L 45.529674 74.773313 L 43.278924 74.716240 L 41.057784 74.546771 L 38.868898 74.267741 L 36.715045 73.881862 L 34.598989 73.391845 L 32.523506 72.800525 L 30.491242 72.110670 L 28.505094 71.324993 L 26.567644 70.446203 L 24.681794 69.477194 L 22.850184 68.420552 L 21.075591 67.279171 L 19.360848 66.055771 L 17.708539 64.753116 L 16.121560 63.373912 L 14.602560 61.920932 L 13.154371 60.396955 L 11.779703 58.804812 L 10.481267 57.147083 L 9.261833 55.426672 L 8.124173 53.646280 L 7.071059 51.808691 L 6.105138 49.916662 L 5.229308 47.972915 L 4.446151 45.980213 L 3.758502 43.941335 L 3.169134 41.858982 L 2.680756 39.735999 L 2.296138 37.575088 L 2.017992 35.379084 L 1.849088 33.150573 L 1.792199 30.892517 L 1.849088 28.634398 L 2.017992 26.405949 L 2.296138 24.209883 L 2.680756 22.048972 L 3.169134 19.925986 L 3.758502 17.843700 L 4.446151 15.804757 L 5.229308 13.812058 L 6.105138 11.868309 L 7.071059 9.976282 L 8.124173 8.138688 L 9.261833 6.358299 L 10.481267 4.637886 L 11.779703 2.980221 L 12.723385 1.887229 Z M 55.020670 50.566762 L 52.730045 52.648610 L 50.246821 54.505541 L 47.587327 56.121251 L 44.767683 57.479537 L 41.804084 58.564215 L 38.712847 59.359026 L 35.510100 59.847846 L 32.212095 60.014354 L 28.914093 59.847846 L 25.711344 59.359026 L 24.007563 58.920924 L 24.227056 59.120443 L 26.710278 60.977379 L 29.369772 62.593022 L 32.189415 63.951370 L 35.153015 65.036049 L 38.244252 65.830859 L 41.447001 66.319679 L 44.745001 66.486188 L 48.043006 66.319679 L 51.245755 65.830859 L 54.336992 65.036049 L 57.300529 63.951370 L 60.120168 62.593022 L 62.779729 60.977379 L 65.262886 59.120443 L 65.663819 58.756049 L 55.767602 49.744924 Z" transform="scale(1.000000,1.000000) translate(83.000000,73.000000)" fill="#011520" opacity="1.000000"></path>
        <path d="M 32.766366 1.469987 L 33.377218 1.594350 L 33.961859 1.839610 L 34.501961 2.207217 L 62.398065 25.614799 L 59.804089 26.564214 L 56.712852 27.359026 L 53.510103 27.847847 L 50.212103 28.014355 L 46.914098 27.847847 L 43.711349 27.359026 L 42.007568 26.920922 L 42.227059 27.120444 L 44.710283 28.977380 L 47.369777 30.593023 L 50.189421 31.951373 L 53.153020 33.036049 L 56.244257 33.830862 L 59.447006 34.319680 L 61.986798 34.447887 L 40.992446 59.468025 L 39.425688 61.154545 L 37.729531 62.645823 L 35.919910 63.940418 L 34.012763 65.037002 L 32.023969 65.934066 L 29.969465 66.630342 L 27.865129 67.124330 L 25.726962 67.414698 L 23.570900 67.500000 L 21.412762 67.378913 L 19.268609 67.050050 L 17.154191 66.511904 L 15.085639 65.763208 L 13.078700 64.802515 L 11.149379 63.628440 L 9.313549 62.239536 L 9.288852 62.218810 L 7.602271 60.652055 L 6.110990 58.955960 L 4.816396 57.146340 L 3.719876 55.239127 L 2.822751 53.250333 L 2.126534 51.195829 L 1.632549 49.091558 L 1.342180 46.953387 L 1.256815 44.797267 L 1.377901 42.639187 L 1.706826 40.494973 L 2.244912 38.380618 L 2.993608 36.312004 L 3.954363 34.305066 L 5.128437 32.375743 L 6.517279 30.539913 L 29.957621 2.604812 L 30.425714 2.148942 L 30.958887 1.805968 L 31.538866 1.577403 L 32.147449 1.464884 Z M 31.554994 50.563625 L 29.988239 52.250202 L 28.292082 53.741485 L 26.482462 55.036080 L 24.575314 56.132601 L 22.586520 57.029723 L 20.532016 57.725942 L 18.427680 58.219925 L 16.289574 58.510293 L 14.133452 58.595662 L 11.975312 58.474575 L 10.174322 58.198319 L 11.003218 58.702699 L 13.010156 59.663455 L 15.078771 60.412151 L 17.193189 60.950234 L 19.337341 61.279160 L 21.495480 61.400246 L 23.651542 61.314882 L 25.789709 61.024514 L 27.894045 60.530526 L 29.948549 59.834308 L 31.937343 58.937186 L 33.844491 57.840664 L 35.654111 56.546070 L 37.350268 55.054792 L 38.917023 53.368209 L 44.112979 47.175905 L 38.605550 42.161080 Z" transform="scale(1.000000,1.000000) translate(65.000000,105.000000)" fill="#011520" opacity="1.000000"></path>
    </g>
</svg>