<?xml version="1.0" encoding="UTF-8" standalone="yes"?>
<!DOCTYPE svg PUBLIC "-//W3C//DTD SVG 1.1//EN" "http://www.w3.org/Graphics/SVG/1.1/DTD/svg11.dtd">

<svg width="800" height="500" viewBox="0 0 800 500" xmlns="http://www.w3.org/2000/svg" xmlns:xlink="http://www.w3.org/1999/xlink" version="1.1" baseProfile="full">
    <g transform="scale(1,-1) translate(0,-500)">
        <path d="M 1.000000 1.000000 L 801.000000 1.000000 L 801.000000 501.000000 L 1.000000 501.000000 Z" transform="scale(1.000000,1.000000) translate(-1.000000,-1.000000)" fill="#ffffff" opacity="1.000000"></path>
        <path d="M 250.834300 135.940100 L 248.530300 140.481200 L 245.953400 144.910700 L 243.111800 149.222600 L 240.013400 153.410300 L 236.666400 157.467700 L 233.078800 161.388300 L 229.258800 165.165900 L 225.214500 168.794300 L 220.953800 172.267400 L 216.484900 175.578500 L 211.816000 178.721600 L 206.954900 181.690200 L 201.910000 184.478200 L 196.689200 187.079400 L 191.300600 189.487200 L 185.752300 191.695600 L 180.052400 193.698100 L 174.209000 195.488700 L 168.230100 197.060900 L 162.123900 198.408400 L 155.898400 199.525100 L 149.561800 200.404400 L 143.122000 201.040400 L 136.587300 201.426600 L 129.965600 201.556700 L 123.343900 201.426600 L 116.809100 201.040400 L 110.369400 200.404400 L 104.032700 199.525100 L 97.807200 198.408400 L 91.701000 197.060900 L 85.722200 195.488700 L 79.878800 193.698100 L 74.178900 191.695600 L 68.630600 189.487200 L 63.242000 187.079400 L 58.021200 184.478200 L 52.976200 181.690200 L 48.115200 178.721600 L 43.446200 175.578500 L 38.977400 172.267400 L 34.716700 168.794300 L 30.672300 165.165900 L 26.852300 161.388300 L 23.264800 157.467700 L 19.917800 153.410300 L 16.819400 149.222600 L 13.977700 144.910700 L 11.400900 140.481200 L 9.096900 135.940100 L 8.967100 135.641900 L 250.964100 135.641900 Z" transform="scale(1.000000,1.000000) translate(69.000000,-119.000000)" fill="#001c2c" opacity="1.000000"></path>
        <path d="M 167.265100 264.534500 L 140.268000 296.708300 L 58.759400 228.314500 L 61.309500 226.848200 L 64.048200 225.092500 L 66.694700 223.210600 L 69.244600 221.206700 L 71.693800 219.085200 L 74.038000 216.850200 L 76.273000 214.505900 L 78.394600 212.056700 L 80.398500 209.506800 L 82.280400 206.860300 L 84.036100 204.121700 L 85.661400 201.295000 L 87.152100 198.384500 L 87.503700 197.606700 Z M 184.200100 28.106500 L 88.300100 142.395700 L 87.152100 139.856400 L 85.661400 136.945900 L 84.036100 134.119200 L 82.280400 131.380600 L 80.398500 128.734100 L 78.394600 126.184200 L 76.273000 123.735000 L 74.038000 121.390700 L 71.693800 119.155700 L 69.244600 117.034200 L 66.694700 115.030300 L 64.048200 113.148400 L 61.309500 111.392700 L 60.080500 110.686000 L 152.026200 1.109400 Z" transform="scale(1.000000,1.000000) translate(45.000000,33.000000)" fill="#001c2c" opacity="1.000000"></path>
        <path d="M 47.759100 1.420200 L 51.929400 2.056600 L 55.954400 3.091600 L 59.813200 4.503900 L 63.484600 6.272500 L 66.947500 8.376300 L 70.180800 10.794100 L 73.163400 13.504900 L 75.874100 16.487400 L 78.292000 19.720800 L 80.395700 23.183700 L 82.164300 26.855100 L 83.576700 30.713800 L 84.611600 34.738900 L 85.248000 38.909100 L 85.464900 43.203300 L 85.248000 47.497600 L 84.611600 51.667800 L 83.576700 55.692900 L 82.164300 59.551600 L 80.395700 63.223000 L 78.292000 66.685900 L 75.874100 69.919200 L 73.163400 72.901800 L 70.180800 75.612600 L 66.947500 78.030400 L 63.484600 80.134200 L 59.813200 81.902800 L 55.954400 83.315100 L 51.929400 84.350100 L 47.759100 84.986500 L 43.464900 85.203300 L 39.170600 84.986500 L 35.000400 84.350100 L 30.975400 83.315100 L 27.116600 81.902800 L 23.445200 80.134200 L 19.982300 78.030400 L 16.749000 75.612600 L 13.766400 72.901800 L 11.055600 69.919200 L 8.637800 66.685900 L 6.534100 63.223000 L 4.765500 59.551600 L 3.353100 55.692900 L 2.318200 51.667800 L 1.681700 47.497600 L 1.464900 43.203300 L 1.681700 38.909100 L 2.318200 34.738900 L 3.353100 30.713800 L 4.765500 26.855100 L 6.534100 23.183700 L 8.637800 19.720800 L 11.055600 16.487400 L 13.766400 13.504900 L 16.749000 10.794100 L 19.982300 8.376300 L 23.445200 6.272500 L 27.116600 4.503900 L 30.975400 3.091600 L 35.000400 2.056600 L 39.170600 1.420200 L 43.464900 1.203300 Z" transform="scale(1.000000,1.000000) translate(27.000000,158.000000)" fill="#001c2c" opacity="1.000000"></path>
        <path d="M 60.094000 1.274600 L 65.453900 1.794100 L 70.758200 2.829600 L 75.967100 4.382800 L 81.040800 6.455600 L 85.939600 9.049900 L 90.623600 12.167600 L 95.053100 15.810400 L 99.093100 19.881000 L 102.633900 24.253900 L 105.673700 28.889400 L 108.210500 33.747700 L 110.242700 38.789100 L 111.768200 43.973800 L 112.785200 49.261900 L 113.291900 54.613800 L 113.286400 59.989600 L 112.766900 65.349500 L 111.731400 70.653800 L 110.178200 75.862700 L 108.105400 80.936500 L 105.511100 85.835200 L 102.393400 90.519200 L 98.750600 94.948700 L 94.680100 98.988700 L 90.307100 102.529500 L 85.671600 105.569300 L 80.813300 108.106200 L 75.771900 110.138300 L 70.587200 111.663800 L 65.299100 112.680800 L 62.817300 112.915800 L 61.632000 100.988000 L 63.592600 100.802400 L 67.748000 100.003300 L 71.822100 98.804500 L 75.783500 97.207700 L 79.601200 95.214200 L 83.243700 92.825600 L 86.679900 90.043300 L 89.878500 86.868700 L 92.741100 83.388000 L 95.190900 79.707400 L 97.229500 75.858000 L 98.858300 71.871100 L 100.078800 67.778000 L 100.892400 63.609900 L 101.300700 59.398100 L 101.305000 55.173800 L 100.906800 50.968400 L 100.107600 46.813000 L 98.908900 42.738900 L 97.312100 38.777500 L 95.318600 34.959800 L 92.930000 31.317300 L 90.147700 27.881100 L 86.973100 24.682500 L 83.492400 21.820000 L 79.811800 19.370100 L 75.962400 17.331500 L 71.975500 15.702700 L 67.882300 14.482200 L 63.714300 13.668600 L 59.502500 13.260300 L 55.278200 13.256000 L 51.072800 13.654200 L 46.917400 14.453400 L 42.843300 15.652100 L 38.881800 17.248900 L 35.064200 19.242400 L 31.421600 21.631000 L 27.985400 24.413400 L 24.786900 27.587900 L 21.924300 31.068600 L 19.474500 34.749300 L 17.435900 38.598700 L 15.807100 42.585500 L 14.586600 46.678700 L 13.773000 50.846700 L 13.364700 55.058500 L 13.361800 57.913500 L 1.375500 57.845600 L 1.379000 54.467100 L 1.898500 49.107100 L 2.933900 43.802800 L 4.487100 38.593900 L 6.560000 33.520200 L 9.154300 28.621400 L 12.271900 23.937400 L 15.914800 19.507900 L 19.985300 15.467900 L 24.358200 11.927100 L 28.993800 8.887300 L 33.852100 6.350500 L 38.893500 4.318300 L 44.078200 2.792800 L 49.366300 1.775800 L 54.718200 1.269100 Z" transform="scale(1.000000,1.000000) translate(329.000000,206.000000)" fill="#001c2c" opacity="1.000000"></path>
        <path d="M 48.852300 41.605500 L 45.844600 44.908000 L 45.186500 45.498900 L 44.446400 45.933600 L 43.649300 46.210900 L 42.819900 46.329700 L 41.983100 46.288800 L 41.163600 46.087000 L 40.386200 45.723200 L 39.675800 45.196200 L 2.593000 11.423800 L 2.002000 10.765700 L 1.567300 10.025600 L 1.290000 9.228500 L 1.171200 8.399100 L 1.212200 7.562300 L 1.413900 6.742700 L 1.777700 5.965400 L 2.304700 5.255000 L 5.312400 1.952500 Z" transform="scale(1.000000,1.000000) translate(316.000000,289.000000)" fill="#001c2c" opacity="1.000000"></path>
        <path d="M 82.678700 2.000600 L 85.622500 2.589600 L 86.988300 3.086900 L 88.279300 3.722700 L 89.492400 4.499500 L 90.624300 5.419900 L 91.646200 6.461000 L 92.532700 7.596400 L 93.286100 8.822500 L 93.908600 10.136000 L 94.769500 13.012000 L 95.133200 16.197500 L 95.017300 19.665600 L 94.439500 23.389500 L 93.417300 27.342500 L 91.968600 31.497500 L 90.110800 35.827800 L 87.861800 40.306600 L 85.239100 44.907000 L 82.260500 49.602100 L 78.943500 54.365200 L 75.305800 59.169300 L 71.365100 63.987700 L 67.139000 68.793500 L 62.748200 73.449300 L 58.318200 77.822100 L 53.874200 81.891800 L 49.441200 85.638500 L 45.044200 89.042000 L 40.708400 92.082200 L 36.458900 94.739000 L 32.320600 96.992400 L 28.318700 98.822300 L 24.478400 100.208500 L 20.824500 101.131100 L 17.382300 101.569800 L 14.176800 101.504800 L 11.233000 100.915700 L 9.867200 100.418400 L 8.576200 99.782700 L 7.363200 99.005800 L 6.231200 98.085500 L 5.209400 97.044300 L 4.322800 95.909000 L 3.569400 94.682900 L 2.947000 93.369400 L 2.086000 90.493400 L 1.722300 87.307900 L 1.838200 83.839800 L 2.416100 80.115800 L 3.438200 76.162900 L 4.887000 72.007900 L 6.744700 67.677500 L 8.993700 63.198700 L 11.616400 58.598400 L 14.595100 53.903200 L 17.912100 49.140200 L 21.549800 44.336000 L 25.490500 39.517600 L 29.716500 34.711900 L 34.107300 30.056100 L 38.537300 25.683300 L 42.981300 21.613500 L 47.414400 17.866800 L 51.811300 14.463400 L 56.147100 11.423200 L 60.396700 8.766300 L 64.534900 6.512900 L 68.536800 4.683100 L 72.377200 3.296800 L 76.031000 2.374300 L 79.473200 1.935500 Z M 78.949300 14.016900 L 76.667900 14.527900 L 74.096700 15.397300 L 71.267000 16.619500 L 68.210400 18.189000 L 64.713700 20.251100 L 61.104900 22.641700 L 57.410500 25.341300 L 53.657300 28.330500 L 49.871900 31.589600 L 46.080900 35.099300 L 42.310900 38.839800 L 38.588600 42.791900 L 35.000800 46.866400 L 31.628100 50.968800 L 28.487200 55.070500 L 25.595200 59.143400 L 22.969000 63.158900 L 20.625600 67.088900 L 18.581900 70.904900 L 16.854900 74.578600 L 15.577200 77.768300 L 14.624100 80.699600 L 13.998300 83.340700 L 13.702200 85.659800 L 13.685900 87.046300 L 13.804900 88.081800 L 14.024800 88.794800 L 14.311300 89.213400 L 14.754800 89.459600 L 15.485100 89.612100 L 16.527300 89.633900 L 17.906200 89.488500 L 20.187600 88.977500 L 22.758800 88.108100 L 25.588500 86.885800 L 28.645100 85.316300 L 32.141800 83.254300 L 35.750600 80.863600 L 39.445000 78.164000 L 43.198200 75.174900 L 46.983600 71.915700 L 50.774700 68.406100 L 54.544600 64.665500 L 58.266900 60.713500 L 61.854700 56.638900 L 65.227500 52.536600 L 68.368300 48.434800 L 71.260300 44.362000 L 73.886500 40.346400 L 76.229900 36.416400 L 78.273600 32.600400 L 80.000600 28.926700 L 81.278300 25.737000 L 82.231400 22.805800 L 82.857300 20.164700 L 83.153300 17.845600 L 83.169600 16.459100 L 83.050600 15.423500 L 82.830800 14.710500 L 82.544300 14.291900 L 82.100800 14.045700 L 81.370400 13.893300 L 80.328200 13.871400 Z" transform="scale(1.000000,1.000000) translate(333.000000,216.000000)" fill="#001c2c" opacity="1.000000"></path>
        <path d="M 235.769700 230.843000 L 232.610600 234.167300 L 227.901500 238.671800 L 222.981500 242.947500 L 217.859200 246.986100 L 212.543000 250.778900 L 207.041500 254.317400 L 201.363300 257.593000 L 195.516700 260.597200 L 189.510400 263.321500 L 183.352800 265.757300 L 177.052600 267.896100 L 170.618100 269.729300 L 164.058000 271.248300 L 157.380700 272.444700 L 150.594700 273.309800 L 143.708600 273.835100 L 136.731000 274.012100 L 129.753300 273.835100 L 122.867300 273.309800 L 116.081300 272.444700 L 109.404000 271.248300 L 102.843900 269.729300 L 96.409400 267.896100 L 90.109100 265.757300 L 83.951600 263.321500 L 77.945300 260.597200 L 72.098700 257.593000 L 66.420400 254.317400 L 60.918900 250.778900 L 55.602800 246.986100 L 50.480400 242.947500 L 45.560500 238.671800 L 40.851400 234.167300 L 36.361700 229.442800 L 32.099900 224.506700 L 28.074500 219.367600 L 24.294100 214.034000 L 20.767200 208.514500 L 17.502200 202.817600 L 14.507800 196.951900 L 11.792400 190.925900 L 9.364600 184.748100 L 7.232800 178.427200 L 5.405600 171.971700 L 3.891500 165.390000 L 2.699100 158.690800 L 1.836800 151.882700 L 1.313200 144.974000 L 1.136700 137.973500 L 1.313200 130.973000 L 1.836800 124.064300 L 2.699100 117.256100 L 3.891500 110.557000 L 5.405600 103.975300 L 7.232800 97.519800 L 9.364600 91.198800 L 11.792400 85.021100 L 14.507800 78.995100 L 17.502200 73.129400 L 20.767200 67.432500 L 24.294100 61.913000 L 28.074500 56.579400 L 32.099900 51.440300 L 35.025500 48.051800 Z M 166.154800 198.967300 L 162.681800 202.278400 L 159.053400 205.421500 L 155.275700 208.390200 L 151.355000 211.178200 L 147.297700 213.779300 L 143.110000 216.187200 L 138.798200 218.395500 L 134.368600 220.398100 L 129.827400 222.188600 L 125.181000 223.760800 L 120.435600 225.108400 L 115.597600 226.225000 L 110.673100 227.104400 L 105.668500 227.740300 L 100.590100 228.126500 L 95.444100 228.256600 L 90.298100 228.126500 L 85.219700 227.740300 L 80.215100 227.104400 L 75.290600 226.225000 L 70.452500 225.108400 L 70.157000 225.024500 L 70.689000 225.485300 L 74.466700 228.454000 L 78.387400 231.242000 L 82.444700 233.843100 L 86.632400 236.251000 L 90.944200 238.459400 L 95.373800 240.462000 L 99.915000 242.252500 L 104.561400 243.824700 L 109.306800 245.172200 L 114.144800 246.288800 L 119.069300 247.168200 L 124.073900 247.804200 L 129.152300 248.190300 L 134.298300 248.320500 L 139.444300 248.190300 L 144.522700 247.804200 L 149.527300 247.168200 L 154.451800 246.288800 L 159.289900 245.172200 L 164.035300 243.824700 L 168.681700 242.252500 L 173.222800 240.462000 L 177.652500 238.459400 L 181.964300 236.251000 L 186.152000 233.843100 L 190.209300 231.242000 L 194.129900 228.454000 L 197.907600 225.485300 L 199.180300 224.382900 L 168.531200 196.474800 Z" transform="scale(1.000000,1.000000) translate(234.000000,131.000000)" fill="#001c2c" opacity="1.000000"></path>
        <path d="M 99.359000 1.964200 L 101.252900 2.349800 L 103.065400 3.110000 L 104.739800 4.249800 L 191.248900 76.839600 L 187.827400 78.188600 L 183.181000 79.760800 L 178.435600 81.108400 L 173.597600 82.225000 L 168.673100 83.104400 L 163.668500 83.740300 L 158.590100 84.126500 L 153.444100 84.256600 L 148.298100 84.126500 L 143.219700 83.740300 L 138.215100 83.104400 L 133.290600 82.225000 L 128.452500 81.108400 L 128.157000 81.024500 L 128.689000 81.485300 L 132.466700 84.454000 L 136.387400 87.242000 L 140.444700 89.843100 L 144.632400 92.251000 L 148.944200 94.459400 L 153.373800 96.462000 L 157.915000 98.252500 L 162.561400 99.824700 L 167.306800 101.172200 L 172.144800 102.288800 L 177.069300 103.168200 L 182.073900 103.804200 L 187.152300 104.190300 L 189.899000 104.259800 L 124.861400 181.768600 L 122.486000 184.458300 L 120.004200 186.997200 L 117.422100 189.384800 L 114.745900 191.620500 L 111.981700 193.703700 L 109.135700 195.634000 L 106.214200 197.410800 L 103.223100 199.033500 L 100.168900 200.501600 L 97.057500 201.814600 L 93.895200 202.972000 L 90.688100 203.973100 L 87.442500 204.817500 L 84.164400 205.504600 L 80.860100 206.033800 L 77.535700 206.404800 L 74.197500 206.616800 L 70.851500 206.669300 L 67.503900 206.561900 L 64.160900 206.293900 L 60.828700 205.864900 L 57.513500 205.274300 L 54.221400 204.521500 L 50.958600 203.606000 L 47.731200 202.527300 L 44.545500 201.284900 L 41.407600 199.878100 L 38.323700 198.306500 L 35.299900 196.569500 L 32.342400 194.666600 L 29.457400 192.597300 L 26.651100 190.360900 L 26.574500 190.296600 L 23.884800 187.921200 L 21.345800 185.439400 L 18.958300 182.857300 L 16.722600 180.181100 L 14.639400 177.416900 L 12.709100 174.571000 L 10.932300 171.649400 L 9.309600 168.658400 L 7.841500 165.604100 L 6.528400 162.492700 L 5.371100 159.330400 L 4.370000 156.123400 L 3.525600 152.877700 L 2.838500 149.599600 L 2.309200 146.295300 L 1.938300 142.971000 L 1.726300 139.632700 L 1.673800 136.286700 L 1.781200 132.939100 L 2.049100 129.596100 L 2.478200 126.264000 L 3.068800 122.948700 L 3.821600 119.656600 L 4.737000 116.393800 L 5.815700 113.166500 L 7.058200 109.980700 L 8.464900 106.842800 L 10.036500 103.758900 L 11.773500 100.735100 L 13.676400 97.777600 L 15.745800 94.892600 L 17.982200 92.086300 L 90.651500 5.482400 L 92.102600 4.069100 L 93.755500 3.005700 L 95.553700 2.297100 L 97.440400 1.948300 Z M 95.603600 154.163400 L 93.228200 156.853200 L 90.746400 159.392100 L 88.164300 161.779600 L 85.488100 164.015300 L 82.723900 166.098500 L 79.877900 168.028800 L 76.956400 169.805600 L 73.965300 171.428300 L 70.911100 172.896400 L 67.799700 174.209500 L 64.637400 175.366800 L 61.430300 176.367900 L 58.184700 177.212300 L 54.906600 177.899400 L 51.602300 178.428700 L 48.277900 178.799600 L 44.939700 179.011600 L 41.593700 179.064100 L 38.246100 178.956700 L 34.903100 178.688800 L 31.570900 178.259700 L 29.165200 177.831100 L 31.889500 179.396100 L 34.973400 180.967700 L 38.111300 182.374400 L 41.297000 183.616900 L 44.524400 184.695600 L 47.787200 185.611000 L 51.079300 186.363800 L 54.394500 186.954400 L 57.726700 187.383500 L 61.069700 187.651400 L 64.417200 187.758900 L 67.763300 187.706300 L 71.101500 187.494300 L 74.425900 187.123400 L 77.730200 186.594100 L 81.008300 185.907000 L 84.253900 185.062600 L 87.461000 184.061500 L 90.623300 182.904200 L 93.734700 181.591200 L 96.788900 180.123000 L 99.779900 178.500300 L 102.701500 176.723500 L 105.547500 174.793300 L 108.311700 172.710000 L 110.987900 170.474300 L 113.570000 168.086800 L 116.051800 165.547900 L 118.427200 162.858200 L 134.535600 143.660900 L 117.461700 128.113900 Z" transform="scale(1.000000,1.000000) translate(176.000000,275.000000)" fill="#001c2c" opacity="1.000000"></path>
        <path d="M 36.707703 75.997395 L 36.707703 17.696613 L 47.020203 17.696613 L 47.020203 2.696613 L 1.903015 2.696613 L 1.903015 17.696613 L 13.680359 17.696613 L 13.680359 75.997395 L 1.903015 75.997395 L 1.903015 90.997395 L 47.899109 90.997395 L 47.899109 75.997395 Z M 88.094421 75.997395 L 63.133484 51.798176 L 92.137390 17.696613 L 101.278015 17.696613 L 101.278015 2.696613 L 53.875671 2.696613 L 53.875671 17.696613 L 64.188171 17.696613 L 37.469421 49.044270 L 66.238953 75.997395 L 55.692078 75.997395 L 55.692078 90.997395 L 98.875671 90.997395 L 98.875671 75.997395 Z M 141.668640 75.997395 L 141.668640 34.747395 Q 141.668640 27.423176 143.045593 23.468098 Q 144.422546 19.513020 146.883484 18.018879 Q 149.344421 16.524738 153.328796 16.524738 Q 159.422546 16.524738 162.381531 20.714191 Q 165.340515 24.903645 165.340515 35.450520 L 165.340515 75.997395 L 156.785828 75.997395 L 156.785828 90.997395 L 192.059265 90.997395 L 192.059265 75.997395 L 181.278015 75.997395 L 181.278015 31.231770 Q 181.278015 15.763020 174.276062 8.702473 Q 167.274109 1.641926 150.926453 1.641926 Q 139.266296 1.641926 132.322937 4.747395 Q 125.379578 7.852863 122.069031 15.177082 Q 118.758484 22.501301 118.758484 35.216145 L 118.758484 75.997395 L 108.328796 75.997395 L 108.328796 90.997395 L 150.457703 90.997395 L 150.457703 75.997395 Z M 237.137390 75.997395 L 237.137390 17.696613 L 250.731140 17.696613 L 250.731140 2.696613 L 200.809265 2.696613 L 200.809265 17.696613 L 214.110046 17.696613 L 214.110046 75.997395 L 200.809265 75.997395 L 200.809265 90.997395 L 250.731140 90.997395 L 250.731140 75.997395 Z M 341.863953 66.915363 Q 341.863953 58.829426 338.084656 53.321613 Q 334.305359 47.813801 326.629578 44.356770 L 340.867859 17.696613 L 352.293640 17.696613 L 352.293640 2.696613 L 325.399109 2.696613 L 305.477234 41.309895 L 295.399109 41.309895 L 295.399109 17.696613 L 306.473328 17.696613 L 306.473328 2.696613 L 260.242859 2.696613 L 260.242859 17.696613 L 272.371765 17.696613 L 272.371765 75.997395 L 260.242859 75.997395 L 260.242859 90.997395 L 310.633484 90.997395 Q 325.281921 90.997395 333.572937 84.815754 Q 341.863953 78.634113 341.863953 66.915363 Z M 317.840515 65.919270 Q 317.840515 70.958332 314.617859 73.477863 Q 311.395203 75.997395 305.828796 75.997395 L 295.399109 75.997395 L 295.399109 55.489582 L 303.836609 55.489582 Q 317.840515 55.489582 317.840515 65.919270 Z M 395.203796 75.997395 L 395.203796 17.696613 L 421.278015 17.696613 L 421.278015 44.942707 L 438.563171 44.942707 L 438.563171 2.696613 L 359.578796 2.696613 L 359.578796 17.696613 L 372.176453 17.696613 L 372.176453 75.997395 L 359.578796 75.997395 L 359.578796 90.997395 L 408.153015 90.997395 L 408.153015 75.997395 Z" transform="scale(1.000000,1.000000) translate(342.000000,15.000000)" fill="#455964" opacity="1.000000"></path>
        <path d="M 5.488559 17.911218 L 4.031040 17.911218 L 4.031040 8.364465 L 1.072275 8.364465 L 1.072275 29.585950 L 4.031040 29.585950 L 4.031040 20.286975 L 5.284507 20.286975 L 11.202036 29.585950 L 14.787534 29.585950 L 7.791440 19.616516 L 15.326816 8.364465 L 11.566416 8.364465 Z M 19.903428 24.134827 L 20.078330 21.788220 Q 20.748789 23.041687 21.769053 23.734009 Q 22.789316 24.426331 24.086509 24.426331 Q 26.185337 24.426331 27.358640 22.881360 Q 28.531943 21.336389 28.531943 18.071545 L 28.531943 8.364465 L 25.573179 8.364465 L 25.573179 18.056970 Q 25.573179 20.286975 24.953733 21.205212 Q 24.334287 22.123450 23.080820 22.123450 Q 22.060557 22.123450 21.331797 21.591455 Q 20.603037 21.059461 20.165781 20.126648 L 20.165781 8.364465 L 17.192441 8.364465 L 17.192441 24.134827 Z M 31.315806 16.424548 Q 31.315806 19.937170 32.977378 22.181751 Q 34.638950 24.426331 37.539414 24.426331 Q 40.439878 24.426331 42.108738 22.181751 Q 43.777598 19.937170 43.777598 16.424548 L 43.777598 16.031018 Q 43.777598 12.503821 42.116026 10.281103 Q 40.454453 8.058386 37.568565 8.058386 Q 34.638950 8.058386 32.977378 10.281103 Q 31.315806 12.503821 31.315806 16.031018 Z M 34.289146 16.031018 Q 34.289146 13.509509 35.098069 11.906238 Q 35.906992 10.302966 37.568565 10.302966 Q 39.186411 10.302966 39.995335 11.913525 Q 40.804258 13.524084 40.804258 16.031018 L 40.804258 16.424548 Q 40.804258 18.902332 39.988047 20.527466 Q 39.171836 22.152600 37.539414 22.152600 Q 35.906992 22.152600 35.098069 20.527466 Q 34.289146 18.902332 34.289146 16.424548 Z M 53.368076 21.671619 L 52.085459 21.744495 Q 51.152647 21.744495 50.533201 21.183350 Q 49.913755 20.622205 49.578526 19.601941 L 49.578526 8.364465 L 46.605186 8.364465 L 46.605186 24.134827 L 49.330747 24.134827 L 49.534800 21.802795 Q 50.059507 23.041687 50.875718 23.734009 Q 51.691929 24.426331 52.755918 24.426331 Q 53.032847 24.426331 53.273338 24.375317 Q 53.513828 24.324304 53.703306 24.251428 Z M 63.978819 8.364465 Q 63.789341 9.078650 63.680027 9.639795 Q 63.570713 10.200940 63.541563 10.754797 Q 62.914830 9.588782 61.887278 8.823584 Q 60.859727 8.058386 59.547959 8.058386 Q 57.434556 8.058386 56.304978 9.311853 Q 55.175401 10.565320 55.175401 12.737024 Q 55.175401 14.967029 56.742234 16.249646 Q 58.309068 17.532263 61.107505 17.532263 L 63.526988 17.532263 L 63.526988 19.150110 Q 63.526988 20.593054 62.885679 21.401978 Q 62.244371 22.210901 61.049205 22.210901 Q 59.970640 22.210901 59.336619 21.511292 Q 58.702598 20.811682 58.702598 19.718543 L 55.875010 19.703967 L 55.845860 19.791418 Q 55.758409 21.627893 57.274229 23.027112 Q 58.790049 24.426331 61.238682 24.426331 Q 63.585289 24.426331 65.042808 23.048975 Q 66.500328 21.671619 66.500328 19.120960 L 66.500328 11.804211 Q 66.500328 10.900549 66.616929 10.047900 Q 66.733531 9.195251 66.981309 8.364465 Z M 60.160118 10.332117 Q 61.369859 10.332117 62.302671 11.082739 Q 63.235484 11.833362 63.526988 12.897351 L 63.526988 15.695789 L 61.063780 15.695789 Q 59.693711 15.695789 58.921226 14.828564 Q 58.148741 13.961340 58.148741 12.737024 Q 58.148741 11.643884 58.673448 10.988000 Q 59.198155 10.332117 60.160118 10.332117 Z M 90.651427 29.585950 L 90.651427 15.550037 Q 90.651427 12.022839 88.669200 10.040613 Q 86.686973 8.058386 83.524156 8.058386 Q 80.419639 8.058386 78.473851 10.047900 Q 76.528062 12.037414 76.528062 15.550037 L 76.528062 29.585950 L 79.486827 29.585950 L 79.486827 15.550037 Q 79.486827 13.086829 80.601829 11.694897 Q 81.716832 10.302966 83.524156 10.302966 Q 85.389781 10.302966 86.533934 11.687610 Q 87.678087 13.072253 87.678087 15.550037 L 87.678087 29.585950 Z M 101.597398 12.343494 Q 101.597398 13.261731 100.985240 13.881177 Q 100.373082 14.500623 98.638634 15.273108 Q 96.204576 16.191345 94.994835 17.269910 Q 93.785094 18.348474 93.785094 20.039197 Q 93.785094 21.861096 95.249901 23.143713 Q 96.714708 24.426331 99.061314 24.426331 Q 101.495372 24.426331 102.982042 23.019824 Q 104.468712 21.613318 104.410411 19.616516 L 104.381261 19.529065 L 101.524522 19.529065 Q 101.524522 20.651355 100.861351 21.460278 Q 100.198180 22.269202 99.061314 22.269202 Q 97.924449 22.269202 97.290428 21.635181 Q 96.656407 21.001160 96.656407 20.155798 Q 96.656407 19.252136 97.202977 18.734717 Q 97.749547 18.217297 99.542296 17.401086 Q 102.020079 16.526575 103.266258 15.375134 Q 104.512437 14.223694 104.512437 12.489246 Q 104.512437 10.521594 103.003905 9.289990 Q 101.495372 8.058386 99.046739 8.058386 Q 96.394054 8.058386 94.870946 9.537768 Q 93.347838 11.017151 93.420714 12.999377 L 93.449864 13.086829 L 96.204576 13.086829 Q 96.262877 11.556433 97.071800 10.878686 Q 97.880724 10.200940 99.090465 10.200940 Q 100.271056 10.200940 100.934227 10.805810 Q 101.597398 11.410681 101.597398 12.343494 Z M 112.966051 8.058386 Q 110.021861 8.058386 108.353002 10.215515 Q 106.684142 12.372644 106.684142 15.826965 L 106.684142 16.512000 Q 106.684142 19.980896 108.345714 22.203613 Q 110.007286 24.426331 112.689122 24.426331 Q 115.385533 24.426331 116.792040 22.516980 Q 118.198546 20.607629 118.198546 17.386511 L 118.198546 15.724939 L 109.642906 15.724939 Q 109.642906 13.305456 110.510130 11.804211 Q 111.377355 10.302966 113.170104 10.302966 Q 114.408995 10.302966 115.327233 10.689209 Q 116.245470 11.075452 117.017955 11.818787 L 117.979918 9.982312 Q 117.192858 9.166101 115.902953 8.612244 Q 114.613048 8.058386 112.966051 8.058386 Z M 112.689122 22.152600 Q 111.406505 22.152600 110.648595 20.964722 Q 109.890685 19.776843 109.701207 17.823767 L 115.283507 17.823767 L 115.283507 18.158997 Q 115.283507 19.937170 114.649486 21.044885 Q 114.015465 22.152600 112.689122 22.152600 Z M 127.628698 21.671619 L 126.346080 21.744495 Q 125.413268 21.744495 124.793822 21.183350 Q 124.174376 20.622205 123.839147 19.601941 L 123.839147 8.364465 L 120.865807 8.364465 L 120.865807 24.134827 L 123.591368 24.134827 L 123.795421 21.802795 Q 124.320128 23.041687 125.136339 23.734009 Q 125.952550 24.426331 127.016539 24.426331 Q 127.293468 24.426331 127.533959 24.375317 Q 127.774450 24.324304 127.963927 24.251428 Z M 140.148790 8.364465 L 137.190026 8.364465 L 137.190026 29.585950 L 140.148790 29.585950 Z M 146.838805 24.134827 L 147.013708 21.788220 Q 147.684167 23.041687 148.704430 23.734009 Q 149.724694 24.426331 151.021886 24.426331 Q 153.120714 24.426331 154.294018 22.881360 Q 155.467321 21.336389 155.467321 18.071545 L 155.467321 8.364465 L 152.508556 8.364465 L 152.508556 18.056970 Q 152.508556 20.286975 151.889110 21.205212 Q 151.269665 22.123450 150.016198 22.123450 Q 148.995934 22.123450 148.267174 21.591455 Q 147.538415 21.059461 147.101159 20.126648 L 147.101159 8.364465 L 144.127819 8.364465 L 144.127819 24.134827 Z M 162.652892 28.055554 L 162.652892 24.134827 L 165.116100 24.134827 L 165.116100 22.021423 L 162.652892 22.021423 L 162.652892 12.634998 Q 162.652892 11.410681 163.024560 10.893262 Q 163.396227 10.375842 164.008386 10.375842 Q 164.256164 10.375842 164.474792 10.419568 Q 164.693420 10.463293 164.984924 10.550745 L 165.291003 8.510217 Q 164.868322 8.306164 164.350903 8.182275 Q 163.833483 8.058386 163.279626 8.058386 Q 161.574328 8.058386 160.626940 9.158813 Q 159.679552 10.259241 159.679552 12.634998 L 159.679552 22.021423 L 157.595300 22.021423 L 157.595300 24.134827 L 159.679552 24.134827 L 159.679552 28.055554 Z M 173.496838 8.058386 Q 170.552648 8.058386 168.883788 10.215515 Q 167.214929 12.372644 167.214929 15.826965 L 167.214929 16.512000 Q 167.214929 19.980896 168.876501 22.203613 Q 170.538073 24.426331 173.219909 24.426331 Q 175.916320 24.426331 177.322827 22.516980 Q 178.729333 20.607629 178.729333 17.386511 L 178.729333 15.724939 L 170.173693 15.724939 Q 170.173693 13.305456 171.040917 11.804211 Q 171.908141 10.302966 173.700891 10.302966 Q 174.939782 10.302966 175.858019 10.689209 Q 176.776257 11.075452 177.548742 11.818787 L 178.510705 9.982312 Q 177.723644 9.166101 176.433740 8.612244 Q 175.143835 8.058386 173.496838 8.058386 Z M 173.219909 22.152600 Q 171.937292 22.152600 171.179382 20.964722 Q 170.421472 19.776843 170.231994 17.823767 L 175.814294 17.823767 L 175.814294 18.158997 Q 175.814294 19.937170 175.180273 21.044885 Q 174.546252 22.152600 173.219909 22.152600 Z M 188.159484 21.671619 L 186.876867 21.744495 Q 185.944055 21.744495 185.324609 21.183350 Q 184.705163 20.622205 184.369934 19.601941 L 184.369934 8.364465 L 181.396594 8.364465 L 181.396594 24.134827 L 184.122155 24.134827 L 184.326208 21.802795 Q 184.850915 23.041687 185.667126 23.734009 Q 186.483337 24.426331 187.547326 24.426331 Q 187.824255 24.426331 188.064746 24.375317 Q 188.305236 24.324304 188.494714 24.251428 Z M 191.570080 8.364465 L 191.570080 22.021423 L 189.485827 22.021423 L 189.485827 24.134827 L 191.570080 24.134827 L 191.570080 26.160779 Q 191.570080 28.667713 192.787109 30.037781 Q 194.004138 31.407849 196.190417 31.407849 Q 196.627673 31.407849 197.086792 31.327686 Q 197.545910 31.247522 198.085193 31.101770 L 197.808264 28.930066 Q 197.531335 29.002942 197.225256 29.046668 Q 196.919177 29.090393 196.554797 29.090393 Q 195.563684 29.090393 195.046264 28.332483 Q 194.528845 27.574573 194.528845 26.160779 L 194.528845 24.134827 L 197.137805 24.134827 L 197.137805 22.021423 L 194.528845 22.021423 L 194.528845 8.364465 Z M 207.646521 8.364465 Q 207.457043 9.078650 207.347729 9.639795 Q 207.238415 10.200940 207.209265 10.754797 Q 206.582532 9.588782 205.554980 8.823584 Q 204.527429 8.058386 203.215661 8.058386 Q 201.102258 8.058386 199.972680 9.311853 Q 198.843103 10.565320 198.843103 12.737024 Q 198.843103 14.967029 200.409936 16.249646 Q 201.976770 17.532263 204.775207 17.532263 L 207.194690 17.532263 L 207.194690 19.150110 Q 207.194690 20.593054 206.553381 21.401978 Q 205.912073 22.210901 204.716907 22.210901 Q 203.638342 22.210901 203.004321 21.511292 Q 202.370300 20.811682 202.370300 19.718543 L 199.542712 19.703967 L 199.513562 19.791418 Q 199.426111 21.627893 200.941931 23.027112 Q 202.457751 24.426331 204.906384 24.426331 Q 207.252991 24.426331 208.710510 23.048975 Q 210.168030 21.671619 210.168030 19.120960 L 210.168030 11.804211 Q 210.168030 10.900549 210.284631 10.047900 Q 210.401233 9.195251 210.649011 8.364465 Z M 203.827820 10.332117 Q 205.037561 10.332117 205.970373 11.082739 Q 206.903186 11.833362 207.194690 12.897351 L 207.194690 15.695789 L 204.731482 15.695789 Q 203.361413 15.695789 202.588928 14.828564 Q 201.816443 13.961340 201.816443 12.737024 Q 201.816443 11.643884 202.341150 10.988000 Q 202.865857 10.332117 203.827820 10.332117 Z M 219.029749 10.302966 Q 220.122888 10.302966 220.858936 11.148328 Q 221.594983 11.993689 221.594983 13.436633 L 224.262244 13.436633 L 224.291394 13.349182 Q 224.349695 11.119177 222.790149 9.588782 Q 221.230603 8.058386 219.029749 8.058386 Q 216.114709 8.058386 214.526013 10.281103 Q 212.937317 12.503821 212.937317 15.958142 L 212.937317 16.512000 Q 212.937317 19.951746 214.526013 22.189038 Q 216.114709 24.426331 219.029749 24.426331 Q 221.390930 24.426331 222.870313 22.830347 Q 224.349695 21.234363 224.305969 18.683704 L 224.276819 18.610828 L 221.594983 18.610828 Q 221.594983 20.184949 220.888086 21.168774 Q 220.181189 22.152600 219.029749 22.152600 Q 217.368176 22.152600 216.632129 20.549329 Q 215.896081 18.946057 215.896081 16.512000 L 215.896081 15.958142 Q 215.896081 13.480359 216.624841 11.891663 Q 217.353601 10.302966 219.029749 10.302966 Z M 232.759583 8.058386 Q 229.815393 8.058386 228.146533 10.215515 Q 226.477673 12.372644 226.477673 15.826965 L 226.477673 16.512000 Q 226.477673 19.980896 228.139246 22.203613 Q 229.800818 24.426331 232.482654 24.426331 Q 235.179065 24.426331 236.585572 22.516980 Q 237.992078 20.607629 237.992078 17.386511 L 237.992078 15.724939 L 229.436438 15.724939 Q 229.436438 13.305456 230.303662 11.804211 Q 231.170886 10.302966 232.963635 10.302966 Q 234.202527 10.302966 235.120764 10.689209 Q 236.039002 11.075452 236.811487 11.818787 L 237.773450 9.982312 Q 236.986389 9.166101 235.696485 8.612244 Q 234.406580 8.058386 232.759583 8.058386 Z M 232.482654 22.152600 Q 231.200037 22.152600 230.442127 20.964722 Q 229.684216 19.776843 229.494739 17.823767 L 235.077039 17.823767 L 235.077039 18.158997 Q 235.077039 19.937170 234.443018 21.044885 Q 233.808997 22.152600 232.482654 22.152600 Z M 250.016614 4.429162 L 247.436805 4.429162 L 247.436805 29.585950 L 250.016614 29.585950 Z M 263.586121 17.503113 L 263.586121 8.364465 L 260.627356 8.364465 L 260.627356 29.571375 L 266.880115 29.571375 Q 269.940906 29.571375 271.609766 28.011829 Q 273.278626 26.452283 273.278626 23.537244 Q 273.278626 21.875671 272.498853 20.629492 Q 271.719080 19.383313 270.261561 18.698279 Q 271.893983 18.144421 272.615455 16.861804 Q 273.336927 15.579187 273.336927 13.684412 L 273.336927 11.833362 Q 273.336927 10.856824 273.526405 10.011462 Q 273.715882 9.166101 274.196863 8.699695 L 274.196863 8.364465 L 271.150648 8.364465 Q 270.655091 8.845447 270.502051 9.829272 Q 270.349012 10.813098 270.349012 11.862512 L 270.349012 13.655261 Q 270.349012 15.433435 269.525513 16.468274 Q 268.702015 17.503113 267.244495 17.503113 Z M 263.586121 19.762268 L 266.734363 19.762268 Q 268.570838 19.762268 269.445350 20.731519 Q 270.319861 21.700769 270.319861 23.478943 Q 270.319861 25.300842 269.467213 26.306531 Q 268.614564 27.312219 266.880115 27.312219 L 263.586121 27.312219 Z M 282.606751 8.058386 Q 279.662562 8.058386 277.993702 10.215515 Q 276.324842 12.372644 276.324842 15.826965 L 276.324842 16.512000 Q 276.324842 19.980896 277.986414 22.203613 Q 279.647987 24.426331 282.329823 24.426331 Q 285.026234 24.426331 286.432740 22.516980 Q 287.839246 20.607629 287.839246 17.386511 L 287.839246 15.724939 L 279.283607 15.724939 Q 279.283607 13.305456 280.150831 11.804211 Q 281.018055 10.302966 282.810804 10.302966 Q 284.049696 10.302966 284.967933 10.689209 Q 285.886170 11.075452 286.658656 11.818787 L 287.620619 9.982312 Q 286.833558 9.166101 285.543653 8.612244 Q 284.253748 8.058386 282.606751 8.058386 Z M 282.329823 22.152600 Q 281.047205 22.152600 280.289295 20.964722 Q 279.531385 19.776843 279.341908 17.823767 L 284.924207 17.823767 L 284.924207 18.158997 Q 284.924207 19.937170 284.290186 21.044885 Q 283.656165 22.152600 282.329823 22.152600 Z M 297.983583 12.343494 Q 297.983583 13.261731 297.371424 13.881177 Q 296.759266 14.500623 295.024818 15.273108 Q 292.590760 16.191345 291.381019 17.269910 Q 290.171278 18.348474 290.171278 20.039197 Q 290.171278 21.861096 291.636085 23.143713 Q 293.100892 24.426331 295.447499 24.426331 Q 297.881556 24.426331 299.368226 23.019824 Q 300.854896 21.613318 300.796595 19.616516 L 300.767445 19.529065 L 297.910707 19.529065 Q 297.910707 20.651355 297.247535 21.460278 Q 296.584364 22.269202 295.447499 22.269202 Q 294.310633 22.269202 293.676612 21.635181 Q 293.042591 21.001160 293.042591 20.155798 Q 293.042591 19.252136 293.589161 18.734717 Q 294.135731 18.217297 295.928480 17.401086 Q 298.406263 16.526575 299.652442 15.375134 Q 300.898622 14.223694 300.898622 12.489246 Q 300.898622 10.521594 299.390089 9.289990 Q 297.881556 8.058386 295.432923 8.058386 Q 292.780238 8.058386 291.257130 9.537768 Q 289.734022 11.017151 289.806898 12.999377 L 289.836048 13.086829 L 292.590760 13.086829 Q 292.649061 11.556433 293.457984 10.878686 Q 294.266908 10.200940 295.476649 10.200940 Q 296.657240 10.200940 297.320411 10.805810 Q 297.983583 11.410681 297.983583 12.343494 Z M 309.352235 8.058386 Q 306.408046 8.058386 304.739186 10.215515 Q 303.070326 12.372644 303.070326 15.826965 L 303.070326 16.512000 Q 303.070326 19.980896 304.731898 22.203613 Q 306.393470 24.426331 309.075306 24.426331 Q 311.771717 24.426331 313.178224 22.516980 Q 314.584730 20.607629 314.584730 17.386511 L 314.584730 15.724939 L 306.029090 15.724939 Q 306.029090 13.305456 306.896315 11.804211 Q 307.763539 10.302966 309.556288 10.302966 Q 310.795179 10.302966 311.713417 10.689209 Q 312.631654 11.075452 313.404139 11.818787 L 314.366102 9.982312 Q 313.579042 9.166101 312.289137 8.612244 Q 310.999232 8.058386 309.352235 8.058386 Z M 309.075306 22.152600 Q 307.792689 22.152600 307.034779 20.964722 Q 306.276869 19.776843 306.087391 17.823767 L 311.669691 17.823767 L 311.669691 18.158997 Q 311.669691 19.937170 311.035670 21.044885 Q 310.401649 22.152600 309.075306 22.152600 Z M 325.443251 8.364465 Q 325.253773 9.078650 325.144459 9.639795 Q 325.035145 10.200940 325.005995 10.754797 Q 324.379262 9.588782 323.351710 8.823584 Q 322.324159 8.058386 321.012391 8.058386 Q 318.898988 8.058386 317.769410 9.311853 Q 316.639833 10.565320 316.639833 12.737024 Q 316.639833 14.967029 318.206666 16.249646 Q 319.773500 17.532263 322.571937 17.532263 L 324.991420 17.532263 L 324.991420 19.150110 Q 324.991420 20.593054 324.350111 21.401978 Q 323.708803 22.210901 322.513637 22.210901 Q 321.435072 22.210901 320.801051 21.511292 Q 320.167030 20.811682 320.167030 19.718543 L 317.339442 19.703967 L 317.310292 19.791418 Q 317.222841 21.627893 318.738661 23.027112 Q 320.254481 24.426331 322.703114 24.426331 Q 325.049721 24.426331 326.507240 23.048975 Q 327.964760 21.671619 327.964760 19.120960 L 327.964760 11.804211 Q 327.964760 10.900549 328.081361 10.047900 Q 328.197963 9.195251 328.445741 8.364465 Z M 321.624550 10.332117 Q 322.834291 10.332117 323.767103 11.082739 Q 324.699916 11.833362 324.991420 12.897351 L 324.991420 15.695789 L 322.528212 15.695789 Q 321.158143 15.695789 320.385658 14.828564 Q 319.613173 13.961340 319.613173 12.737024 Q 319.613173 11.643884 320.137880 10.988000 Q 320.662587 10.332117 321.624550 10.332117 Z M 338.109096 21.671619 L 336.826479 21.744495 Q 335.893666 21.744495 335.274220 21.183350 Q 334.654774 20.622205 334.319545 19.601941 L 334.319545 8.364465 L 331.346205 8.364465 L 331.346205 24.134827 L 334.071767 24.134827 L 334.275819 21.802795 Q 334.800526 23.041687 335.616737 23.734009 Q 336.432948 24.426331 337.496938 24.426331 Q 337.773866 24.426331 338.014357 24.375317 Q 338.254848 24.324304 338.444325 24.251428 Z M 346.008852 10.302966 Q 347.101991 10.302966 347.838039 11.148328 Q 348.574086 11.993689 348.574086 13.436633 L 351.241347 13.436633 L 351.270497 13.349182 Q 351.328798 11.119177 349.769252 9.588782 Q 348.209706 8.058386 346.008852 8.058386 Q 343.093813 8.058386 341.505116 10.281103 Q 339.916420 12.503821 339.916420 15.958142 L 339.916420 16.512000 Q 339.916420 19.951746 341.505116 22.189038 Q 343.093813 24.426331 346.008852 24.426331 Q 348.370033 24.426331 349.849416 22.830347 Q 351.328798 21.234363 351.285072 18.683704 L 351.255922 18.610828 L 348.574086 18.610828 Q 348.574086 20.184949 347.867189 21.168774 Q 347.160292 22.152600 346.008852 22.152600 Q 344.347279 22.152600 343.611232 20.549329 Q 342.875185 18.946057 342.875185 16.512000 L 342.875185 15.958142 Q 342.875185 13.480359 343.603944 11.891663 Q 344.332704 10.302966 346.008852 10.302966 Z M 356.969399 22.021423 Q 357.639858 23.158289 358.616396 23.792310 Q 359.592934 24.426331 360.802675 24.426331 Q 362.945229 24.426331 364.154970 22.852210 Q 365.364711 21.278088 365.364711 18.013245 L 365.364711 8.364465 L 362.391371 8.364465 L 362.391371 18.042395 Q 362.391371 20.214099 361.764638 21.168774 Q 361.137905 22.123450 359.913588 22.123450 Q 358.893325 22.123450 358.157277 21.627893 Q 357.421230 21.132336 356.969399 20.243250 L 356.969399 8.364465 L 353.996059 8.364465 L 353.996059 31.101770 L 356.969399 31.101770 Z M 378.569838 10.609045 L 387.154629 10.609045 L 387.154629 8.364465 L 375.611074 8.364465 L 375.611074 29.585950 L 378.569838 29.585950 Z M 397.867397 8.364465 Q 397.677920 9.078650 397.568606 9.639795 Q 397.459292 10.200940 397.430141 10.754797 Q 396.803408 9.588782 395.775857 8.823584 Q 394.748305 8.058386 393.436538 8.058386 Q 391.323135 8.058386 390.193557 9.311853 Q 389.063979 10.565320 389.063979 12.737024 Q 389.063979 14.967029 390.630813 16.249646 Q 392.197646 17.532263 394.996084 17.532263 L 397.415566 17.532263 L 397.415566 19.150110 Q 397.415566 20.593054 396.774258 21.401978 Q 396.132949 22.210901 394.937783 22.210901 Q 393.859219 22.210901 393.225198 21.511292 Q 392.591177 20.811682 392.591177 19.718543 L 389.763589 19.703967 L 389.734438 19.791418 Q 389.646987 21.627893 391.162807 23.027112 Q 392.678628 24.426331 395.127261 24.426331 Q 397.473867 24.426331 398.931387 23.048975 Q 400.388906 21.671619 400.388906 19.120960 L 400.388906 11.804211 Q 400.388906 10.900549 400.505508 10.047900 Q 400.622109 9.195251 400.869888 8.364465 Z M 394.048696 10.332117 Q 395.258437 10.332117 396.191250 11.082739 Q 397.124062 11.833362 397.415566 12.897351 L 397.415566 15.695789 L 394.952358 15.695789 Q 393.582290 15.695789 392.809804 14.828564 Q 392.037319 13.961340 392.037319 12.737024 Q 392.037319 11.643884 392.562026 10.988000 Q 393.086733 10.332117 394.048696 10.332117 Z M 408.259512 13.801013 L 408.492715 12.737024 L 408.580166 12.737024 L 411.670107 24.134827 L 414.920376 24.134827 L 409.279775 5.915832 Q 408.740493 4.297986 407.778530 3.146545 Q 406.816567 1.995105 405.009243 1.995105 Q 404.644863 1.995105 404.222183 2.075268 Q 403.799502 2.155432 403.391396 2.257458 L 403.726626 4.443738 Q 403.872378 4.414587 404.156594 4.385437 Q 404.440810 4.356286 404.601138 4.356286 Q 405.475649 4.356286 405.985781 5.092334 Q 406.495913 5.828381 406.787417 6.834070 L 407.326699 8.466492 L 402.356558 24.134827 L 405.592251 24.134827 Z M 422.630654 8.058386 Q 419.686465 8.058386 418.017605 10.215515 Q 416.348745 12.372644 416.348745 15.826965 L 416.348745 16.512000 Q 416.348745 19.980896 418.010317 22.203613 Q 419.671890 24.426331 422.353726 24.426331 Q 425.050137 24.426331 426.456643 22.516980 Q 427.863150 20.607629 427.863150 17.386511 L 427.863150 15.724939 L 419.307510 15.724939 Q 419.307510 13.305456 420.174734 11.804211 Q 421.041958 10.302966 422.834707 10.302966 Q 424.073599 10.302966 424.991836 10.689209 Q 425.910073 11.075452 426.682559 11.818787 L 427.644522 9.982312 Q 426.857461 9.166101 425.567556 8.612244 Q 424.277652 8.058386 422.630654 8.058386 Z M 422.353726 22.152600 Q 421.071109 22.152600 420.313198 20.964722 Q 419.555288 19.776843 419.365811 17.823767 L 424.948111 17.823767 L 424.948111 18.158997 Q 424.948111 19.937170 424.314090 21.044885 Q 423.680069 22.152600 422.353726 22.152600 Z M 437.293301 21.671619 L 436.010684 21.744495 Q 435.077871 21.744495 434.458426 21.183350 Q 433.838980 20.622205 433.503750 19.601941 L 433.503750 8.364465 L 430.530410 8.364465 L 430.530410 24.134827 L 433.255972 24.134827 L 433.460025 21.802795 Q 433.984732 23.041687 434.800943 23.734009 Q 435.617154 24.426331 436.681143 24.426331 Q 436.958072 24.426331 437.198562 24.375317 Q 437.439053 24.324304 437.628531 24.251428 Z" transform="scale(1.000000,1.000000) translate(343.000000,114.000000)" fill="#808080" opacity="1.000000"></path>
    </g>
</svg>