<?xml version="1.0" encoding="UTF-8" standalone="yes"?>
<!DOCTYPE svg PUBLIC "-//W3C//DTD SVG 1.1//EN" "http://www.w3.org/Graphics/SVG/1.1/DTD/svg11.dtd">

<svg width="660" height="180" viewBox="0 0 660 180" xmlns="http://www.w3.org/2000/svg" xmlns:xlink="http://www.w3.org/1999/xlink" version="1.1" baseProfile="full">
    <g transform="scale(1,-1) translate(0,-180)">
        <path d="M 36.100879 76.259700 L 36.100879 17.958919 L 46.413379 17.958919 L 46.413379 2.958919 L 1.296192 2.958919 L 1.296192 17.958919 L 13.073536 17.958919 L 13.073536 76.259700 L 1.296192 76.259700 L 1.296192 91.259700 L 47.292286 91.259700 L 47.292286 76.259700 Z M 87.487598 76.259700 L 62.526661 52.060481 L 91.530567 17.958919 L 100.671192 17.958919 L 100.671192 2.958919 L 53.268848 2.958919 L 53.268848 17.958919 L 63.581348 17.958919 L 36.862598 49.306575 L 65.632129 76.259700 L 55.085254 76.259700 L 55.085254 91.259700 L 98.268848 91.259700 L 98.268848 76.259700 Z M 141.061817 76.259700 L 141.061817 35.009700 Q 141.061817 27.685481 142.438770 23.730403 Q 143.815723 19.775325 146.276661 18.281184 Q 148.737598 16.787044 152.721973 16.787044 Q 158.815723 16.787044 161.774707 20.976497 Q 164.733692 25.165950 164.733692 35.712825 L 164.733692 76.259700 L 156.179004 76.259700 L 156.179004 91.259700 L 191.452442 91.259700 L 191.452442 76.259700 L 180.671192 76.259700 L 180.671192 31.494075 Q 180.671192 16.025325 173.669239 8.964778 Q 166.667286 1.904231 150.319629 1.904231 Q 138.659473 1.904231 131.716114 5.009700 Q 124.772754 8.115169 121.462207 15.439387 Q 118.151661 22.763606 118.151661 35.478450 L 118.151661 76.259700 L 107.721973 76.259700 L 107.721973 91.259700 L 149.850879 91.259700 L 149.850879 76.259700 Z M 236.530567 76.259700 L 236.530567 17.958919 L 250.124317 17.958919 L 250.124317 2.958919 L 200.202442 2.958919 L 200.202442 17.958919 L 213.503223 17.958919 L 213.503223 76.259700 L 200.202442 76.259700 L 200.202442 91.259700 L 250.124317 91.259700 L 250.124317 76.259700 Z M 341.257129 67.177669 Q 341.257129 59.091731 337.477832 53.583919 Q 333.698536 48.076106 326.022754 44.619075 L 340.261036 17.958919 L 351.686817 17.958919 L 351.686817 2.958919 L 324.792286 2.958919 L 304.870411 41.572200 L 294.792286 41.572200 L 294.792286 17.958919 L 305.866504 17.958919 L 305.866504 2.958919 L 259.636036 2.958919 L 259.636036 17.958919 L 271.764942 17.958919 L 271.764942 76.259700 L 259.636036 76.259700 L 259.636036 91.259700 L 310.026661 91.259700 Q 324.675098 91.259700 332.966114 85.078059 Q 341.257129 78.896419 341.257129 67.177669 Z M 317.233692 66.181575 Q 317.233692 71.220637 314.011036 73.740169 Q 310.788379 76.259700 305.221973 76.259700 L 294.792286 76.259700 L 294.792286 55.751887 L 303.229786 55.751887 Q 317.233692 55.751887 317.233692 66.181575 Z M 394.596973 76.259700 L 394.596973 17.958919 L 420.671192 17.958919 L 420.671192 45.205012 L 437.956348 45.205012 L 437.956348 2.958919 L 358.971973 2.958919 L 358.971973 17.958919 L 371.569629 17.958919 L 371.569629 76.259700 L 358.971973 76.259700 L 358.971973 91.259700 L 407.546192 91.259700 L 407.546192 76.259700 Z" transform="scale(1.000000,1.000000) translate(202.000000,12.000000)" fill="#313131" opacity="1.000000"></path>
        <path d="M 79.810596 2.096203 L 79.067437 3.560896 L 77.319624 6.380602 L 75.240549 9.040164 L 72.851197 11.523320 L 70.172299 13.813888 L 67.224763 15.895857 L 64.029512 17.752668 L 60.607272 19.368435 L 56.979087 20.726721 L 53.165676 21.811400 L 49.187896 22.606277 L 45.066732 23.095030 L 40.822967 23.261606 L 36.579200 23.095030 L 32.458034 22.606277 L 28.480319 21.811400 L 24.666910 20.726721 L 21.038657 19.368435 L 17.616480 17.752668 L 14.421167 15.895857 L 11.473696 13.813888 L 8.794796 11.523320 L 6.405383 9.040164 L 4.326372 6.380602 L 2.578554 3.560896 L 1.835402 2.096203 L 1.793507 2.000000 L 79.852490 2.000000 Z" transform="scale(1.000000,1.000000) translate(33.000000,13.000000)" fill="#011520" opacity="1.000000"></path>
        <path d="M 36.112846 86.605186 L 27.404629 96.983225 L 1.111125 74.920320 L 2.819065 73.882708 L 4.495251 72.629315 L 6.041406 71.224031 L 7.446690 69.677876 L 8.700083 68.001690 L 9.790680 66.206557 L 10.369842 65.004258 Z M 41.575478 10.342530 L 10.639042 47.211140 L 9.790680 45.450027 L 8.700083 43.654836 L 7.446690 41.978650 L 6.041406 40.432493 L 4.495251 39.027209 L 2.819065 37.773816 L 1.529951 36.990660 L 31.197434 1.634310 Z" transform="scale(1.000000,1.000000) translate(42.000000,19.000000)" fill="#011520" opacity="1.000000"></path>
        <path d="M 16.758727 2.054816 L 18.103910 2.260071 L 19.402220 2.593909 L 20.646918 3.049465 L 21.831198 3.619996 L 22.948193 4.298572 L 23.991100 5.078453 L 24.953180 5.952835 L 25.827560 6.914913 L 26.607441 7.957883 L 27.286082 9.074879 L 27.856549 10.259096 L 28.312104 11.503794 L 28.645944 12.802104 L 28.851261 14.147288 L 28.921191 15.532476 L 28.851261 16.917601 L 28.645944 18.262783 L 28.312104 19.561095 L 27.856549 20.805792 L 27.286082 21.990009 L 26.607441 23.107004 L 25.827560 24.149976 L 24.953180 25.112054 L 23.991100 25.986434 L 22.948193 26.766317 L 21.831198 27.444893 L 20.646918 28.015422 L 19.402220 28.470979 L 18.103910 28.804818 L 16.758727 29.010072 L 15.373601 29.080067 L 13.988413 29.010072 L 12.643293 28.804818 L 11.344920 28.470979 L 10.100222 28.015422 L 8.916005 27.444893 L 7.799009 26.766317 L 6.756039 25.986434 L 5.794024 25.112054 L 4.919579 24.149976 L 4.139698 23.107004 L 3.461122 21.990009 L 2.890654 20.805792 L 2.435098 19.561095 L 2.101260 18.262783 L 1.895942 16.917601 L 1.826011 15.532476 L 1.895942 14.147288 L 2.101260 12.802104 L 2.435098 11.503794 L 2.890654 10.259096 L 3.461122 9.074879 L 4.139698 7.957883 L 4.919579 6.914913 L 5.794024 5.952835 L 6.756039 5.078453 L 7.799009 4.298572 L 8.916005 3.619996 L 10.100222 3.049465 L 11.344920 2.593909 L 12.643293 2.260071 L 13.988413 2.054816 L 15.373601 1.984885 Z" transform="scale(1.000000,1.000000) translate(17.000000,59.000000)" fill="#011520" opacity="1.000000"></path>
        <path d="M 20.151076 1.490778 L 21.879992 1.658359 L 23.590956 1.992386 L 25.271175 2.493365 L 26.907798 3.161987 L 28.487908 3.998821 L 29.998783 5.004432 L 31.427566 6.179514 L 32.730728 7.492504 L 33.872862 8.903019 L 34.853399 10.398268 L 35.671648 11.965401 L 36.327164 13.591566 L 36.819198 15.263909 L 37.147302 16.969643 L 37.310727 18.695978 L 37.308963 20.429999 L 37.141381 22.158916 L 36.807355 23.869880 L 36.306376 25.550099 L 35.637752 27.186659 L 34.800919 28.766832 L 33.795308 30.277707 L 32.620226 31.706490 L 31.307237 33.009590 L 29.896723 34.151723 L 28.401472 35.132260 L 26.834339 35.950570 L 25.208238 36.606026 L 23.535830 37.098122 L 21.830098 37.426164 L 21.029551 37.501954 L 20.647203 33.654525 L 21.279662 33.594674 L 22.619996 33.336877 L 23.934119 32.950243 L 25.211956 32.435153 L 26.443421 31.792109 L 27.618316 31.021678 L 28.726743 30.124174 L 29.758499 29.100166 L 30.681831 27.977439 L 31.472046 26.790196 L 32.129579 25.548525 L 32.655001 24.262498 L 33.048691 22.942263 L 33.311150 21.597774 L 33.442820 20.239235 L 33.444207 18.876600 L 33.315749 17.520140 L 33.058015 16.179746 L 32.671319 14.865621 L 32.156229 13.587786 L 31.513248 12.356382 L 30.742754 11.181425 L 29.845250 10.072997 L 28.821307 9.041304 L 27.698578 8.117971 L 26.511337 7.327695 L 25.269663 6.670161 L 23.983636 6.144738 L 22.663339 5.751049 L 21.318850 5.488652 L 19.960311 5.356919 L 18.597740 5.355533 L 17.241216 5.483991 L 15.900822 5.741788 L 14.586697 6.128421 L 13.308862 6.643512 L 12.077458 7.286493 L 10.902501 8.056987 L 9.794136 8.954489 L 8.762380 9.978497 L 7.839047 11.101226 L 7.048834 12.288467 L 6.391237 13.530077 L 5.865877 14.816103 L 5.472188 16.136401 L 5.209728 17.480891 L 5.078058 18.839430 L 5.077113 19.760368 L 1.210783 19.738444 L 1.211917 18.648665 L 1.379498 16.919747 L 1.713462 15.208784 L 2.214504 13.528566 L 2.883126 11.892006 L 3.719897 10.311831 L 4.725571 8.800958 L 5.900590 7.372173 L 7.213580 6.069011 L 8.624158 4.926879 L 10.119407 3.946405 L 11.686477 3.128093 L 13.312642 2.472575 L 14.985049 1.980542 L 16.690782 1.652500 L 18.417054 1.489014 Z" transform="scale(1.000000,1.000000) translate(115.000000,75.000000)" fill="#011520" opacity="1.000000"></path>
        <path d="M 17.331664 14.272650 L 16.361522 15.337859 L 15.910502 15.668673 L 15.385836 15.796438 L 14.851593 15.718192 L 14.371719 15.430848 L 2.410162 4.537146 L 2.079347 4.086190 L 1.951583 3.561523 L 2.029892 3.027217 L 2.317237 2.547344 L 3.287379 1.482071 Z" transform="scale(1.000000,1.000000) translate(110.000000,102.000000)" fill="#011520" opacity="1.000000"></path>
        <path d="M 27.726366 1.950567 L 28.675905 2.140576 L 29.532900 2.506104 L 30.289282 3.053514 L 30.904858 3.755589 L 31.348632 4.574782 L 31.626337 5.502462 L 31.743643 6.529935 L 31.706285 7.648631 L 31.519868 8.849859 L 31.190187 10.124922 L 30.722911 11.465192 L 30.123653 12.861972 L 29.398204 14.306631 L 27.591417 17.305006 L 25.348102 20.391015 L 22.713806 23.495418 L 19.868586 26.407672 L 17.005158 28.929007 L 14.188350 31.007452 L 12.817589 31.864445 L 11.482738 32.591343 L 10.191862 33.181529 L 8.953149 33.628706 L 7.774539 33.926257 L 6.664221 34.067819 L 5.630260 34.046839 L 4.680719 33.856831 L 3.823726 33.491366 L 3.067281 32.943893 L 2.451704 32.241816 L 2.007930 31.422625 L 1.730225 30.494945 L 1.612918 29.467472 L 1.650277 28.348775 L 1.836695 27.147548 L 2.166376 25.872485 L 2.633713 24.532279 L 3.232909 23.135435 L 3.958357 21.690775 L 5.765144 18.692399 L 8.008459 15.606392 L 10.642755 12.501987 L 13.487975 9.589735 L 16.351404 7.068461 L 19.168274 4.989955 L 20.538973 4.132961 L 21.873824 3.406126 L 23.164701 2.815876 L 24.403475 2.368700 L 25.582022 2.071149 L 26.692341 1.929588 Z M 26.149026 5.884685 L 24.775114 6.342131 L 23.059426 7.172349 L 20.767475 8.608630 L 18.365146 10.443641 L 15.921238 12.626980 L 13.504545 15.108311 L 11.259340 17.745883 L 9.313385 20.382636 L 7.710405 22.945615 L 6.494121 25.361489 L 5.827388 27.147171 L 5.500101 28.557684 L 5.464632 29.550255 L 5.541556 29.876470 L 5.673604 30.082104 L 5.890703 30.194433 L 6.222589 30.240549 L 7.207599 30.112721 L 8.581447 29.655338 L 10.297135 28.825058 L 12.589151 27.388776 L 14.991415 25.553828 L 17.435324 23.370489 L 19.852017 20.889095 L 22.097223 18.251586 L 24.043176 15.614771 L 25.646156 13.051854 L 26.862505 10.635918 L 27.529175 8.850300 L 27.856460 7.439722 L 27.891929 6.447152 L 27.815005 6.120936 L 27.682958 5.915303 L 27.465921 5.802974 L 27.133974 5.756858 Z" transform="scale(1.000000,1.000000) translate(116.000000,78.000000)" fill="#011520" opacity="1.000000"></path>
        <path d="M 77.173989 60.348671 L 76.155021 61.420934 L 74.636023 62.873913 L 73.049042 64.253117 L 71.396797 65.555772 L 69.681991 66.779172 L 67.907396 67.920553 L 66.075790 68.977195 L 64.189938 69.946204 L 62.252550 70.824994 L 60.266342 71.610671 L 58.234141 72.300526 L 56.158593 72.891846 L 54.042537 73.381863 L 51.888681 73.767742 L 49.699800 74.046772 L 47.478658 74.216241 L 45.227913 74.273314 L 42.977162 74.216241 L 40.756022 74.046772 L 38.567137 73.767742 L 36.413284 73.381863 L 34.297227 72.891846 L 32.221745 72.300526 L 30.189480 71.610671 L 28.203332 70.824994 L 26.265882 69.946204 L 24.380032 68.977195 L 22.548422 67.920553 L 20.773829 66.779172 L 19.059087 65.555772 L 17.406777 64.253117 L 15.819798 62.873913 L 14.300798 61.420934 L 12.852610 59.896956 L 11.477942 58.304813 L 10.179506 56.647084 L 8.960071 54.926673 L 7.822411 53.146281 L 6.769298 51.308692 L 5.803377 49.416663 L 4.927546 47.472916 L 4.144389 45.480215 L 3.456740 43.441337 L 2.867372 41.358983 L 2.378994 39.236000 L 1.994377 37.075089 L 1.716231 34.879085 L 1.547327 32.650574 L 1.490437 30.392518 L 1.547327 28.134399 L 1.716231 25.905951 L 1.994377 23.709884 L 2.378994 21.548973 L 2.867372 19.425987 L 3.456740 17.343701 L 4.144389 15.304759 L 4.927546 13.312059 L 5.803377 11.368310 L 6.769298 9.476284 L 7.822411 7.638689 L 8.960071 5.858300 L 10.179506 4.137888 L 11.477942 2.480223 L 12.421624 1.387230 Z M 54.718909 50.066763 L 52.428283 52.148611 L 49.945059 54.005542 L 47.285565 55.621252 L 44.465922 56.979538 L 41.502322 58.064217 L 38.411085 58.859027 L 35.208339 59.347847 L 31.910334 59.514356 L 28.612331 59.347847 L 25.409582 58.859027 L 23.705802 58.420925 L 23.925295 58.620444 L 26.408516 60.477380 L 29.068010 62.093023 L 31.887654 63.451371 L 34.851253 64.536050 L 37.942490 65.330860 L 41.145239 65.819680 L 44.443240 65.986189 L 47.741245 65.819680 L 50.943993 65.330860 L 54.035231 64.536050 L 56.998768 63.451371 L 59.818406 62.093023 L 62.477968 60.477380 L 64.961124 58.620444 L 65.362057 58.256051 L 55.465841 49.244925 Z" transform="scale(1.000000,1.000000) translate(84.000000,66.000000)" fill="#011520" opacity="1.000000"></path>
        <path d="M 33.464599 1.969988 L 34.075451 2.094350 L 34.660092 2.339610 L 35.200194 2.707217 L 63.096298 26.114799 L 60.502322 27.064214 L 57.411085 27.859027 L 54.208336 28.347847 L 50.910336 28.514356 L 47.612331 28.347847 L 44.409582 27.859027 L 42.705802 27.420922 L 42.925292 27.620444 L 45.408516 29.477380 L 48.068010 31.093023 L 50.887654 32.451374 L 53.851253 33.536050 L 56.942490 34.330862 L 60.145239 34.819680 L 62.685031 34.947888 L 41.690679 59.968025 L 40.123921 61.654545 L 38.427764 63.145824 L 36.618144 64.440418 L 34.710996 65.537002 L 32.722202 66.434067 L 30.667698 67.130342 L 28.563362 67.624330 L 26.425195 67.914698 L 24.269134 68.000000 L 22.110996 67.878914 L 19.966842 67.550050 L 17.852424 67.011904 L 15.783872 66.263208 L 13.776933 65.302515 L 11.847612 64.128440 L 10.011782 62.739536 L 9.987086 62.718810 L 8.300504 61.152055 L 6.809223 59.455960 L 5.514630 57.646340 L 4.418109 55.739128 L 3.520984 53.750334 L 2.824768 51.695829 L 2.330782 49.591558 L 2.040414 47.453387 L 1.955048 45.297267 L 2.076135 43.139187 L 2.405059 40.994974 L 2.943145 38.880618 L 3.691841 36.812005 L 4.652596 34.805066 L 5.826670 32.875743 L 7.215512 31.039913 L 30.655855 3.104812 L 31.123947 2.648942 L 31.657120 2.305968 L 32.237099 2.077403 L 32.845682 1.964885 Z M 32.253228 51.063625 L 30.686472 52.750202 L 28.990315 54.241485 L 27.180695 55.536080 L 25.273547 56.632601 L 23.284754 57.529724 L 21.230249 58.225942 L 19.125913 58.719925 L 16.987808 59.010293 L 14.831685 59.095662 L 12.673546 58.974575 L 10.872555 58.698319 L 11.701451 59.202699 L 13.708390 60.163455 L 15.777005 60.912151 L 17.891422 61.450234 L 20.035575 61.779160 L 22.193714 61.900246 L 24.349775 61.814882 L 26.487942 61.524514 L 28.592278 61.030526 L 30.646782 60.334308 L 32.635576 59.437186 L 34.542724 58.340664 L 36.352344 57.046070 L 38.048501 55.554792 L 39.615257 53.868209 L 44.811212 47.675906 L 39.303783 42.661080 Z" transform="scale(1.000000,1.000000) translate(65.000000,97.000000)" fill="#011520" opacity="1.000000"></path>
    </g>
</svg>