<?xml version="1.0" encoding="UTF-8" standalone="yes"?>
<!DOCTYPE svg PUBLIC "-//W3C//DTD SVG 1.1//EN" "http://www.w3.org/Graphics/SVG/1.1/DTD/svg11.dtd">

<svg width="660" height="180" viewBox="0 0 660 180" xmlns="http://www.w3.org/2000/svg" xmlns:xlink="http://www.w3.org/1999/xlink" version="1.1" baseProfile="full">
    <g transform="scale(1,-1) translate(0,-180)">
        <path d="M 36.100891 76.259701 L 36.100891 17.958920 L 46.413391 17.958920 L 46.413391 2.958920 L 1.296204 2.958920 L 1.296204 17.958920 L 13.073547 17.958920 L 13.073547 76.259701 L 1.296204 76.259701 L 1.296204 91.259701 L 47.292297 91.259701 L 47.292297 76.259701 Z M 87.487610 76.259701 L 62.526672 52.060482 L 91.530579 17.958920 L 100.671204 17.958920 L 100.671204 2.958920 L 53.268860 2.958920 L 53.268860 17.958920 L 63.581360 17.958920 L 36.862610 49.306576 L 65.632141 76.259701 L 55.085266 76.259701 L 55.085266 91.259701 L 98.268860 91.259701 L 98.268860 76.259701 Z M 141.061829 76.259701 L 141.061829 35.009701 Q 141.061829 27.685482 142.438782 23.730404 Q 143.815735 19.775326 146.276672 18.281185 Q 148.737610 16.787045 152.721985 16.787045 Q 158.815735 16.787045 161.774719 20.976498 Q 164.733704 25.165951 164.733704 35.712826 L 164.733704 76.259701 L 156.179016 76.259701 L 156.179016 91.259701 L 191.452454 91.259701 L 191.452454 76.259701 L 180.671204 76.259701 L 180.671204 31.494076 Q 180.671204 16.025326 173.669250 8.964779 Q 166.667297 1.904232 150.319641 1.904232 Q 138.659485 1.904232 131.716125 5.009701 Q 124.772766 8.115170 121.462219 15.439388 Q 118.151672 22.763607 118.151672 35.478451 L 118.151672 76.259701 L 107.721985 76.259701 L 107.721985 91.259701 L 149.850891 91.259701 L 149.850891 76.259701 Z M 236.530579 76.259701 L 236.530579 17.958920 L 250.124329 17.958920 L 250.124329 2.958920 L 200.202454 2.958920 L 200.202454 17.958920 L 213.503235 17.958920 L 213.503235 76.259701 L 200.202454 76.259701 L 200.202454 91.259701 L 250.124329 91.259701 L 250.124329 76.259701 Z M 341.257141 67.177670 Q 341.257141 59.091732 337.477844 53.583920 Q 333.698547 48.076107 326.022766 44.619076 L 340.261047 17.958920 L 351.686829 17.958920 L 351.686829 2.958920 L 324.792297 2.958920 L 304.870422 41.572201 L 294.792297 41.572201 L 294.792297 17.958920 L 305.866516 17.958920 L 305.866516 2.958920 L 259.636047 2.958920 L 259.636047 17.958920 L 271.764954 17.958920 L 271.764954 76.259701 L 259.636047 76.259701 L 259.636047 91.259701 L 310.026672 91.259701 Q 324.675110 91.259701 332.966125 85.078060 Q 341.257141 78.896420 341.257141 67.177670 Z M 317.233704 66.181576 Q 317.233704 71.220638 314.011047 73.740170 Q 310.788391 76.259701 305.221985 76.259701 L 294.792297 76.259701 L 294.792297 55.751888 L 303.229797 55.751888 Q 317.233704 55.751888 317.233704 66.181576 Z M 394.596985 76.259701 L 394.596985 17.958920 L 420.671204 17.958920 L 420.671204 45.205013 L 437.956360 45.205013 L 437.956360 2.958920 L 358.971985 2.958920 L 358.971985 17.958920 L 371.569641 17.958920 L 371.569641 76.259701 L 358.971985 76.259701 L 358.971985 91.259701 L 407.546204 91.259701 L 407.546204 76.259701 Z" transform="scale(1.000000,1.000000) translate(202.000000,12.000000)" fill="#011520" opacity="1.000000"></path>
        <path d="M 79.810597 1.096203 L 79.067438 2.560897 L 77.319625 5.380603 L 75.240550 8.040164 L 72.851198 10.523321 L 70.172299 12.813888 L 67.224764 14.895857 L 64.029513 16.752668 L 60.607273 18.368436 L 56.979087 19.726722 L 53.165677 20.811400 L 49.187897 21.606277 L 45.066732 22.095031 L 40.822968 22.261606 L 36.579201 22.095031 L 32.458034 21.606277 L 28.480319 20.811400 L 24.666911 19.726722 L 21.038658 18.368436 L 17.616481 16.752668 L 14.421167 14.895857 L 11.473696 12.813888 L 8.794797 10.523321 L 6.405384 8.040164 L 4.326373 5.380603 L 2.578555 2.560897 L 1.835403 1.096203 L 1.793508 1.000001 L 79.852491 1.000001 Z" transform="scale(1.000000,1.000000) translate(33.000000,14.000000)" fill="#011520" opacity="1.000000"></path>
        <path d="M 36.112846 86.605187 L 27.404629 96.983225 L 1.111125 74.920321 L 2.819066 73.882708 L 4.495251 72.629315 L 6.041406 71.224031 L 7.446690 69.677876 L 8.700083 68.001691 L 9.790681 66.206557 L 10.369843 65.004258 Z M 41.575478 10.342530 L 10.639043 47.211140 L 9.790681 45.450028 L 8.700083 43.654836 L 7.446690 41.978651 L 6.041406 40.432494 L 4.495251 39.027209 L 2.819066 37.773817 L 1.529952 36.990660 L 31.197434 1.634310 Z" transform="scale(1.000000,1.000000) translate(42.000000,19.000000)" fill="#011520" opacity="1.000000"></path>
        <path d="M 16.758726 2.054814 L 18.103909 2.260069 L 19.402219 2.593908 L 20.646917 3.049463 L 21.831197 3.619994 L 22.948192 4.298571 L 23.991099 5.078452 L 24.953180 5.952833 L 25.827560 6.914911 L 26.607441 7.957882 L 27.286081 9.074877 L 27.856548 10.259094 L 28.312103 11.503793 L 28.645944 12.802103 L 28.851260 14.147286 L 28.921190 15.532474 L 28.851260 16.917600 L 28.645944 18.262782 L 28.312103 19.561093 L 27.856548 20.805791 L 27.286081 21.990008 L 26.607441 23.107003 L 25.827560 24.149975 L 24.953180 25.112052 L 23.991099 25.986432 L 22.948192 26.766316 L 21.831197 27.444891 L 20.646917 28.015421 L 19.402219 28.470978 L 18.103909 28.804816 L 16.758726 29.010070 L 15.373600 29.080066 L 13.988412 29.010070 L 12.643292 28.804816 L 11.344919 28.470978 L 10.100221 28.015421 L 8.916004 27.444891 L 7.799008 26.766316 L 6.756038 25.986432 L 5.794023 25.112052 L 4.919578 24.149975 L 4.139697 23.107003 L 3.461121 21.990008 L 2.890653 20.805791 L 2.435097 19.561093 L 2.101259 18.262782 L 1.895941 16.917600 L 1.826010 15.532474 L 1.895941 14.147286 L 2.101259 12.802103 L 2.435097 11.503793 L 2.890653 10.259094 L 3.461121 9.074877 L 4.139697 7.957882 L 4.919578 6.914911 L 5.794023 5.952833 L 6.756038 5.078452 L 7.799008 4.298571 L 8.916004 3.619994 L 10.100221 3.049463 L 11.344919 2.593908 L 12.643292 2.260069 L 13.988412 2.054814 L 15.373600 1.984884 Z" transform="scale(1.000000,1.000000) translate(17.000000,59.000000)" fill="#011520" opacity="1.000000"></path>
        <path d="M 20.151074 1.490781 L 21.879990 1.658361 L 23.590953 1.992389 L 25.271172 2.493368 L 26.907795 3.161990 L 28.487906 3.998824 L 29.998780 5.004435 L 31.427564 6.179517 L 32.730726 7.492507 L 33.872859 8.903021 L 34.853396 10.398271 L 35.671645 11.965404 L 36.327162 13.591569 L 36.819196 15.263912 L 37.147300 16.969646 L 37.310725 18.695981 L 37.308961 20.430002 L 37.141378 22.158919 L 36.807352 23.869883 L 36.306374 25.550101 L 35.637750 27.186662 L 34.800916 28.766835 L 33.795305 30.277710 L 32.620223 31.706493 L 31.307234 33.009593 L 29.896720 34.151726 L 28.401470 35.132263 L 26.834337 35.950572 L 25.208235 36.606029 L 23.535827 37.098125 L 21.830095 37.426167 L 21.029549 37.501956 L 20.647200 33.654527 L 21.279660 33.594676 L 22.619993 33.336880 L 23.934117 32.950246 L 25.211953 32.435155 L 26.443418 31.792112 L 27.618313 31.021681 L 28.726740 30.124177 L 29.758496 29.100169 L 30.681828 27.977442 L 31.472043 26.790199 L 32.129576 25.548527 L 32.654999 24.262501 L 33.048688 22.942266 L 33.311147 21.597777 L 33.442818 20.239237 L 33.444204 18.876603 L 33.315747 17.520143 L 33.058013 16.179748 L 32.671317 14.865624 L 32.156226 13.587789 L 31.513245 12.356385 L 30.742751 11.181427 L 29.845247 10.073000 L 28.821304 9.041307 L 27.698575 8.117974 L 26.511335 7.327698 L 25.269660 6.670164 L 23.983634 6.144741 L 22.663336 5.751052 L 21.318847 5.488655 L 19.960308 5.356922 L 18.597737 5.355536 L 17.241214 5.483993 L 15.900819 5.741791 L 14.586694 6.128424 L 13.308859 6.643514 L 12.077455 7.286496 L 10.902498 8.056990 L 9.794134 8.954492 L 8.762377 9.978500 L 7.839045 11.101229 L 7.048831 12.288469 L 6.391234 13.530080 L 5.865874 14.816106 L 5.472185 16.136404 L 5.209726 17.480894 L 5.078055 18.839433 L 5.077110 19.760371 L 1.210780 19.738447 L 1.211914 18.648668 L 1.379495 16.919749 L 1.713460 15.208787 L 2.214502 13.528568 L 2.883124 11.892009 L 3.719894 10.311834 L 4.725568 8.800960 L 5.900588 7.372176 L 7.213577 6.069014 L 8.624155 4.926881 L 10.119404 3.946407 L 11.686474 3.128096 L 13.312640 2.472578 L 14.985046 1.980545 L 16.690779 1.652502 L 18.417052 1.489017 Z" transform="scale(1.000000,1.000000) translate(115.000000,75.000000)" fill="#011520" opacity="1.000000"></path>
        <path d="M 17.331667 14.272653 L 16.361525 15.337863 L 15.910505 15.668676 L 15.385839 15.796442 L 14.851596 15.718196 L 14.371722 15.430851 L 2.410165 4.537149 L 2.079350 4.086193 L 1.951586 3.561526 L 2.029895 3.027220 L 2.317240 2.547347 L 3.287382 1.482074 Z" transform="scale(1.000000,1.000000) translate(110.000000,102.000000)" fill="#011520" opacity="1.000000"></path>
        <path d="M 27.726368 1.950564 L 28.675908 2.140573 L 29.532903 2.506101 L 30.289284 3.053511 L 30.904861 3.755586 L 31.348634 4.574780 L 31.626340 5.502459 L 31.743646 6.529932 L 31.706287 7.648629 L 31.519870 8.849856 L 31.190189 10.124919 L 30.722914 11.465189 L 30.123656 12.861969 L 29.398206 14.306629 L 27.591419 17.305003 L 25.348105 20.391012 L 22.713809 23.495416 L 19.868589 26.407669 L 17.005160 28.929004 L 14.188352 31.007450 L 12.817591 31.864442 L 11.482741 32.591340 L 10.191864 33.181526 L 8.953152 33.628703 L 7.774542 33.926254 L 6.664223 34.067817 L 5.630262 34.046836 L 4.680721 33.856829 L 3.823728 33.491363 L 3.067283 32.943891 L 2.451707 32.241813 L 2.007932 31.422622 L 1.730227 30.494942 L 1.612920 29.467469 L 1.650280 28.348772 L 1.836698 27.147545 L 2.166378 25.872482 L 2.633715 24.532276 L 3.232911 23.135432 L 3.958360 21.690772 L 5.765146 18.692396 L 8.008462 15.606389 L 10.642757 12.501984 L 13.487978 9.589732 L 16.351406 7.068458 L 19.168276 4.989952 L 20.538975 4.132958 L 21.873827 3.406124 L 23.164703 2.815873 L 24.403477 2.368697 L 25.582025 2.071147 L 26.692343 1.929585 Z M 26.149029 5.884682 L 24.775117 6.342128 L 23.059428 7.172346 L 20.767477 8.608627 L 18.365149 10.443638 L 15.921240 12.626977 L 13.504547 15.108308 L 11.259342 17.745880 L 9.313388 20.382633 L 7.710407 22.945612 L 6.494123 25.361486 L 5.827390 27.147168 L 5.500103 28.557682 L 5.464634 29.550252 L 5.541558 29.876467 L 5.673606 30.082101 L 5.890706 30.194430 L 6.222592 30.240546 L 7.207601 30.112719 L 8.581450 29.655335 L 10.297138 28.825055 L 12.589153 27.388774 L 14.991418 25.553825 L 17.435326 23.370486 L 19.852019 20.889093 L 22.097225 18.251584 L 24.043179 15.614768 L 25.646158 13.051852 L 26.862507 10.635915 L 27.529177 8.850297 L 27.856462 7.439719 L 27.891932 6.447149 L 27.815008 6.120934 L 27.682960 5.915301 L 27.465923 5.802971 L 27.133976 5.756855 Z" transform="scale(1.000000,1.000000) translate(116.000000,78.000000)" fill="#011520" opacity="1.000000"></path>
        <path d="M 77.173985 60.348670 L 76.155017 61.420933 L 74.636020 62.873912 L 73.049039 64.253116 L 71.396794 65.555771 L 69.681988 66.779171 L 67.907392 67.920552 L 66.075787 68.977194 L 64.189935 69.946203 L 62.252547 70.824993 L 60.266339 71.610670 L 58.234137 72.300525 L 56.158590 72.891845 L 54.042533 73.381862 L 51.888678 73.767741 L 49.699797 74.046771 L 47.478655 74.216240 L 45.227909 74.273313 L 42.977159 74.216240 L 40.756019 74.046771 L 38.567133 73.767741 L 36.413280 73.381862 L 34.297223 72.891845 L 32.221741 72.300525 L 30.189477 71.610670 L 28.203329 70.824993 L 26.265879 69.946203 L 24.380029 68.977194 L 22.548418 67.920552 L 20.773826 66.779171 L 19.059083 65.555771 L 17.406774 64.253116 L 15.819795 62.873912 L 14.300795 61.420933 L 12.852606 59.896955 L 11.477938 58.304812 L 10.179502 56.647083 L 8.960068 54.926672 L 7.822407 53.146280 L 6.769294 51.308691 L 5.803373 49.416662 L 4.927542 47.472915 L 4.144386 45.480214 L 3.456737 43.441335 L 2.867369 41.358982 L 2.378990 39.235999 L 1.994373 37.075088 L 1.716227 34.879084 L 1.547323 32.650573 L 1.490434 30.392517 L 1.547323 28.134398 L 1.716227 25.905950 L 1.994373 23.709883 L 2.378990 21.548972 L 2.867369 19.425986 L 3.456737 17.343700 L 4.144386 15.304757 L 4.927542 13.312058 L 5.803373 11.368309 L 6.769294 9.476283 L 7.822407 7.638688 L 8.960068 5.858299 L 10.179502 4.137887 L 11.477938 2.480221 L 12.421620 1.387229 Z M 54.718905 50.066762 L 52.428280 52.148610 L 49.945056 54.005541 L 47.285562 55.621251 L 44.465918 56.979537 L 41.502319 58.064216 L 38.411082 58.859026 L 35.208335 59.347846 L 31.910330 59.514355 L 28.612327 59.347846 L 25.409578 58.859026 L 23.705798 58.420924 L 23.925291 58.620443 L 26.408513 60.477379 L 29.068007 62.093022 L 31.887650 63.451370 L 34.851250 64.536049 L 37.942487 65.330859 L 41.145236 65.819679 L 44.443236 65.986188 L 47.741241 65.819679 L 50.943990 65.330859 L 54.035227 64.536049 L 56.998764 63.451370 L 59.818403 62.093022 L 62.477964 60.477379 L 64.961121 58.620443 L 65.362054 58.256050 L 55.465837 49.244924 Z" transform="scale(1.000000,1.000000) translate(84.000000,66.000000)" fill="#011520" opacity="1.000000"></path>
        <path d="M 33.464601 1.969987 L 34.075452 2.094350 L 34.660094 2.339610 L 35.200196 2.707217 L 63.096300 26.114799 L 60.502324 27.064214 L 57.411087 27.859026 L 54.208338 28.347847 L 50.910338 28.514355 L 47.612332 28.347847 L 44.409584 27.859026 L 42.705803 27.420922 L 42.925294 27.620444 L 45.408518 29.477380 L 48.068012 31.093023 L 50.887655 32.451374 L 53.851255 33.536049 L 56.942492 34.330862 L 60.145241 34.819680 L 62.685033 34.947887 L 41.690680 59.968025 L 40.123923 61.654545 L 38.427766 63.145824 L 36.618145 64.440418 L 34.710998 65.537002 L 32.722204 66.434067 L 30.667700 67.130342 L 28.563364 67.624330 L 26.425197 67.914698 L 24.269135 68.000000 L 22.110997 67.878914 L 19.966844 67.550050 L 17.852426 67.011904 L 15.783873 66.263208 L 13.776935 65.302515 L 11.847614 64.128440 L 10.011784 62.739536 L 9.987087 62.718810 L 8.300506 61.152055 L 6.809225 59.455960 L 5.514631 57.646340 L 4.418110 55.739127 L 3.520986 53.750334 L 2.824769 51.695829 L 2.330784 49.591558 L 2.040415 47.453387 L 1.955050 45.297267 L 2.076136 43.139187 L 2.405061 40.994973 L 2.943147 38.880618 L 3.691843 36.812004 L 4.652598 34.805066 L 5.826672 32.875743 L 7.215514 31.039913 L 30.655856 3.104812 L 31.123949 2.648942 L 31.657122 2.305968 L 32.237101 2.077403 L 32.845684 1.964884 Z M 32.253229 51.063625 L 30.686474 52.750202 L 28.990317 54.241485 L 27.180696 55.536080 L 25.273549 56.632601 L 23.284755 57.529724 L 21.230251 58.225942 L 19.125915 58.719925 L 16.987809 59.010293 L 14.831686 59.095662 L 12.673547 58.974575 L 10.872557 58.698319 L 11.701453 59.202699 L 13.708391 60.163455 L 15.777006 60.912151 L 17.891424 61.450234 L 20.035576 61.779160 L 22.193715 61.900246 L 24.349777 61.814882 L 26.487944 61.524514 L 28.592280 61.030526 L 30.646784 60.334308 L 32.635578 59.437186 L 34.542725 58.340664 L 36.352346 57.046070 L 38.048503 55.554792 L 39.615258 53.868209 L 44.811213 47.675906 L 39.303785 42.661080 Z" transform="scale(1.000000,1.000000) translate(65.000000,97.000000)" fill="#011520" opacity="1.000000"></path>
    </g>
</svg>