<svg width="1349" height="1098" viewBox="0 0 1349 1098" fill="none" xmlns="http://www.w3.org/2000/svg">
<path d="M213.751 924.06C193.189 909.336 187.481 899.282 170.652 881.822L119.794 937.852C137.314 959.388 148.837 969.779 170.652 986.986L213.751 924.06Z" fill="#336790"/>
<path d="M1036.09 31.8943C1012.92 23.0932 998.981 18.6792 971.438 12.0684L957.646 84.476C978.352 88.6663 990.329 92.6305 1011.95 100.854L1036.09 31.8943Z" fill="#336790"/>
<path d="M947.308 81.8897C925.691 77.5768 913.716 75.7334 893.002 74.9938L894.726 1.72412C920.807 3.17454 935.541 5.44474 961.962 10.3441L947.308 81.8897Z" fill="#336790"/>
<path d="M882.656 74.9935C856.463 73.6788 840.568 73.314 810.249 73.2695V0.861816C842.204 0.878175 859.937 0.932467 885.242 2.58581L882.656 74.9935Z" fill="#336790"/>
<path d="M1112.81 771.487C1096.78 783.035 1087.26 789.49 1067.13 800.795L1098.16 868.893C1125.23 855.818 1137.41 846.15 1158.5 831.827L1112.81 771.487Z" fill="#336790"/>
<path d="M1203.32 680.115C1191.2 696.348 1182.61 705.22 1166.25 724.077L1226.59 772.349C1242.93 754.404 1251.82 743.492 1267.11 721.491L1203.32 680.115Z" fill="#336790"/>
<path d="M555.104 1097.32V1024.91H617.168V1097.32H555.104Z" fill="#336790"/>
<path d="M543.029 1024.05H479.242V1096.46H543.029V1024.05Z" fill="#336790"/>
<path d="M469.768 1023.19C445.826 1023.52 429.218 1021.63 406.842 1016.29C404.486 1044.57 403.165 1061.29 400.808 1089.56C424.489 1094.62 442.075 1097.77 469.768 1096.46V1023.19Z" fill="#336790"/>
<path d="M397.357 1014.57C397.357 1014.57 360.562 1004.73 340.466 998.192L326.674 1071.46C358.198 1083.03 373.509 1086.56 391.324 1086.98L397.357 1014.57Z" fill="#336790"/>
<path d="M331.85 994.743C311.507 986.896 300.052 982.403 277.544 969.745L249.96 1038.7C275.594 1052.64 290.135 1058.54 316.334 1067.15L331.85 994.743Z" fill="#336790"/>
<path d="M222.361 930.956C239.747 945.356 250.342 952.174 269.771 963.711L242.187 1034.4C217.201 1020.53 203.434 1011.28 179.261 993.019L222.361 930.956Z" fill="#336790"/>
<path d="M112.9 930.093L163.758 873.202L144.794 849.066L127.554 819.758L68.0767 869.754L86.1786 900.785L112.9 930.093Z" fill="#336790"/>
<path d="M98.2412 755.971C105.723 779.074 110.876 791.068 121.515 811.138L63.7614 861.124C46.7096 834.585 39.118 819.177 30.1436 790.44L98.2412 755.971Z" fill="#336790"/>
<path d="M94.7945 748.213C86.2524 720.573 82.6067 705.453 79.2786 679.253L5.14697 701.665C8.7187 731.537 12.8011 749.108 24.9729 782.692L94.7945 748.213Z" fill="#336790"/>
<path d="M79.2744 609.43C77.288 633.109 77.9083 645.991 79.2744 668.907L4.28078 691.319C-0.172531 662.398 -1.21039 645.44 1.69479 612.878L79.2744 609.43Z" fill="#336790"/>
<path d="M91.3476 534.438C87.0376 547.368 79.2796 574.952 79.2796 598.225L2.56201 602.535C3.50466 573.934 3.84676 558.871 12.906 530.99L91.3476 534.438Z" fill="#336790"/>
<path d="M117.209 468.064C106.398 488.94 101.504 501.28 93.9353 524.093L15.4937 520.646C23.187 490.839 28.989 474.346 43.9395 445.652L117.209 468.064Z" fill="#336790"/>
<path d="M154.272 408.585C141.685 426.245 134.98 437.717 123.24 459.443L48.2466 436.169C61.6187 407.683 70.2496 392.743 88.7604 368.933L154.272 408.585Z" fill="#336790"/>
<path d="M205.135 354.28C186.215 371.156 176.771 381.5 161.173 400.828L95.6611 360.314C112.986 337.062 123.889 324.577 147.381 304.285L205.135 354.28Z" fill="#336790"/>
<path d="M266.325 308.595C245.43 321.622 233.079 330.37 212.882 347.384L155.128 296.527C176.307 277.343 190.133 266.566 215.468 250.841L266.325 308.595Z" fill="#336790"/>
<path d="M331.85 274.977C310.269 283.457 297.687 289.948 274.958 302.561L224.101 245.669C251.195 229.356 267.128 221.22 298.232 208.604L331.85 274.977Z" fill="#336790"/>
<path d="M399.941 254.287C375.468 258.439 363.014 262.797 341.325 271.527L308.569 205.153C335.214 193.548 350.418 189.092 377.529 185.327L399.941 254.287Z" fill="#336790"/>
<path d="M473.207 245.67C447.89 245.519 434.145 247.184 410.281 252.566L385.283 181.882C416.536 174.691 434.249 173.028 466.311 173.262L473.207 245.67Z" fill="#336790"/>
<path d="M546.482 245.667H481.832L476.66 173.259L544.758 172.397L546.482 245.667Z" fill="#706DA6"/>
<path d="M555.104 244.805L554.242 172.397H623.202V244.805H555.104Z" fill="#8B516A"/>
<path d="M699.06 244.809H632.687V171.539H699.06V244.809Z" fill="#E39E22"/>
<path d="M710.252 245.667V172.397H776.626V245.667H710.252Z" fill="#005E54"/>
<path d="M786.979 245.667V172.397H853.353V245.667H786.979Z" fill="#D9D9D9"/>
<path d="M786.979 245.667V172.397H853.353V245.667H786.979Z" fill="#706DA6"/>
<path d="M669.75 416.343V343.073H736.123V416.343H669.75Z" fill="#31837B"/>
<path d="M614.582 585.293V512.023H680.955V585.293H614.582Z" fill="#3B4856"/>
<path d="M571.478 758.557V682.702H636.989V758.557H571.478Z" fill="#3B4856"/>
<path d="M723.191 758.557V682.702H788.703V758.557H723.191Z" fill="#8B516A"/>
<path d="M647.334 758.557V682.702H712.846V758.557H647.334Z" fill="#51AB97"/>
<path d="M557.686 929.232V853.376H623.197V929.232H557.686Z" fill="#31837B"/>
<path d="M480.108 927.509V851.653H545.62V927.509H480.108Z" fill="#51AB97"/>
<path d="M709.398 929.232V853.376H774.91V929.232H709.398Z" fill="#E39E22"/>
<path d="M786.979 929.232V853.376H852.491V929.232H786.979Z" fill="#8B516A"/>
<path d="M633.54 929.232V853.376H699.051V929.232H633.54Z" fill="#9E484D"/>
<path d="M762.839 585.293V512.023H829.213V585.293H762.839Z" fill="#E39E22"/>
<path d="M688.707 585.293V512.023H755.081V585.293H688.707Z" fill="#51AB97"/>
<path d="M518.026 416.343V343.073H584.4V416.343H518.026Z" fill="#706DA6"/>
<path d="M593.89 416.343V343.073H660.264V416.343H593.89Z" fill="#74A2CF"/>
<path d="M655.948 73.2696V0H722.321V73.2696H655.948Z" fill="#336790"/>
<path d="M733.535 73.2696V0H799.909V73.2696H733.535Z" fill="#336790"/>
<path d="M540.45 585.293V512.023H606.823V585.293H540.45Z" fill="#74A2CF"/>
<path d="M495.624 755.109V682.702C520.448 684.13 534.69 684.259 562.859 682.702V755.109C537.236 756.651 522.392 756.351 495.624 755.109Z" fill="#31837B"/>
<path d="M743.88 416.343V343.073H810.254V416.343H743.88Z" fill="#E39E22"/>
<path d="M924.901 253.425C901.494 246.843 888.242 244.562 864.562 244.805V172.397C894.388 170.732 911.139 173.033 940.417 181.879L924.901 253.425Z" fill="#3B4856"/>
<path d="M936.097 256.013L949.027 184.467C963.681 187.915 993.826 196.925 1017.99 212.913L992.988 284.459C970.577 268.943 960.191 264.502 936.097 256.013Z" fill="#E39E22"/>
<path d="M1042.13 329.283C1026.04 310.976 1016.77 301.694 999.029 288.77L1026.61 220.672C1053.33 234.259 1065 245.044 1087.81 268.082L1042.13 329.283Z" fill="#9E484D"/>
<path d="M1076.61 388.76C1068.64 369.17 1062.67 357.923 1048.16 337.04L1094.71 275.838C1117.29 302.334 1127.32 317.386 1138.67 344.798L1076.61 388.76Z" fill="#31837B"/>
<path d="M1165.4 433.584C1161.29 402.258 1156.49 384.524 1142.99 352.557L1080.06 398.242C1087.35 420.13 1089.37 432.397 1090.4 454.272L1165.4 433.584Z" fill="#74A2CF"/>
<path d="M1080.91 525.819C1088.19 502.862 1089.85 489.428 1089.53 464.617L1166.25 443.929C1166.86 480.512 1165.7 499.044 1160.22 529.267L1080.91 525.819Z" fill="#E39E22"/>
<path d="M1155.91 540.47L1078.33 536.16C1069.78 557.59 1063.15 569.266 1049.02 589.603L1120.57 616.325C1136.93 590.416 1144.93 574.13 1155.91 540.47Z" fill="#3B4856"/>
<path d="M880.935 506.854C874.018 510.811 862.544 511.545 837.835 512.025L838.697 584.433C868.228 585.38 883.83 584.476 907.657 576.675L880.935 506.854Z" fill="#8B516A"/>
<path d="M1056.78 685.287L1004.2 635.291C1020.71 620.573 1028.82 612.484 1042.13 598.226L1114.54 624.947C1094.06 653.972 1081.23 666.632 1056.78 685.287Z" fill="#9E484D"/>
<path d="M1049.03 693.043L994.72 641.323C974.017 654.567 961.793 661.289 937.829 670.631L978.342 731.832C1006.34 720.085 1021.76 711.02 1049.03 693.043Z" fill="#336790"/>
<path d="M968.864 735.28L926.626 673.217C906.484 680.045 894.136 682.407 869.734 682.699L895.594 753.382C924.436 749.329 940.478 745.347 968.864 735.28Z" fill="#74A2CF"/>
<path d="M859.386 681.838C835.763 682.65 822.717 682.65 799.046 681.838V756.832C838.149 758.609 858.081 758.732 884.383 755.108L859.386 681.838Z" fill="#706DA6"/>
<path d="M487.001 683.561C472.073 679.957 464.451 676.339 453.383 666.321L401.663 718.041C426.691 743.727 453.187 755.949 487.001 755.107V683.561Z" fill="#9E484D"/>
<path d="M442.17 624.084C440.98 639.586 442.389 646.888 448.204 657.702L394.76 710.284C370.09 681.413 359.519 649.749 369.762 608.568L442.17 624.084Z" fill="#E39E22"/>
<path d="M466.314 593.053C455.004 600.984 452.203 605.867 447.351 614.603L372.357 599.087C385.378 564.003 398.811 548.491 433.559 527.542L466.314 593.053Z" fill="#8B516A"/>
<path d="M531.826 586.154C502.004 585.534 484.898 585.104 474.935 588.74L442.179 523.229C461.831 512.864 485.596 512.454 532.688 513.747L531.826 586.154Z" fill="#706DA6"/>
<path d="M869.735 417.206C853.873 416.277 842.641 415.915 819.739 415.482L820.601 343.074C851.517 342.574 864.544 342.776 880.94 343.936L869.735 417.206Z" fill="#9E484D"/>
<path d="M894.723 431C889.602 425.905 886.591 423.228 880.069 419.794L891.275 346.524C933.088 361.015 947.031 374.496 966.269 401.692L894.723 431Z" fill="#3B4856"/>
<path d="M908.519 472.374C909.232 455.223 907.544 447.537 900.761 437.894L971.444 410.31C986.939 444.921 988.296 464.168 979.202 498.234L908.519 472.374Z" fill="#31837B"/>
<path d="M916.274 572.366L890.414 500.82C896.936 495.643 900.255 491.797 905.068 481.856L976.614 507.716C960.117 540.639 946.264 554.031 916.274 572.366Z" fill="#706DA6"/>
<path d="M508.549 417.206C489.694 416.51 477.129 416.43 449.072 417.206L443.038 345.66C447.696 344.436 465.718 343.662 508.549 342.212V417.206Z" fill="#9E484D"/>
<path d="M438.728 419.792C411.426 427.913 399.906 432.448 384.422 440.48L362.872 368.934C389.528 357.358 404.82 352.579 432.694 348.247L438.728 419.792Z" fill="#3B4856"/>
<path d="M374.947 444.789C356.537 454.834 347.671 462.299 332.709 476.683L291.333 413.757C311.695 397.169 325.228 388.228 353.397 373.244L374.947 444.789Z" fill="#E39E22"/>
<path d="M290.465 525.817C300.898 509.51 307.743 500.293 324.083 483.579L282.707 421.516C260.307 441.005 249.84 453.485 233.574 477.545L290.465 525.817Z" fill="#31837B"/>
<path d="M268.057 578.399C272.73 559.928 276.525 550.545 285.297 536.161L226.681 486.166C211.104 512.489 203.822 528.198 194.788 557.711L268.057 578.399Z" fill="#706DA6"/>
<path d="M260.292 646.497C259.695 623.939 260.061 611.301 264.602 588.743L192.195 566.332C185.112 598.673 183.571 617.184 183.575 650.807L260.292 646.497Z" fill="#8B516A"/>
<path d="M274.09 711.147C266.027 689.063 263.362 677.29 260.299 656.841L184.443 660.289C188.588 690.145 192.751 706.102 202.545 733.559L274.09 711.147Z" fill="#74A2CF"/>
<path d="M310.291 770.624C297.165 754.995 290.14 744.285 278.397 720.628L205.989 743.04C218.473 772.164 228.18 787.021 248.227 812L310.291 770.624Z" fill="#3B4856"/>
<path d="M357.701 812.863C339.751 800.869 331.364 793.27 318.049 778.383L254.262 819.759C274.205 842.622 286.299 852.754 308.567 868.892L357.701 812.863Z" fill="#9E484D"/>
<path d="M418.906 843.032C398.109 835.634 386.5 830.783 366.325 818.896L317.191 874.064C341.701 889.982 355.815 897.558 381.841 906.82L418.906 843.032Z" fill="#E39E22"/>
<path d="M861.97 927.509L861.108 853.456C885.302 853.521 898.616 852.372 922.31 849.93L930.068 923.101C913.593 926.475 898.031 927.321 861.97 927.509Z" fill="#706DA6"/>
<path d="M940.405 919.75L931.785 847.342C956.164 843.74 969.325 840.4 992.125 832.688L1012.81 903.372C985.016 912.54 968.964 916.303 940.405 919.75Z" fill="#336790"/>
<path d="M1023.17 900.786L1001.62 829.24C1022.66 821.976 1034.87 816.957 1057.65 805.104L1088.68 873.202C1063.49 886.205 1049.27 892.761 1023.17 900.786Z" fill="#336790"/>
<path d="M1159.36 731.834C1143.96 746.536 1135.58 753.641 1121.43 764.59L1167.12 826.654C1187.47 810.531 1198.97 800.217 1218.84 780.106L1159.36 731.834Z" fill="#336790"/>
<path d="M1242.12 613.741C1230.82 637.981 1223.13 650.591 1209.36 670.633L1274.01 712.871C1289.45 690.183 1297.46 676.564 1309.35 649.945L1242.12 613.741Z" fill="#336790"/>
<path d="M1263.66 550.814C1258.1 572.52 1253.81 584.312 1245.55 605.12L1313.65 640.462C1324.03 614.51 1329.75 599.746 1337.79 568.054L1263.66 550.814Z" fill="#336790"/>
<path d="M1266.25 540.471C1269.7 520.263 1271.18 508.488 1272.28 486.166L1348.13 483.58C1347.41 515.624 1345.31 531.655 1339.51 556.849L1266.25 540.471Z" fill="#336790"/>
<path d="M1269.69 412.895C1273.01 437.483 1273.33 451.251 1272.28 475.821L1348.13 473.235C1348.91 447.74 1348.71 433.126 1345.55 405.999L1269.69 412.895Z" fill="#336790"/>
<path d="M1254.18 343.936C1261.99 367.993 1265.4 381.073 1268.84 403.414L1345.55 396.518C1341.63 370.745 1338.49 356.244 1330.04 330.145L1254.18 343.936Z" fill="#336790"/>
<path d="M1249.86 334.455C1242.5 315.022 1237.84 303.778 1224.86 280.149L1294.68 249.117C1310.08 276.951 1316.48 292.4 1325.72 319.801L1249.86 334.455Z" fill="#336790"/>
<path d="M1219.7 271.529C1208.81 254.151 1202 244.083 1186.94 224.981L1246.23 178.911C1266.11 201.346 1275.29 214.869 1289.33 240.113L1219.7 271.529Z" fill="#336790"/>
<path d="M1136.95 174.985C1156.37 190.454 1165.59 200.134 1180.91 218.085L1241.25 171.537C1222.68 149.668 1211.23 138.234 1188.67 119.817L1136.95 174.985Z" fill="#336790"/>
<path d="M1130.06 168.952C1111.21 154.31 1100.6 146.551 1081.78 135.334L1119.71 69.8223C1145.01 85.3636 1158.64 94.8225 1181.78 112.922L1130.06 168.952Z" fill="#336790"/>
<path d="M1021.45 105.163C1041.28 112.443 1052.63 118.385 1073.17 130.161L1110.23 65.5116C1085.41 51.4621 1071.36 44.5416 1045.58 35.3418L1021.45 105.163Z" fill="#336790"/>
<path d="M469.756 853.375C454.032 852.197 445.677 850.368 429.242 845.617L391.314 909.404C422.015 920.648 439.048 924.234 469.756 924.92V853.375Z" fill="#706DA6"/>
</svg>
