<?xml version="1.0" encoding="UTF-8" standalone="yes"?>
<!DOCTYPE svg PUBLIC "-//W3C//DTD SVG 1.1//EN" "http://www.w3.org/Graphics/SVG/1.1/DTD/svg11.dtd">

<svg width="72" height="72" viewBox="0 0 72 72" xmlns="http://www.w3.org/2000/svg" xmlns:xlink="http://www.w3.org/1999/xlink" version="1.1" baseProfile="full">
    <g transform="scale(1,-1) translate(0,-72)">
        <path d="M 16.893616 11.206726 L 19.316101 11.206726 L 19.316101 6.889099 L 16.893616 6.889099 L 16.893616 1.829895 L 11.323547 1.829895 L 11.323547 6.889099 L 1.781921 6.889099 L 1.452332 10.316833 L 11.323547 25.774597 L 11.323547 25.824036 L 16.893616 25.824036 Z M 6.231384 11.206726 L 11.323547 11.206726 L 11.323547 18.671936 L 11.224670 18.688416 L 10.614929 17.452454 Z M 38.547668 1.829895 L 21.870422 1.829895 L 21.870422 5.455383 L 29.253235 13.563293 Q 30.736389 15.244202 31.428528 16.562561 Q 32.120667 17.880920 32.120667 18.853210 Q 32.120667 20.253967 31.494446 21.069702 Q 30.868225 21.885437 29.483948 21.885437 Q 28.182068 21.885437 27.465210 20.822510 Q 26.748352 19.759583 26.748352 18.111633 L 21.293640 18.111633 L 21.260681 18.210510 Q 21.178284 21.539368 23.452454 23.854736 Q 25.726624 26.170105 29.483948 26.170105 Q 33.422546 26.170105 35.564880 24.233765 Q 37.707214 22.297424 37.707214 18.902649 Q 37.707214 16.628479 36.520691 14.873413 Q 35.334167 13.118347 32.170105 9.690613 L 29.253235 6.196960 L 29.286194 6.114563 L 38.547668 6.114563 Z" transform="scale(1.000000,1.000000) translate(16.000000,22.000000)" opacity="1.000000"></path>
    </g>
</svg>