<?xml version="1.0" encoding="UTF-8" standalone="yes"?>
<!DOCTYPE svg PUBLIC "-//W3C//DTD SVG 1.1//EN" "http://www.w3.org/Graphics/SVG/1.1/DTD/svg11.dtd">

<svg width="500" height="500" viewBox="0 0 500 500" xmlns="http://www.w3.org/2000/svg" xmlns:xlink="http://www.w3.org/1999/xlink" version="1.1" baseProfile="full">
    <g transform="scale(1,-1) translate(0,-500)">
        <path d="M 263.640001 1.039998 Q 242.520001 1.039998 233.880001 4.879998 Q 225.240001 8.719998 209.880001 24.079998 L 120.279999 113.679999 Q 104.279999 129.680000 88.279999 130.960000 Q 8.279998 143.760000 1.239997 237.840001 L 1.239997 289.040002 Q 1.239997 303.760002 13.719998 313.360002 Q 26.199998 322.960002 46.039998 322.960002 Q 65.879998 322.960002 78.359999 313.360002 Q 90.839999 303.760002 90.839999 289.040002 L 90.839999 237.840001 Q 90.839999 218.640001 110.039999 218.640001 L 314.840002 218.640001 Q 329.560002 218.640001 339.160002 206.160001 Q 348.760003 193.680000 348.760003 173.840000 Q 348.760003 154.000000 339.160002 141.520000 Q 329.560002 129.040000 314.840002 129.040000 L 238.040001 129.040000 Q 233.560001 129.040000 233.560001 127.119999 L 259.160001 100.879999 Q 273.240001 90.639999 289.240002 90.639999 L 314.840002 90.639999 Q 329.560002 90.639999 339.160002 78.159999 Q 348.760003 65.679999 348.760003 45.839998 Q 348.760003 25.999998 339.160002 13.519998 Q 329.560002 1.039998 314.840002 1.039998 Z M 46.039998 1.039998 Q 26.839998 1.039998 14.039998 13.839998 Q 1.239997 26.639998 1.239997 45.839998 Q 1.239997 64.399999 14.359998 77.519999 Q 27.479998 90.639999 46.039998 90.639999 Q 63.959998 90.639999 77.399999 77.199999 Q 90.839999 63.759999 90.839999 45.839998 Q 90.839999 27.279998 77.719999 14.159998 Q 64.599998 1.039998 46.039998 1.039998 Z" transform="scale(1.000000,1.000000) translate(75.000000,88.000000)" opacity="1.000000"></path>
    </g>
</svg>